SplineFontDB: 3.0
FontName: FiraMath-Bold
FullName: Fira Math Bold
FamilyName: Fira Math
Weight: Bold
Copyright: 
Version: 
ItalicAngle: 0
UnderlinePosition: -100
UnderlineWidth: 50
Ascent: 800
Descent: 200
InvalidEm: 0
sfntRevision: 0x00000000
LayerCount: 2
Layer: 0 0 "Back" 1
Layer: 1 0 "Fore" 0
XUID: [1021 259 345145688 16412]
OS2Version: 0
OS2_WeightWidthSlopeOnly: 0
OS2_UseTypoMetrics: 1
CreationTime: 1527319520
OS2TypoAscent: 0
OS2TypoAOffset: 1
OS2TypoDescent: 0
OS2TypoDOffset: 1
OS2TypoLinegap: 0
OS2WinAscent: 0
OS2WinAOffset: 1
OS2WinDescent: 0
OS2WinDOffset: 1
HheadAscent: 0
HheadAOffset: 1
HheadDescent: 0
HheadDOffset: 1
OS2Vendor: 'PfEd'
MarkAttachClasses: 1
DEI: 91125
LangName: 1033
MATH:ScriptPercentScaleDown: 80
MATH:ScriptScriptPercentScaleDown: 60
MATH:DelimitedSubFormulaMinHeight: 1500
MATH:DisplayOperatorMinHeight: 1500
MATH:MathLeading: 150 
MATH:AxisHeight: 280 
MATH:AccentBaseHeight: 527 
MATH:FlattenedAccentBaseHeight: 689 
MATH:SubscriptShiftDown: 350 
MATH:SubscriptTopMax: 527 
MATH:SubscriptBaselineDropMin: 250 
MATH:SuperscriptShiftUp: 400 
MATH:SuperscriptShiftUpCramped: 270 
MATH:SuperscriptBottomMin: 130 
MATH:SuperscriptBaselineDropMax: 360 
MATH:SubSuperscriptGapMin: 200 
MATH:SuperscriptBottomMaxWithSubscript: 527 
MATH:SpaceAfterScript: 41 
MATH:UpperLimitGapMin: 150 
MATH:UpperLimitBaselineRiseMin: 150 
MATH:LowerLimitGapMin: 150 
MATH:LowerLimitBaselineDropMin: 600 
MATH:StackTopShiftUp: 450 
MATH:StackTopDisplayStyleShiftUp: 580 
MATH:StackBottomShiftDown: 480 
MATH:StackBottomDisplayStyleShiftDown: 700 
MATH:StackGapMin: 200 
MATH:StackDisplayStyleGapMin: 500 
MATH:StretchStackTopShiftUp: 300 
MATH:StretchStackBottomShiftDown: 600 
MATH:StretchStackGapAboveMin: 150 
MATH:StretchStackGapBelowMin: 150 
MATH:FractionNumeratorShiftUp: 450 
MATH:FractionNumeratorDisplayStyleShiftUp: 580 
MATH:FractionDenominatorShiftDown: 480 
MATH:FractionDenominatorDisplayStyleShiftDown: 700 
MATH:FractionNumeratorGapMin: 80 

StartChar: uni0021
Encoding: 33 33 1
Width: 240
Flags: W
LayerCount: 2
Fore
SplineSet
204 693 m 1
 184 255 l 1
 56 255 l 1
 36 693 l 1
 204 693 l 1
120 164 m 0
 171 164 211 123 211 74 c 0
 211 24 171 -17 120 -17 c 0
 70 -17 30 24 30 74 c 0
 30 123 70 164 120 164 c 0
EndSplineSet
EndChar

StartChar: uni0022
Encoding: 34 34 2
Width: 439
Flags: W
LayerCount: 2
Fore
SplineSet
67 414 m 1
 48 693 l 1
 191 693 l 1
 171 414 l 1
 67 414 l 1
268 414 m 1
 249 693 l 1
 392 693 l 1
 373 414 l 1
 268 414 l 1
EndSplineSet
EndChar

StartChar: uni0023
Encoding: 35 35 3
Width: 557
Flags: W
LayerCount: 2
Fore
SplineSet
542 440 m 1
 472 440 l 1
 447 248 l 1
 505 248 l 1
 505 143 l 1
 433 143 l 1
 414 0 l 1
 283 0 l 1
 302 143 l 1
 202 143 l 1
 183 0 l 1
 52 0 l 1
 71 143 l 1
 15 143 l 1
 15 248 l 1
 85 248 l 1
 110 440 l 1
 52 440 l 1
 52 545 l 1
 124 545 l 1
 141 676 l 1
 272 676 l 1
 255 545 l 1
 355 545 l 1
 372 676 l 1
 503 676 l 1
 486 545 l 1
 542 545 l 1
 542 440 l 1
216 248 m 1
 316 248 l 1
 341 440 l 1
 241 440 l 1
 216 248 l 1
EndSplineSet
EndChar

StartChar: uni0024
Encoding: 36 36 4
Width: 549
Flags: W
LayerCount: 2
Fore
SplineSet
525 200 m 0
 525 97 457 21 340 -3 c 1
 340 -161 l 1
 226 -161 l 1
 226 -9 l 1
 129 -1 58 37 9 85 c 1
 90 173 l 1
 136 130 190 106 256 106 c 0
 321 106 361 137 361 188 c 0
 361 237 337 258 240 288 c 0
 91 335 37 396 37 494 c 0
 37 596 115 666 226 682 c 1
 226 830 l 1
 340 830 l 1
 340 682 l 1
 409 671 462 644 506 601 c 1
 433 515 l 1
 388 553 342 571 288 571 c 0
 233 571 198 548 198 506 c 0
 198 464 223 447 327 414 c 0
 452 374 525 321 525 200 c 0
EndSplineSet
EndChar

StartChar: uni0025
Encoding: 37 37 5
Width: 859
Flags: W
LayerCount: 2
Fore
SplineSet
614 720 m 1
 711 658 l 1
 248 -40 l 1
 151 22 l 1
 614 720 l 1
207 690 m 0
 307 690 385 620 385 510 c 0
 385 400 307 330 207 330 c 0
 108 330 29 400 29 510 c 0
 29 620 108 690 207 690 c 0
207 595 m 0
 155 595 142 553 142 510 c 0
 142 468 155 425 207 425 c 0
 259 425 271 467 271 510 c 0
 271 552 259 595 207 595 c 0
652 342 m 0
 752 342 830 273 830 163 c 0
 830 52 752 -17 652 -17 c 0
 552 -17 473 52 473 163 c 0
 473 273 552 342 652 342 c 0
652 247 m 0
 600 247 587 205 587 163 c 0
 587 121 600 77 652 77 c 0
 704 77 716 120 716 163 c 0
 716 205 704 247 652 247 c 0
EndSplineSet
EndChar

StartChar: uni0026
Encoding: 38 38 6
Width: 760
Flags: W
LayerCount: 2
Fore
SplineSet
313 710 m 0
 448 710 527 641 527 550 c 0
 527 466 472 412 395 361 c 1
 530 234 l 1
 549 274 565 322 578 378 c 1
 710 339 l 1
 684 263 653 202 618 153 c 1
 739 46 l 1
 604 -17 l 1
 526 58 l 1
 463 7 391 -17 307 -17 c 0
 159 -17 60 60 60 177 c 0
 60 260 105 314 195 373 c 1
 126 440 99 480 99 544 c 0
 99 630 168 710 313 710 c 0
315 608 m 0
 275 608 251 582 251 544 c 0
 251 509 266 486 308 444 c 1
 354 474 376 504 376 546 c 0
 376 584 353 608 315 608 c 0
285 288 m 1
 244 258 225 226 225 186 c 0
 225 131 268 95 334 95 c 0
 378 95 414 108 447 133 c 1
 285 288 l 1
EndSplineSet
EndChar

StartChar: uni0027
Encoding: 39 39 7
Width: 238
Flags: W
LayerCount: 2
Fore
SplineSet
67 414 m 1
 48 693 l 1
 191 693 l 1
 171 414 l 1
 67 414 l 1
EndSplineSet
EndChar

StartChar: uni0028
Encoding: 40 40 8
Width: 325
Flags: W
LayerCount: 2
Fore
SplineSet
212 859 m 1
 313 791 l 1
 220 658 178 535 178 350 c 0
 178 165 220 42 313 -91 c 1
 212 -159 l 1
 111 -20 18 111 18 350 c 0
 18 589 111 720 212 859 c 1
EndSplineSet
EndChar

StartChar: uni0029
Encoding: 41 41 9
Width: 325
Flags: W
LayerCount: 2
Fore
SplineSet
113 859 m 1
 213 720 306 589 306 350 c 0
 306 111 213 -20 113 -159 c 1
 12 -91 l 1
 104 42 147 165 147 350 c 0
 147 535 104 658 12 791 c 1
 113 859 l 1
EndSplineSet
EndChar

StartChar: uni002A
Encoding: 42 42 10
Width: 449
Flags: W
LayerCount: 2
Fore
SplineSet
441 535 m 1
 300 512 l 1
 401 410 l 1
 291 330 l 1
 225 457 l 1
 159 329 l 1
 49 409 l 1
 149 511 l 1
 8 535 l 1
 49 661 l 1
 177 599 l 1
 157 742 l 1
 293 742 l 1
 272 598 l 1
 399 662 l 1
 441 535 l 1
EndSplineSet
EndChar

StartChar: uni002B
Encoding: 43 43 11
Width: 531
Flags: W
LayerCount: 2
Fore
SplineSet
331 549 m 1
 331 393 l 1
 482 393 l 1
 482 271 l 1
 331 271 l 1
 331 115 l 1
 200 115 l 1
 200 271 l 1
 48 271 l 1
 48 393 l 1
 200 393 l 1
 200 549 l 1
 331 549 l 1
EndSplineSet
EndChar

StartChar: uni002C
Encoding: 44 44 12
Width: 240
Flags: W
LayerCount: 2
Fore
SplineSet
120 164 m 0
 171 164 210 125 210 74 c 0
 210 43 200 17 178 -32 c 2
 115 -177 l 1
 26 -177 l 1
 69 -1 l 1
 44 16 29 43 29 74 c 0
 29 125 68 164 120 164 c 0
EndSplineSet
EndChar

StartChar: uni002D
Encoding: 45 45 13
Width: 407
Flags: W
LayerCount: 2
Fore
SplineSet
44 252 m 1
 44 374 l 1
 363 374 l 1
 363 252 l 1
 44 252 l 1
EndSplineSet
EndChar

StartChar: uni002E
Encoding: 46 46 14
Width: 240
Flags: W
LayerCount: 2
Fore
SplineSet
120 164 m 0
 170 164 210 123 210 74 c 0
 210 24 170 -17 120 -17 c 0
 69 -17 29 24 29 74 c 0
 29 123 69 164 120 164 c 0
EndSplineSet
EndChar

StartChar: uni002F
Encoding: 47 47 15
Width: 520
Flags: W
LayerCount: 2
Fore
SplineSet
309 816 m 1
 447 785 l 1
 212 -112 l 1
 73 -80 l 1
 309 816 l 1
EndSplineSet
EndChar

StartChar: uni0030
Encoding: 48 48 16
Width: 585
Flags: W
LayerCount: 2
Fore
SplineSet
293 690 m 0
 459 690 548 564 548 337 c 0
 548 111 459 -17 293 -17 c 0
 127 -17 38 111 38 337 c 0
 38 564 127 690 293 690 c 0
293 573 m 0
 227 573 200 516 200 337 c 0
 200 158 227 100 293 100 c 0
 358 100 386 154 386 337 c 0
 386 521 358 573 293 573 c 0
EndSplineSet
EndChar

StartChar: uni0031
Encoding: 49 49 17
Width: 464
Flags: W
LayerCount: 2
Fore
SplineSet
382 676 m 1
 382 0 l 1
 227 0 l 1
 227 522 l 1
 82 433 l 1
 13 538 l 1
 241 676 l 1
 382 676 l 1
EndSplineSet
EndChar

StartChar: uni0032
Encoding: 50 50 18
Width: 517
Flags: W
LayerCount: 2
Fore
SplineSet
238 690 m 0
 389 690 471 602 471 497 c 0
 471 392 419 313 208 121 c 1
 485 121 l 1
 469 0 l 1
 29 0 l 1
 29 112 l 1
 256 336 309 397 309 481 c 0
 309 536 275 569 222 569 c 0
 173 569 139 547 99 499 c 1
 6 573 l 1
 60 644 137 690 238 690 c 0
EndSplineSet
EndChar

StartChar: uni0033
Encoding: 51 51 19
Width: 520
Flags: W
LayerCount: 2
Fore
SplineSet
239 690 m 0
 385 690 464 613 464 518 c 0
 464 436 415 381 332 357 c 1
 416 348 486 298 486 191 c 0
 486 78 395 -17 228 -17 c 0
 126 -17 49 21 -4 85 c 1
 81 168 l 1
 126 123 166 103 219 103 c 0
 281 103 324 139 324 201 c 0
 324 272 285 298 214 298 c 2
 158 298 l 1
 175 407 l 1
 214 407 l 2
 274 407 311 439 311 495 c 0
 311 544 276 573 221 573 c 0
 171 573 129 553 89 514 c 1
 11 599 l 1
 74 659 149 690 239 690 c 0
EndSplineSet
EndChar

StartChar: uni0034
Encoding: 52 52 20
Width: 565
Flags: W
LayerCount: 2
Fore
SplineSet
544 264 m 1
 544 146 l 1
 468 146 l 1
 468 0 l 1
 314 0 l 1
 313 146 l 1
 28 146 l 1
 28 251 l 1
 220 693 l 1
 354 643 l 1
 191 264 l 1
 315 264 l 1
 332 424 l 1
 468 424 l 1
 468 264 l 1
 544 264 l 1
EndSplineSet
EndChar

StartChar: uni0035
Encoding: 53 53 21
Width: 536
Flags: W
LayerCount: 2
Fore
SplineSet
472 676 m 1
 454 563 l 1
 209 563 l 1
 209 421 l 1
 243 437 277 443 309 443 c 0
 420 443 503 363 503 223 c 0
 503 80 399 -17 238 -17 c 0
 135 -17 64 26 13 85 c 1
 101 167 l 1
 136 126 177 102 232 102 c 0
 300 102 341 144 341 222 c 0
 341 306 302 335 246 335 c 0
 219 335 196 328 165 311 c 1
 58 311 l 1
 58 676 l 1
 472 676 l 1
EndSplineSet
EndChar

StartChar: uni0036
Encoding: 54 54 22
Width: 564
Flags: W
LayerCount: 2
Fore
SplineSet
345 455 m 0
 456 455 539 374 539 231 c 0
 539 93 445 -17 294 -17 c 0
 115 -17 38 115 38 309 c 0
 38 538 149 690 332 690 c 0
 396 690 447 671 486 645 c 1
 428 551 l 1
 400 567 371 577 336 577 c 0
 260 577 211 511 202 393 c 1
 244 436 294 455 345 455 c 0
296 96 m 0
 353 96 381 149 381 229 c 0
 381 316 353 346 301 346 c 0
 265 346 231 327 202 293 c 1
 204 152 228 96 296 96 c 0
EndSplineSet
EndChar

StartChar: uni0037
Encoding: 55 55 23
Width: 468
Flags: W
LayerCount: 2
Fore
SplineSet
450 676 m 1
 450 569 l 1
 202 -16 l 1
 59 32 l 1
 286 557 l 1
 13 557 l 1
 13 676 l 1
 450 676 l 1
EndSplineSet
EndChar

StartChar: uni0038
Encoding: 56 56 24
Width: 581
Flags: W
LayerCount: 2
Fore
SplineSet
417 363 m 1
 509 319 551 260 551 183 c 0
 551 74 455 -17 287 -17 c 0
 124 -17 29 72 29 180 c 0
 29 260 77 314 155 348 c 1
 83 390 56 446 56 508 c 0
 56 617 155 690 291 690 c 0
 425 690 525 626 525 516 c 0
 525 458 492 403 417 363 c 1
292 583 m 0
 242 583 209 557 209 506 c 0
 209 459 236 434 291 411 c 2
 312 403 l 1
 360 434 372 466 372 508 c 0
 372 552 345 583 292 583 c 0
292 96 m 0
 359 96 393 135 393 184 c 0
 393 239 365 265 289 293 c 2
 256 305 l 1
 210 279 188 239 188 188 c 0
 188 132 228 96 292 96 c 0
EndSplineSet
EndChar

StartChar: uni0039
Encoding: 57 57 25
Width: 560
Flags: W
LayerCount: 2
Fore
SplineSet
277 690 m 0
 444 690 529 582 529 428 c 0
 529 152 397 31 108 -28 c 1
 76 82 l 1
 246 123 332 179 359 299 c 1
 327 260 283 234 219 234 c 0
 114 234 26 318 26 457 c 0
 26 598 136 690 277 690 c 0
268 345 m 0
 306 345 341 366 368 405 c 1
 369 531 344 577 277 577 c 0
 221 577 185 538 185 462 c 0
 185 374 222 345 268 345 c 0
EndSplineSet
EndChar

StartChar: uni003A
Encoding: 58 58 26
Width: 240
Flags: W
LayerCount: 2
Fore
SplineSet
120 509 m 0
 170 509 210 468 210 419 c 0
 210 370 170 329 120 329 c 0
 69 329 29 370 29 419 c 0
 29 468 69 509 120 509 c 0
120 164 m 0
 170 164 210 123 210 74 c 0
 210 24 170 -17 120 -17 c 0
 69 -17 29 24 29 74 c 0
 29 123 69 164 120 164 c 0
EndSplineSet
EndChar

StartChar: uni003B
Encoding: 59 59 27
Width: 240
Flags: W
LayerCount: 2
Fore
SplineSet
120 509 m 0
 170 509 210 468 210 419 c 0
 210 370 170 329 120 329 c 0
 69 329 29 370 29 419 c 0
 29 468 69 509 120 509 c 0
120 164 m 0
 171 164 210 125 210 74 c 0
 210 43 200 17 178 -32 c 2
 115 -177 l 1
 26 -177 l 1
 69 -1 l 1
 44 16 29 43 29 74 c 0
 29 125 68 164 120 164 c 0
EndSplineSet
EndChar

StartChar: uni003C
Encoding: 60 60 28
Width: 519
Flags: W
LayerCount: 2
Fore
SplineSet
434 576 m 1
 484 465 l 1
 168 333 l 1
 484 205 l 1
 434 90 l 1
 34 263 l 1
 34 402 l 1
 434 576 l 1
EndSplineSet
EndChar

StartChar: uni003D
Encoding: 61 61 29
Width: 519
Flags: W
LayerCount: 2
Fore
SplineSet
48 375 m 1
 48 498 l 1
 470 498 l 1
 470 375 l 1
 48 375 l 1
48 165 m 1
 48 288 l 1
 470 288 l 1
 470 165 l 1
 48 165 l 1
EndSplineSet
EndChar

StartChar: uni003E
Encoding: 62 62 30
Width: 519
Flags: W
LayerCount: 2
Fore
SplineSet
84 576 m 1
 484 402 l 1
 484 263 l 1
 84 90 l 1
 34 205 l 1
 350 333 l 1
 34 465 l 1
 84 576 l 1
EndSplineSet
EndChar

StartChar: uni003F
Encoding: 63 63 31
Width: 481
Flags: W
LayerCount: 2
Fore
SplineSet
248 710 m 0
 394 710 467 632 467 543 c 0
 467 381 287 392 287 280 c 2
 287 255 l 1
 143 255 l 1
 143 286 l 2
 143 459 302 447 302 529 c 0
 302 565 276 586 232 586 c 0
 191 586 151 566 115 525 c 1
 14 603 l 1
 71 670 145 710 248 710 c 0
217 164 m 0
 267 164 307 123 307 74 c 0
 307 24 267 -17 217 -17 c 0
 167 -17 127 24 127 74 c 0
 127 123 167 164 217 164 c 0
EndSplineSet
EndChar

StartChar: uni0040
Encoding: 64 64 32
Width: 1020
Flags: W
LayerCount: 2
Fore
SplineSet
527 503 m 0
 582 503 646 488 700 458 c 1
 700 211 l 2
 700 128 713 102 747 102 c 0
 795 102 830 152 830 314 c 0
 830 488 734 595 526 595 c 0
 311 595 191 450 191 242 c 0
 191 29 307 -105 527 -105 c 0
 596 -105 672 -90 724 -71 c 1
 761 -180 l 1
 698 -204 610 -222 526 -222 c 0
 236 -222 48 -41 48 242 c 0
 48 514 248 710 527 710 c 0
 811 710 972 521 972 316 c 0
 972 135 886 4 754 4 c 0
 674 4 631 57 620 106 c 1
 596 50 549 8 477 8 c 0
 350 8 294 104 294 233 c 0
 294 397 379 503 527 503 c 0
498 107 m 0
 533 107 555 132 566 156 c 1
 566 394 l 1
 551 400 539 403 522 403 c 0
 470 403 437 361 437 232 c 0
 437 140 456 107 498 107 c 0
EndSplineSet
EndChar

StartChar: uni0041
Encoding: 65 65 33
Width: 590
Flags: W
LayerCount: 2
Fore
SplineSet
430 0 m 1
 394 149 l 1
 192 149 l 1
 157 0 l 1
 -13 0 l 1
 196 693 l 1
 395 693 l 1
 604 0 l 1
 430 0 l 1
220 268 m 1
 366 268 l 1
 293 574 l 1
 220 268 l 1
EndSplineSet
EndChar

StartChar: uni0042
Encoding: 66 66 34
Width: 617
Flags: W
LayerCount: 2
Fore
SplineSet
434 367 m 1
 511 352 590 314 590 202 c 0
 590 44 462 0 288 0 c 2
 65 0 l 1
 65 693 l 1
 261 693 l 2
 447 693 561 646 561 516 c 0
 561 428 498 382 434 367 c 1
277 577 m 2
 229 577 l 1
 229 416 l 1
 290 416 l 2
 358 416 394 442 394 500 c 0
 394 558 356 577 277 577 c 2
289 119 m 2
 366 119 421 135 421 211 c 0
 421 281 372 307 301 307 c 2
 229 307 l 1
 229 119 l 1
 289 119 l 2
EndSplineSet
EndChar

StartChar: uni0043
Encoding: 67 67 35
Width: 575
Flags: W
LayerCount: 2
Fore
SplineSet
348 710 m 0
 438 710 501 683 559 634 c 1
 481 541 l 1
 442 571 403 589 356 589 c 0
 267 589 205 518 205 348 c 0
 205 181 266 110 358 110 c 0
 413 110 453 135 494 166 c 1
 567 72 l 1
 521 26 446 -17 350 -17 c 0
 160 -17 33 111 33 348 c 0
 33 580 168 710 348 710 c 0
EndSplineSet
EndChar

StartChar: uni0044
Encoding: 68 68 36
Width: 651
Flags: W
LayerCount: 2
Fore
SplineSet
258 693 m 2
 443 693 618 636 618 350 c 0
 618 71 450 0 273 0 c 2
 65 0 l 1
 65 693 l 1
 258 693 l 2
281 574 m 2
 229 574 l 1
 229 119 l 1
 283 119 l 2
 382 119 448 166 448 350 c 0
 448 536 377 574 281 574 c 2
EndSplineSet
EndChar

StartChar: uni0045
Encoding: 69 69 37
Width: 526
Flags: W
LayerCount: 2
Fore
SplineSet
490 693 m 1
 473 576 l 1
 229 576 l 1
 229 410 l 1
 442 410 l 1
 442 295 l 1
 229 295 l 1
 229 118 l 1
 490 118 l 1
 490 0 l 1
 65 0 l 1
 65 693 l 1
 490 693 l 1
EndSplineSet
EndChar

StartChar: uni0046
Encoding: 70 70 38
Width: 487
Flags: W
LayerCount: 2
Fore
SplineSet
65 0 m 1
 65 693 l 1
 478 693 l 1
 461 576 l 1
 229 576 l 1
 229 392 l 1
 431 392 l 1
 431 275 l 1
 229 275 l 1
 229 0 l 1
 65 0 l 1
EndSplineSet
EndChar

StartChar: uni0047
Encoding: 71 71 39
Width: 645
Flags: W
LayerCount: 2
Fore
SplineSet
365 710 m 0
 466 710 539 675 596 625 c 1
 513 538 l 1
 466 574 428 591 372 591 c 0
 275 591 203 519 203 347 c 0
 203 165 251 103 347 103 c 0
 381 103 412 110 441 126 c 1
 441 283 l 1
 351 283 l 1
 335 399 l 1
 600 399 l 1
 600 56 l 1
 528 10 438 -17 351 -17 c 0
 139 -17 33 110 33 347 c 0
 33 582 179 710 365 710 c 0
EndSplineSet
EndChar

StartChar: uni0048
Encoding: 72 72 40
Width: 666
Flags: W
LayerCount: 2
Fore
SplineSet
437 0 m 1
 437 297 l 1
 229 297 l 1
 229 0 l 1
 65 0 l 1
 65 693 l 1
 229 693 l 1
 229 425 l 1
 437 425 l 1
 437 693 l 1
 601 693 l 1
 601 0 l 1
 437 0 l 1
EndSplineSet
EndChar

StartChar: uni0049
Encoding: 73 73 41
Width: 293
Flags: W
LayerCount: 2
Fore
SplineSet
229 693 m 1
 229 0 l 1
 65 0 l 1
 65 693 l 1
 229 693 l 1
EndSplineSet
EndChar

StartChar: uni004A
Encoding: 74 74 42
Width: 317
Flags: W
LayerCount: 2
Fore
SplineSet
256 693 m 1
 256 105 l 2
 256 -70 150 -131 33 -169 c 1
 -11 -53 l 1
 79 -18 92 29 92 111 c 2
 92 693 l 1
 256 693 l 1
EndSplineSet
EndChar

StartChar: uni004B
Encoding: 75 75 43
Width: 633
Flags: W
LayerCount: 2
Fore
SplineSet
229 693 m 1
 229 0 l 1
 65 0 l 1
 65 693 l 1
 229 693 l 1
627 693 m 1
 406 382 l 1
 645 0 l 1
 455 0 l 1
 234 370 l 1
 454 693 l 1
 627 693 l 1
EndSplineSet
EndChar

StartChar: uni004C
Encoding: 76 76 44
Width: 513
Flags: W
LayerCount: 2
Fore
SplineSet
229 693 m 1
 229 130 l 1
 499 130 l 1
 482 0 l 1
 65 0 l 1
 65 693 l 1
 229 693 l 1
EndSplineSet
EndChar

StartChar: uni004D
Encoding: 77 77 45
Width: 786
Flags: W
LayerCount: 2
Fore
SplineSet
701 693 m 1
 753 0 l 1
 592 0 l 1
 580 271 l 2
 575 368 573 468 578 554 c 1
 471 73 l 1
 316 73 l 1
 202 554 l 1
 209 452 209 366 205 269 c 2
 193 0 l 1
 33 0 l 1
 85 693 l 1
 292 693 l 1
 396 223 l 1
 493 693 l 1
 701 693 l 1
EndSplineSet
EndChar

StartChar: uni004E
Encoding: 78 78 46
Width: 663
Flags: W
LayerCount: 2
Fore
SplineSet
599 693 m 1
 599 0 l 1
 390 0 l 1
 190 537 l 1
 198 474 211 382 211 254 c 2
 211 0 l 1
 65 0 l 1
 65 693 l 1
 269 693 l 1
 474 155 l 1
 465 211 452 302 452 413 c 2
 452 693 l 1
 599 693 l 1
EndSplineSet
EndChar

StartChar: uni004F
Encoding: 79 79 47
Width: 691
Flags: W
LayerCount: 2
Fore
SplineSet
345 710 m 0
 541 710 658 578 658 347 c 0
 658 120 541 -17 345 -17 c 0
 150 -17 33 116 33 347 c 0
 33 573 150 710 345 710 c 0
345 590 m 0
 253 590 205 522 205 347 c 0
 205 171 255 103 345 103 c 0
 439 103 486 171 486 347 c 0
 486 522 438 590 345 590 c 0
EndSplineSet
EndChar

StartChar: uni0050
Encoding: 80 80 48
Width: 603
Flags: W
LayerCount: 2
Fore
SplineSet
289 693 m 2
 468 693 578 619 578 467 c 0
 578 306 464 231 304 231 c 2
 229 231 l 1
 229 0 l 1
 65 0 l 1
 65 693 l 1
 289 693 l 2
290 349 m 2
 364 349 409 380 409 467 c 0
 409 541 368 576 287 576 c 2
 229 576 l 1
 229 349 l 1
 290 349 l 2
EndSplineSet
EndChar

StartChar: uni0051
Encoding: 81 81 49
Width: 690
Flags: W
LayerCount: 2
Fore
SplineSet
495 45 m 1
 585 45 644 22 700 -18 c 1
 601 -147 l 1
 537 -75 465 -14 335 -14 c 0
 150 -14 33 116 33 347 c 0
 33 573 150 710 345 710 c 0
 541 710 658 578 658 347 c 0
 658 179 580 92 495 45 c 1
205 347 m 0
 205 171 255 103 345 103 c 0
 439 103 486 171 486 347 c 0
 486 522 438 590 345 590 c 0
 253 590 205 522 205 347 c 0
EndSplineSet
EndChar

StartChar: uni0052
Encoding: 82 82 50
Width: 617
Flags: W
LayerCount: 2
Fore
SplineSet
435 0 m 1
 293 265 l 1
 229 265 l 1
 229 0 l 1
 65 0 l 1
 65 693 l 1
 292 693 l 2
 480 693 577 626 577 482 c 0
 577 391 534 336 444 295 c 1
 620 0 l 1
 435 0 l 1
229 578 m 1
 229 378 l 1
 298 378 l 2
 370 378 408 409 408 482 c 0
 408 549 369 578 288 578 c 2
 229 578 l 1
EndSplineSet
EndChar

StartChar: uni0053
Encoding: 83 83 51
Width: 572
Flags: W
LayerCount: 2
Fore
SplineSet
288 710 m 0
 394 710 467 679 528 621 c 1
 452 532 l 1
 404 571 356 590 300 590 c 0
 243 590 207 566 207 522 c 0
 207 478 233 460 341 426 c 0
 472 384 547 330 547 202 c 0
 547 73 445 -17 272 -17 c 0
 152 -17 66 27 9 82 c 1
 92 173 l 1
 143 130 198 105 267 105 c 0
 335 105 377 137 377 190 c 0
 377 241 351 264 250 295 c 0
 95 343 38 407 38 510 c 0
 38 632 144 710 288 710 c 0
EndSplineSet
EndChar

StartChar: uni0054
Encoding: 84 84 52
Width: 540
Flags: W
LayerCount: 2
Fore
SplineSet
539 693 m 1
 523 567 l 1
 352 567 l 1
 352 0 l 1
 188 0 l 1
 188 567 l 1
 9 567 l 1
 9 693 l 1
 539 693 l 1
EndSplineSet
EndChar

StartChar: uni0055
Encoding: 85 85 53
Width: 651
Flags: W
LayerCount: 2
Fore
SplineSet
596 693 m 1
 596 230 l 2
 596 90 506 -17 325 -17 c 0
 144 -17 55 84 55 230 c 2
 55 693 l 1
 219 693 l 1
 219 237 l 2
 219 148 251 105 325 105 c 0
 400 105 432 148 432 237 c 2
 432 693 l 1
 596 693 l 1
EndSplineSet
EndChar

StartChar: uni0056
Encoding: 86 86 54
Width: 570
Flags: W
LayerCount: 2
Fore
SplineSet
584 693 m 1
 391 0 l 1
 187 0 l 1
 -13 693 l 1
 160 693 l 1
 292 128 l 1
 416 693 l 1
 584 693 l 1
EndSplineSet
EndChar

StartChar: uni0057
Encoding: 87 87 55
Width: 847
Flags: W
LayerCount: 2
Fore
SplineSet
837 693 m 1
 721 0 l 1
 508 0 l 1
 422 529 l 1
 331 0 l 1
 123 0 l 1
 9 693 l 1
 173 693 l 1
 242 124 l 1
 338 693 l 1
 510 693 l 1
 600 124 l 1
 681 693 l 1
 837 693 l 1
EndSplineSet
EndChar

StartChar: uni0058
Encoding: 88 88 56
Width: 581
Flags: W
LayerCount: 2
Fore
SplineSet
385 374 m 1
 585 0 l 1
 406 0 l 1
 287 264 l 1
 170 0 l 1
 -4 0 l 1
 190 368 l 1
 11 693 l 1
 189 693 l 1
 289 471 l 1
 394 693 l 1
 568 693 l 1
 385 374 l 1
EndSplineSet
EndChar

StartChar: uni0059
Encoding: 89 89 57
Width: 594
Flags: W
LayerCount: 2
Fore
SplineSet
601 693 m 1
 379 260 l 1
 379 0 l 1
 215 0 l 1
 215 259 l 1
 -7 693 l 1
 172 693 l 1
 300 388 l 1
 428 693 l 1
 601 693 l 1
EndSplineSet
EndChar

StartChar: uni005A
Encoding: 90 90 58
Width: 544
Flags: W
LayerCount: 2
Fore
SplineSet
512 693 m 1
 512 569 l 1
 211 131 l 1
 517 131 l 1
 501 0 l 1
 18 0 l 1
 18 123 l 1
 325 566 l 1
 49 566 l 1
 49 693 l 1
 512 693 l 1
EndSplineSet
EndChar

StartChar: uni005B
Encoding: 91 91 59
Width: 324
Flags: W
LayerCount: 2
Fore
SplineSet
299 823 m 1
 299 705 l 1
 184 705 l 1
 184 -6 l 1
 299 -6 l 1
 299 -123 l 1
 34 -123 l 1
 34 823 l 1
 299 823 l 1
EndSplineSet
EndChar

StartChar: uni005C
Encoding: 92 92 60
Width: 520
Flags: W
LayerCount: 2
Fore
SplineSet
211 816 m 1
 447 -80 l 1
 308 -112 l 1
 73 785 l 1
 211 816 l 1
EndSplineSet
EndChar

StartChar: uni005D
Encoding: 93 93 61
Width: 324
Flags: W
LayerCount: 2
Fore
SplineSet
290 823 m 1
 290 -123 l 1
 25 -123 l 1
 25 -5 l 1
 140 -5 l 1
 140 705 l 1
 25 705 l 1
 25 823 l 1
 290 823 l 1
EndSplineSet
EndChar

StartChar: uni005E
Encoding: 94 94 62
Width: 559
Flags: W
LayerCount: 2
Fore
SplineSet
351 844 m 1
 540 527 l 1
 386 527 l 1
 278 726 l 1
 175 527 l 1
 18 527 l 1
 207 844 l 1
 351 844 l 1
EndSplineSet
EndChar

StartChar: uni005F
Encoding: 95 95 63
Width: 520
Flags: W
LayerCount: 2
Fore
SplineSet
10 -171 m 1
 10 -47 l 1
 510 -47 l 1
 510 -171 l 1
 10 -171 l 1
EndSplineSet
EndChar

StartChar: uni0060
Encoding: 96 96 64
Width: 340
Flags: W
LayerCount: 2
Fore
SplineSet
92 835 m 1
 310 703 l 1
 266 622 l 1
 30 717 l 1
 92 835 l 1
EndSplineSet
EndChar

StartChar: uni0061
Encoding: 97 97 65
Width: 548
Flags: W
LayerCount: 2
Fore
SplineSet
484 154 m 2
 484 113 495 98 520 89 c 1
 487 -14 l 1
 424 -9 383 10 359 63 c 1
 321 4 262 -17 199 -17 c 0
 93 -17 26 52 26 149 c 0
 26 265 114 328 275 328 c 2
 329 328 l 1
 329 351 l 2
 329 414 304 433 239 433 c 0
 205 433 153 423 100 405 c 1
 64 509 l 1
 131 534 204 548 264 548 c 0
 418 548 484 483 484 360 c 2
 484 154 l 2
245 96 m 0
 282 96 310 115 329 147 c 1
 329 241 l 1
 290 241 l 2
 218 241 183 216 183 163 c 0
 183 121 206 96 245 96 c 0
EndSplineSet
EndChar

StartChar: uni0062
Encoding: 98 98 66
Width: 591
Flags: W
LayerCount: 2
Fore
SplineSet
362 548 m 0
 489 548 559 443 559 265 c 0
 559 101 480 -17 348 -17 c 0
 289 -17 241 9 209 51 c 1
 201 0 l 1
 61 0 l 1
 61 742 l 1
 219 759 l 1
 219 477 l 1
 251 521 303 548 362 548 c 0
302 98 m 0
 357 98 395 141 395 265 c 0
 395 400 359 432 309 432 c 0
 273 432 242 409 219 370 c 1
 219 149 l 1
 239 117 268 98 302 98 c 0
EndSplineSet
EndChar

StartChar: uni0063
Encoding: 99 99 67
Width: 478
Flags: W
LayerCount: 2
Fore
SplineSet
292 548 m 0
 366 548 423 526 474 483 c 1
 406 389 l 1
 372 415 341 427 305 427 c 0
 237 427 198 381 198 262 c 0
 198 144 240 108 303 108 c 0
 341 108 367 120 405 144 c 1
 474 46 l 1
 425 7 368 -17 295 -17 c 0
 132 -17 32 93 32 261 c 0
 32 430 133 548 292 548 c 0
EndSplineSet
EndChar

StartChar: uni0064
Encoding: 100 100 68
Width: 594
Flags: W
LayerCount: 2
Fore
SplineSet
375 759 m 1
 533 742 l 1
 533 0 l 1
 393 0 l 1
 385 62 l 1
 354 18 306 -17 234 -17 c 0
 99 -17 32 95 32 267 c 0
 32 431 118 548 249 548 c 0
 301 548 344 529 375 498 c 1
 375 759 l 1
283 99 m 0
 321 99 350 119 375 159 c 1
 375 388 l 1
 351 416 327 433 292 433 c 0
 236 433 196 385 196 266 c 0
 196 134 232 99 283 99 c 0
EndSplineSet
EndChar

StartChar: uni0065
Encoding: 101 101 69
Width: 554
Flags: W
LayerCount: 2
Fore
SplineSet
525 276 m 0
 525 259 524 235 522 219 c 1
 193 219 l 1
 204 124 249 98 314 98 c 0
 357 98 395 113 441 145 c 1
 506 57 l 1
 453 15 385 -17 299 -17 c 0
 122 -17 32 97 32 263 c 0
 32 422 119 548 280 548 c 0
 432 548 525 448 525 276 c 0
370 314 m 1
 370 321 l 2
 369 393 347 443 284 443 c 0
 231 443 200 409 193 314 c 1
 370 314 l 1
EndSplineSet
EndChar

StartChar: uni0066
Encoding: 102 102 70
Width: 356
Flags: W
LayerCount: 2
Fore
SplineSet
305 642 m 0
 259 642 241 622 241 572 c 2
 241 531 l 1
 366 531 l 1
 349 421 l 1
 241 421 l 1
 241 0 l 1
 83 0 l 1
 83 421 l 1
 3 421 l 1
 3 531 l 1
 83 531 l 1
 83 578 l 2
 83 680 150 759 286 759 c 0
 341 759 392 745 431 725 c 1
 388 622 l 1
 358 637 328 642 305 642 c 0
EndSplineSet
EndChar

StartChar: uni0067
Encoding: 103 103 71
Width: 551
Flags: W
LayerCount: 2
Fore
SplineSet
514 617 m 1
 551 500 l 1
 514 485 465 479 398 479 c 1
 465 450 498 411 498 342 c 0
 498 239 413 164 275 164 c 0
 253 164 233 166 214 170 c 1
 203 164 197 152 197 140 c 0
 197 124 204 108 255 108 c 2
 335 108 l 2
 459 108 538 43 538 -46 c 0
 538 -155 442 -222 260 -222 c 0
 59 -222 6 -156 6 -51 c 1
 148 -51 l 1
 148 -97 168 -117 264 -117 c 0
 357 -117 379 -91 379 -57 c 0
 379 -26 356 -5 303 -5 c 2
 226 -5 l 2
 110 -5 63 43 63 100 c 0
 63 139 88 178 126 202 c 1
 58 238 31 285 31 354 c 0
 31 474 125 548 264 548 c 0
 382 545 450 579 514 617 c 1
268 444 m 0
 219 444 188 411 188 356 c 0
 188 298 220 266 268 266 c 0
 320 266 348 297 348 358 c 0
 348 417 321 444 268 444 c 0
EndSplineSet
EndChar

StartChar: uni0068
Encoding: 104 104 72
Width: 573
Flags: W
LayerCount: 2
Fore
SplineSet
372 548 m 0
 463 548 519 489 519 388 c 2
 519 0 l 1
 361 0 l 1
 361 361 l 2
 361 417 341 432 311 432 c 0
 276 432 246 407 219 364 c 1
 219 0 l 1
 61 0 l 1
 61 742 l 1
 219 758 l 1
 219 474 l 1
 262 523 309 548 372 548 c 0
EndSplineSet
EndChar

StartChar: uni0069
Encoding: 105 105 73
Width: 280
Flags: W
LayerCount: 2
Fore
SplineSet
139 811 m 0
 194 811 233 772 233 721 c 0
 233 670 194 631 139 631 c 0
 84 631 46 670 46 721 c 0
 46 772 84 811 139 811 c 0
219 531 m 1
 219 0 l 1
 61 0 l 1
 61 531 l 1
 219 531 l 1
EndSplineSet
EndChar

StartChar: uni006A
Encoding: 106 106 74
Width: 280
Flags: W
LayerCount: 2
Fore
SplineSet
140 811 m 0
 195 811 234 772 234 721 c 0
 234 670 195 631 140 631 c 0
 85 631 47 670 47 721 c 0
 47 772 85 811 140 811 c 0
219 531 m 1
 219 60 l 2
 219 -113 130 -176 6 -221 c 1
 -47 -106 l 1
 21 -75 61 -47 61 50 c 2
 61 531 l 1
 219 531 l 1
EndSplineSet
EndChar

StartChar: uni006B
Encoding: 107 107 75
Width: 551
Flags: W
LayerCount: 2
Fore
SplineSet
219 759 m 1
 219 0 l 1
 61 0 l 1
 61 742 l 1
 219 759 l 1
547 531 m 1
 386 298 l 1
 560 0 l 1
 382 0 l 1
 224 290 l 1
 386 531 l 1
 547 531 l 1
EndSplineSet
EndChar

StartChar: uni006C
Encoding: 108 108 76
Width: 300
Flags: W
LayerCount: 2
Fore
SplineSet
200 -17 m 0
 108 -17 54 38 54 135 c 2
 54 742 l 1
 212 759 l 1
 212 141 l 2
 212 119 221 108 240 108 c 0
 250 108 259 110 266 113 c 1
 296 1 l 1
 273 -9 239 -17 200 -17 c 0
EndSplineSet
EndChar

StartChar: uni006D
Encoding: 109 109 77
Width: 841
Flags: W
LayerCount: 2
Fore
SplineSet
648 548 m 0
 730 548 786 489 786 388 c 2
 786 0 l 1
 628 0 l 1
 628 361 l 2
 628 417 608 432 584 432 c 0
 550 432 526 407 503 363 c 1
 503 0 l 1
 345 0 l 1
 345 361 l 2
 345 417 324 432 300 432 c 0
 267 432 242 407 219 363 c 1
 219 0 l 1
 61 0 l 1
 61 531 l 1
 198 531 l 1
 210 468 l 1
 250 521 299 548 364 548 c 0
 423 548 468 518 489 464 c 1
 531 520 580 548 648 548 c 0
EndSplineSet
EndChar

StartChar: uni006E
Encoding: 110 110 78
Width: 573
Flags: W
LayerCount: 2
Fore
SplineSet
372 548 m 0
 464 548 519 489 519 388 c 2
 519 0 l 1
 361 0 l 1
 361 361 l 2
 361 417 342 432 311 432 c 0
 276 432 246 407 219 363 c 1
 219 0 l 1
 61 0 l 1
 61 531 l 1
 198 531 l 1
 210 467 l 1
 254 520 305 548 372 548 c 0
EndSplineSet
EndChar

StartChar: uni006F
Encoding: 111 111 79
Width: 584
Flags: W
LayerCount: 2
Fore
SplineSet
292 548 m 0
 454 548 552 444 552 265 c 0
 552 95 454 -17 292 -17 c 0
 131 -17 32 87 32 266 c 0
 32 436 130 548 292 548 c 0
292 432 m 0
 228 432 196 381 196 266 c 0
 196 148 228 99 292 99 c 0
 356 99 388 150 388 265 c 0
 388 383 356 432 292 432 c 0
EndSplineSet
EndChar

StartChar: uni0070
Encoding: 112 112 80
Width: 591
Flags: W
LayerCount: 2
Fore
SplineSet
361 548 m 0
 498 548 559 439 559 267 c 0
 559 103 479 -17 348 -17 c 0
 296 -17 252 1 219 38 c 1
 219 -205 l 1
 61 -222 l 1
 61 531 l 1
 200 531 l 1
 208 472 l 1
 252 527 308 548 361 548 c 0
299 99 m 0
 358 99 395 146 395 265 c 0
 395 397 363 432 310 432 c 0
 274 432 242 409 219 370 c 1
 219 146 l 1
 241 114 266 99 299 99 c 0
EndSplineSet
EndChar

StartChar: uni0071
Encoding: 113 113 81
Width: 594
Flags: W
LayerCount: 2
Fore
SplineSet
395 531 m 1
 533 531 l 1
 533 -222 l 1
 375 -205 l 1
 375 51 l 1
 344 11 299 -17 234 -17 c 0
 99 -17 32 95 32 267 c 0
 32 431 117 548 250 548 c 0
 305 548 350 527 387 485 c 1
 395 531 l 1
283 99 m 0
 321 99 350 119 375 159 c 1
 375 388 l 1
 351 416 328 433 293 433 c 0
 236 433 196 385 196 266 c 0
 196 134 232 99 283 99 c 0
EndSplineSet
EndChar

StartChar: uni0072
Encoding: 114 114 82
Width: 400
Flags: W
LayerCount: 2
Fore
SplineSet
349 546 m 0
 369 546 384 544 402 539 c 1
 377 386 l 1
 360 390 346 393 329 393 c 0
 264 393 237 346 219 267 c 1
 219 0 l 1
 61 0 l 1
 61 531 l 1
 198 531 l 1
 212 428 l 1
 236 502 288 546 349 546 c 0
EndSplineSet
EndChar

StartChar: uni0073
Encoding: 115 115 83
Width: 480
Flags: W
LayerCount: 2
Fore
SplineSet
249 548 m 0
 326 548 395 523 444 483 c 1
 386 394 l 1
 345 420 301 435 255 435 c 0
 212 435 191 419 191 395 c 0
 191 367 205 355 300 327 c 0
 405 297 464 253 464 158 c 0
 464 48 360 -17 228 -17 c 0
 136 -17 58 15 6 62 c 1
 83 148 l 1
 123 117 172 96 224 96 c 0
 272 96 301 114 301 146 c 0
 301 182 285 193 189 220 c 0
 84 250 32 304 32 386 c 0
 32 477 115 548 249 548 c 0
EndSplineSet
EndChar

StartChar: uni0074
Encoding: 116 116 84
Width: 386
Flags: W
LayerCount: 2
Fore
SplineSet
342 125 m 1
 395 25 l 1
 355 -3 299 -17 251 -17 c 0
 134 -16 77 50 77 175 c 2
 77 421 l 1
 2 421 l 1
 2 531 l 1
 77 531 l 1
 77 646 l 1
 235 664 l 1
 235 531 l 1
 357 531 l 1
 340 421 l 1
 235 421 l 1
 235 177 l 2
 235 126 252 108 285 108 c 0
 303 108 321 113 342 125 c 1
EndSplineSet
EndChar

StartChar: uni0075
Encoding: 117 117 85
Width: 568
Flags: W
LayerCount: 2
Fore
SplineSet
507 531 m 1
 507 0 l 1
 370 0 l 1
 363 67 l 1
 325 11 273 -17 202 -17 c 0
 103 -17 54 47 54 150 c 2
 54 531 l 1
 212 531 l 1
 212 170 l 2
 212 116 230 100 263 100 c 0
 296 100 326 122 349 162 c 1
 349 531 l 1
 507 531 l 1
EndSplineSet
EndChar

StartChar: uni0076
Encoding: 118 118 86
Width: 513
Flags: W
LayerCount: 2
Fore
SplineSet
519 531 m 1
 352 0 l 1
 165 0 l 1
 -6 531 l 1
 166 531 l 1
 260 120 l 1
 358 531 l 1
 519 531 l 1
EndSplineSet
EndChar

StartChar: uni0077
Encoding: 119 119 87
Width: 749
Flags: W
LayerCount: 2
Fore
SplineSet
744 531 m 1
 634 0 l 1
 445 0 l 1
 374 390 l 1
 304 0 l 1
 117 0 l 1
 4 531 l 1
 164 531 l 1
 219 118 l 1
 302 531 l 1
 456 531 l 1
 529 118 l 1
 593 531 l 1
 744 531 l 1
EndSplineSet
EndChar

StartChar: uni0078
Encoding: 120 120 88
Width: 512
Flags: W
LayerCount: 2
Fore
SplineSet
351 284 m 1
 522 0 l 1
 343 0 l 1
 251 199 l 1
 161 0 l 1
 -11 0 l 1
 160 279 l 1
 6 531 l 1
 183 531 l 1
 257 361 l 1
 328 531 l 1
 496 531 l 1
 351 284 l 1
EndSplineSet
EndChar

StartChar: uni0079
Encoding: 121 121 89
Width: 518
Flags: W
LayerCount: 2
Fore
SplineSet
524 531 m 1
 355 -1 l 2
 313 -135 223 -213 56 -222 c 1
 39 -111 l 1
 143 -98 181 -68 210 0 c 1
 156 0 l 1
 -6 531 l 1
 162 531 l 1
 257 101 l 1
 361 531 l 1
 524 531 l 1
EndSplineSet
EndChar

StartChar: uni007A
Encoding: 122 122 90
Width: 454
Flags: W
LayerCount: 2
Fore
SplineSet
436 531 m 1
 436 420 l 1
 196 120 l 1
 441 120 l 1
 427 0 l 1
 13 0 l 1
 13 112 l 1
 254 412 l 1
 34 412 l 1
 34 531 l 1
 436 531 l 1
EndSplineSet
EndChar

StartChar: uni007B
Encoding: 123 123 91
Width: 324
Flags: W
LayerCount: 2
Fore
SplineSet
298 840 m 1
 298 730 l 1
 238 730 222 713 222 670 c 2
 222 484 l 2
 222 395 184 366 118 349 c 1
 183 335 222 304 222 216 c 2
 222 30 l 2
 222 -13 239 -30 298 -30 c 1
 298 -140 l 1
 118 -140 74 -83 74 25 c 2
 74 204 l 2
 74 262 61 285 9 285 c 1
 9 414 l 1
 61 414 74 438 74 496 c 2
 74 675 l 2
 74 784 118 840 298 840 c 1
EndSplineSet
EndChar

StartChar: uni007C
Encoding: 124 124 92
Width: 376
Flags: W
LayerCount: 2
Fore
SplineSet
262 810 m 1
 262 -105 l 1
 115 -105 l 1
 115 810 l 1
 262 810 l 1
EndSplineSet
EndChar

StartChar: uni007D
Encoding: 125 125 93
Width: 324
Flags: W
LayerCount: 2
Fore
SplineSet
26 840 m 1
 206 840 249 784 249 675 c 2
 249 496 l 2
 249 438 263 414 314 414 c 1
 314 285 l 1
 263 285 249 262 249 204 c 2
 249 25 l 2
 249 -83 206 -140 26 -140 c 1
 26 -30 l 1
 85 -30 101 -13 101 30 c 2
 101 216 l 2
 101 304 141 335 206 349 c 1
 140 366 102 395 102 484 c 2
 102 670 l 2
 102 713 86 730 26 730 c 1
 26 840 l 1
EndSplineSet
EndChar

StartChar: uni007E
Encoding: 126 126 94
Width: 514
Flags: W
LayerCount: 2
Fore
SplineSet
338 232 m 0
 249 232 218 293 169 293 c 0
 134 293 118 267 100 241 c 1
 16 283 l 1
 47 345 93 410 177 410 c 0
 265 410 296 350 346 350 c 0
 380 350 397 373 415 398 c 1
 498 357 l 1
 467 295 422 232 338 232 c 0
EndSplineSet
EndChar

StartChar: uni00A1
Encoding: 161 161 96
Width: 240
Flags: W
LayerCount: 2
Fore
SplineSet
120 509 m 0
 171 509 211 468 211 419 c 0
 211 370 171 329 120 329 c 0
 70 329 30 370 30 419 c 0
 30 468 70 509 120 509 c 0
184 235 m 1
 205 -210 l 1
 37 -210 l 1
 57 235 l 1
 184 235 l 1
EndSplineSet
EndChar

StartChar: uni00A2
Encoding: 162 162 97
Width: 478
Flags: W
LayerCount: 2
Fore
SplineSet
405 144 m 1
 474 46 l 1
 437 17 396 -4 346 -13 c 1
 346 -161 l 1
 232 -161 l 1
 232 -11 l 1
 107 14 32 116 32 261 c 0
 32 408 108 516 233 542 c 1
 233 691 l 1
 346 691 l 1
 346 544 l 1
 395 535 436 515 474 483 c 1
 406 389 l 1
 372 415 341 427 305 427 c 0
 237 427 198 381 198 262 c 0
 198 144 240 108 303 108 c 0
 341 108 367 120 405 144 c 1
EndSplineSet
EndChar

StartChar: uni00A3
Encoding: 163 163 98
Width: 539
Flags: W
LayerCount: 2
Fore
SplineSet
266 241 m 2
 266 185 255 149 202 120 c 1
 509 120 l 1
 491 0 l 1
 28 0 l 1
 28 114 l 1
 104 137 111 169 111 233 c 2
 111 311 l 1
 43 311 l 1
 43 393 l 1
 111 393 l 1
 111 482 l 2
 111 601 183 690 324 690 c 0
 415 690 479 657 528 590 c 1
 431 519 l 1
 404 558 377 572 340 572 c 0
 289 572 266 538 266 481 c 2
 266 393 l 1
 451 393 l 1
 451 311 l 1
 266 311 l 1
 266 241 l 2
EndSplineSet
EndChar

StartChar: uni00A4
Encoding: 164 164 99
Width: 560
Flags: W
LayerCount: 2
Fore
SplineSet
501 342 m 0
 501 297 489 257 468 223 c 1
 543 148 l 1
 474 78 l 1
 396 154 l 1
 363 136 324 125 280 125 c 0
 237 125 198 136 165 155 c 1
 86 78 l 1
 17 148 l 1
 94 224 l 1
 73 258 61 298 61 342 c 0
 61 385 73 425 94 459 c 1
 17 536 l 1
 87 606 l 1
 165 528 l 1
 198 547 237 558 280 558 c 0
 324 558 364 547 397 528 c 1
 474 606 l 1
 543 536 l 1
 468 460 l 1
 489 426 501 386 501 342 c 0
281 231 m 0
 346 231 378 272 378 342 c 0
 378 411 346 452 281 452 c 0
 218 452 184 411 184 342 c 0
 184 272 218 231 281 231 c 0
EndSplineSet
EndChar

StartChar: uni00A5
Encoding: 165 165 100
Width: 568
Flags: W
LayerCount: 2
Fore
SplineSet
576 676 m 1
 399 352 l 1
 497 352 l 1
 497 270 l 1
 364 270 l 1
 364 198 l 1
 497 198 l 1
 497 116 l 1
 364 116 l 1
 364 0 l 1
 206 0 l 1
 206 116 l 1
 74 116 l 1
 74 198 l 1
 206 198 l 1
 206 270 l 1
 74 270 l 1
 74 352 l 1
 170 352 l 1
 -7 676 l 1
 161 676 l 1
 288 395 l 1
 413 676 l 1
 576 676 l 1
EndSplineSet
EndChar

StartChar: uni00A6
Encoding: 166 166 101
Width: 376
Flags: W
LayerCount: 2
Fore
SplineSet
262 810 m 1
 262 443 l 1
 115 443 l 1
 115 810 l 1
 262 810 l 1
262 262 m 1
 262 -105 l 1
 115 -105 l 1
 115 262 l 1
 262 262 l 1
EndSplineSet
EndChar

StartChar: uni00A7
Encoding: 167 167 102
Width: 550
Flags: W
LayerCount: 2
Fore
SplineSet
419 182 m 1
 458 155 474 125 474 76 c 0
 474 -19 387 -83 252 -83 c 0
 174 -83 109 -62 61 -29 c 1
 112 64 l 1
 155 39 197 26 244 26 c 0
 294 26 323 42 323 70 c 0
 323 102 310 116 204 148 c 0
 110 177 53 214 53 298 c 0
 53 353 87 393 133 421 c 1
 94 449 78 483 78 529 c 0
 78 622 161 689 293 689 c 0
 366 689 434 667 486 633 c 1
 433 544 l 1
 390 568 346 580 301 580 c 0
 251 580 228 563 228 535 c 0
 228 502 243 490 344 458 c 0
 439 428 497 390 497 307 c 0
 497 251 463 210 419 182 c 1
268 249 m 0
 292 240 314 232 333 224 c 1
 350 244 359 267 359 285 c 0
 359 319 340 336 261 362 c 2
 212 379 l 1
 197 359 191 338 191 321 c 0
 191 287 207 271 268 249 c 0
EndSplineSet
EndChar

StartChar: uni00A8
Encoding: 168 168 103
Width: 453
Flags: W
LayerCount: 2
Fore
SplineSet
110 799 m 0
 155 799 190 764 190 720 c 0
 190 676 155 641 110 641 c 0
 65 641 29 676 29 720 c 0
 29 764 65 799 110 799 c 0
341 799 m 0
 387 799 422 764 422 720 c 0
 422 676 387 641 341 641 c 0
 297 641 261 676 261 720 c 0
 261 764 297 799 341 799 c 0
EndSplineSet
EndChar

StartChar: uni00A9
Encoding: 169 169 104
Width: 810
Flags: W
LayerCount: 2
Fore
SplineSet
406 766 m 0
 594 766 743 629 743 432 c 0
 743 236 594 99 406 99 c 0
 218 99 67 236 67 432 c 0
 67 629 218 766 406 766 c 0
406 687 m 0
 264 687 159 584 159 432 c 0
 159 281 264 179 406 179 c 0
 547 179 652 281 652 432 c 0
 652 584 547 687 406 687 c 0
408 630 m 0
 458 630 504 611 539 579 c 1
 491 519 l 1
 465 538 445 543 419 543 c 0
 378 543 345 514 345 433 c 0
 345 354 374 324 418 324 c 0
 449 324 473 334 498 353 c 1
 542 289 l 1
 508 257 463 236 409 236 c 0
 301 236 231 306 231 433 c 0
 231 556 306 630 408 630 c 0
EndSplineSet
EndChar

StartChar: uni00AA
Encoding: 170 170 105
Width: 500
Flags: W
LayerCount: 2
Fore
SplineSet
249 528 m 2
 286 528 l 1
 286 539 l 2
 286 581 269 593 219 593 c 0
 194 593 151 585 109 572 c 1
 77 662 l 1
 131 682 193 693 241 693 c 0
 371 693 425 644 425 547 c 2
 425 405 l 2
 425 377 433 365 452 359 c 1
 423 267 l 1
 374 271 339 285 315 322 c 1
 285 280 236 264 187 264 c 0
 101 264 47 317 47 391 c 0
 47 480 118 528 249 528 c 2
232 364 m 0
 255 364 273 375 286 390 c 1
 286 453 l 1
 263 453 l 2
 214 453 191 436 191 402 c 0
 191 379 204 364 232 364 c 0
51 122 m 1
 460 122 l 1
 460 0 l 1
 51 0 l 1
 51 122 l 1
EndSplineSet
EndChar

StartChar: uni00AB
Encoding: 171 171 106
Width: 628
Flags: W
LayerCount: 2
Fore
SplineSet
226 556 m 1
 323 491 l 1
 194 285 l 1
 323 78 l 1
 226 13 l 1
 36 234 l 1
 36 334 l 1
 226 556 l 1
494 556 m 1
 592 491 l 1
 463 285 l 1
 592 78 l 1
 494 13 l 1
 305 234 l 1
 305 334 l 1
 494 556 l 1
EndSplineSet
EndChar

StartChar: uni00AC
Encoding: 172 172 107
Width: 531
Flags: W
LayerCount: 2
Fore
SplineSet
483 390 m 1
 483 114 l 1
 352 114 l 1
 352 267 l 1
 48 267 l 1
 48 390 l 1
 483 390 l 1
EndSplineSet
EndChar

StartChar: uni00AD
Encoding: 173 173 108
Width: 407
Flags: W
LayerCount: 2
Fore
SplineSet
44 252 m 1
 44 374 l 1
 363 374 l 1
 363 252 l 1
 44 252 l 1
EndSplineSet
EndChar

StartChar: uni00AE
Encoding: 174 174 109
Width: 637
Flags: W
LayerCount: 2
Fore
SplineSet
319 759 m 0
 476 759 593 643 593 484 c 0
 593 326 476 212 319 212 c 0
 162 212 44 326 44 484 c 0
 44 643 162 759 319 759 c 0
319 279 m 0
 435 279 515 360 515 484 c 0
 515 609 435 692 319 692 c 0
 204 692 122 609 122 484 c 0
 122 360 204 279 319 279 c 0
432 546 m 0
 432 508 408 482 374 469 c 1
 448 352 l 1
 366 352 l 1
 308 454 l 1
 286 454 l 1
 286 352 l 1
 215 352 l 1
 215 634 l 1
 299 634 l 2
 387 634 432 606 432 546 c 0
286 580 m 1
 286 512 l 1
 316 512 l 2
 341 512 359 522 359 548 c 0
 359 570 343 580 314 580 c 2
 286 580 l 1
EndSplineSet
EndChar

StartChar: uni00AF
Encoding: 175 175 110
Width: 365
Flags: W
LayerCount: 2
Fore
SplineSet
335 655 m 1
 30 655 l 1
 30 765 l 1
 335 765 l 1
 335 655 l 1
EndSplineSet
EndChar

StartChar: uni00B0
Encoding: 176 176 111
Width: 521
Flags: W
LayerCount: 2
Fore
SplineSet
218 369 m 0
 130 369 39 434 39 541 c 0
 39 648 130 710 218 710 c 0
 306 710 396 648 396 541 c 0
 396 433 306 369 218 369 c 0
218 462 m 0
 260 462 287 493 287 541 c 0
 287 589 260 619 218 619 c 0
 176 619 148 589 148 541 c 0
 148 493 176 462 218 462 c 0
EndSplineSet
EndChar

StartChar: uni00B1
Encoding: 177 177 112
Width: 531
Flags: W
LayerCount: 2
Fore
SplineSet
331 622 m 1
 331 465 l 1
 483 465 l 1
 483 343 l 1
 331 343 l 1
 331 188 l 1
 200 188 l 1
 200 343 l 1
 49 343 l 1
 49 465 l 1
 200 465 l 1
 200 622 l 1
 331 622 l 1
55 0 m 1
 55 122 l 1
 477 122 l 1
 477 0 l 1
 55 0 l 1
EndSplineSet
EndChar

StartChar: uni00B2
Encoding: 178 178 113
Width: 400
Flags: W
LayerCount: 2
Fore
SplineSet
194 752 m 0
 300 752 353 692 353 626 c 0
 353 566 322 520 186 410 c 1
 363 410 l 1
 351 321 l 1
 53 321 l 1
 53 403 l 1
 198 535 232 572 232 616 c 0
 232 646 212 664 182 664 c 0
 151 664 129 651 104 622 c 1
 36 675 l 1
 71 720 125 752 194 752 c 0
EndSplineSet
EndChar

StartChar: uni00B3
Encoding: 179 179 114
Width: 400
Flags: W
LayerCount: 2
Fore
SplineSet
199 752 m 0
 299 752 352 704 352 642 c 0
 352 595 322 559 259 543 c 1
 321 539 367 507 367 441 c 0
 367 370 307 309 192 309 c 0
 119 309 68 335 33 376 c 1
 98 438 l 1
 124 410 150 399 183 399 c 0
 219 399 245 415 245 449 c 0
 245 486 223 501 178 501 c 2
 141 501 l 1
 154 581 l 1
 180 581 l 2
 217 581 237 596 237 624 c 0
 237 651 216 665 184 665 c 0
 153 665 125 653 100 630 c 1
 41 692 l 1
 83 731 136 752 199 752 c 0
EndSplineSet
EndChar

StartChar: uni00B4
Encoding: 180 180 115
Width: 340
Flags: W
LayerCount: 2
Fore
SplineSet
248 835 m 1
 310 717 l 1
 74 622 l 1
 30 703 l 1
 248 835 l 1
EndSplineSet
EndChar

StartChar: uni00B5
Encoding: 181 181 116
Width: 581
Flags: W
LayerCount: 2
Fore
SplineSet
536 0 m 1
 391 -17 l 1
 378 11 374 33 368 69 c 1
 341 22 304 -8 260 -8 c 0
 223 -8 195 1 171 34 c 1
 194 -8 210 -43 210 -113 c 2
 210 -205 l 1
 61 -220 l 1
 61 531 l 1
 219 531 l 1
 219 167 l 2
 219 121 240 106 269 106 c 0
 298 106 329 124 354 170 c 1
 354 531 l 1
 512 531 l 1
 512 182 l 2
 512 102 523 42 536 0 c 1
EndSplineSet
EndChar

StartChar: uni00B6
Encoding: 182 182 117
Width: 788
Flags: W
LayerCount: 2
Fore
SplineSet
328 693 m 2
 672 693 l 1
 672 -204 l 1
 534 -222 l 1
 534 583 l 1
 442 583 l 1
 442 -204 l 1
 304 -222 l 1
 304 263 l 1
 144 267 65 355 65 478 c 0
 65 612 162 693 328 693 c 2
EndSplineSet
EndChar

StartChar: uni00B7
Encoding: 183 183 118
Width: 240
Flags: W
LayerCount: 2
Fore
SplineSet
120 398 m 0
 170 398 210 357 210 308 c 0
 210 258 170 217 120 217 c 0
 69 217 29 258 29 308 c 0
 29 357 69 398 120 398 c 0
EndSplineSet
EndChar

StartChar: uni00B8
Encoding: 184 184 119
Width: 321
Flags: W
LayerCount: 2
Fore
SplineSet
187 16 m 1
 187 -48 l 1
 259 -56 291 -93 291 -147 c 0
 291 -215 233 -262 142 -262 c 0
 95 -262 55 -249 30 -232 c 1
 66 -159 l 1
 86 -169 105 -176 130 -176 c 0
 158 -176 177 -168 177 -146 c 0
 177 -122 149 -112 85 -112 c 1
 100 16 l 1
 187 16 l 1
EndSplineSet
EndChar

StartChar: uni00B9
Encoding: 185 185 120
Width: 400
Flags: W
LayerCount: 2
Fore
SplineSet
300 742 m 1
 300 321 l 1
 183 321 l 1
 183 632 l 1
 92 575 l 1
 39 653 l 1
 193 742 l 1
 300 742 l 1
EndSplineSet
EndChar

StartChar: uni00BA
Encoding: 186 186 121
Width: 500
Flags: W
LayerCount: 2
Fore
SplineSet
250 693 m 0
 382 693 464 616 464 478 c 0
 464 349 384 264 251 264 c 0
 119 264 37 341 37 479 c 0
 37 609 118 693 250 693 c 0
250 591 m 0
 205 591 183 557 183 479 c 0
 183 398 205 366 251 366 c 0
 296 366 318 400 318 478 c 0
 318 560 296 591 250 591 c 0
39 0 m 1
 39 122 l 1
 461 122 l 1
 461 0 l 1
 39 0 l 1
EndSplineSet
EndChar

StartChar: uni00BB
Encoding: 187 187 122
Width: 625
Flags: W
LayerCount: 2
Fore
SplineSet
134 556 m 1
 323 334 l 1
 323 234 l 1
 134 13 l 1
 36 78 l 1
 165 285 l 1
 36 491 l 1
 134 556 l 1
400 556 m 1
 589 334 l 1
 589 234 l 1
 400 13 l 1
 302 78 l 1
 431 285 l 1
 302 491 l 1
 400 556 l 1
EndSplineSet
EndChar

StartChar: uni00BC
Encoding: 188 188 123
Width: 969
Flags: W
LayerCount: 2
Fore
SplineSet
644 759 m 1
 736 714 l 1
 325 -85 l 1
 233 -40 l 1
 644 759 l 1
300 272 m 1
 183 272 l 1
 183 583 l 1
 92 526 l 1
 39 604 l 1
 193 693 l 1
 300 693 l 1
 300 272 l 1
943 170 m 1
 943 84 l 1
 897 84 l 1
 897 0 l 1
 785 0 l 1
 785 84 l 1
 594 84 l 1
 594 162 l 1
 715 431 l 1
 814 395 l 1
 714 170 l 1
 787 170 l 1
 807 265 l 1
 897 265 l 1
 897 170 l 1
 943 170 l 1
EndSplineSet
EndChar

StartChar: uni00BD
Encoding: 189 189 124
Width: 969
Flags: W
LayerCount: 2
Fore
SplineSet
644 759 m 1
 736 714 l 1
 325 -85 l 1
 233 -40 l 1
 644 759 l 1
300 693 m 1
 300 272 l 1
 183 272 l 1
 183 583 l 1
 92 526 l 1
 39 604 l 1
 193 693 l 1
 300 693 l 1
763 431 m 0
 869 431 922 371 922 305 c 0
 922 245 891 199 755 89 c 1
 932 89 l 1
 920 0 l 1
 622 0 l 1
 622 82 l 1
 767 214 801 251 801 295 c 0
 801 325 781 343 751 343 c 0
 720 343 698 330 673 301 c 1
 605 354 l 1
 640 399 694 431 763 431 c 0
EndSplineSet
EndChar

StartChar: uni00BE
Encoding: 190 190 125
Width: 969
Flags: W
LayerCount: 2
Fore
SplineSet
644 759 m 1
 736 714 l 1
 325 -85 l 1
 233 -40 l 1
 644 759 l 1
367 392 m 0
 367 321 307 260 192 260 c 0
 119 260 68 286 33 327 c 1
 98 389 l 1
 124 361 150 350 183 350 c 0
 219 350 245 366 245 400 c 0
 245 437 223 452 178 452 c 2
 141 452 l 1
 154 532 l 1
 180 532 l 2
 217 532 237 547 237 575 c 0
 237 602 216 616 184 616 c 0
 153 616 125 604 100 581 c 1
 41 643 l 1
 83 682 136 703 199 703 c 0
 299 703 352 655 352 593 c 0
 352 546 322 510 259 494 c 1
 321 490 367 458 367 392 c 0
943 170 m 1
 943 84 l 1
 897 84 l 1
 897 0 l 1
 785 0 l 1
 785 84 l 1
 594 84 l 1
 594 162 l 1
 715 431 l 1
 814 395 l 1
 714 170 l 1
 787 170 l 1
 807 265 l 1
 897 265 l 1
 897 170 l 1
 943 170 l 1
EndSplineSet
EndChar

StartChar: uni00BF
Encoding: 191 191 126
Width: 481
Flags: W
LayerCount: 2
Fore
SplineSet
265 329 m 0
 214 329 174 370 174 419 c 0
 174 468 214 509 265 509 c 0
 315 509 355 468 355 419 c 0
 355 370 315 329 265 329 c 0
233 -222 m 0
 88 -222 14 -144 14 -55 c 0
 14 107 194 96 194 206 c 2
 194 236 l 1
 338 236 l 1
 338 200 l 2
 338 29 180 41 180 -41 c 0
 180 -77 205 -98 249 -98 c 0
 290 -98 331 -78 367 -37 c 1
 467 -115 l 1
 411 -182 336 -222 233 -222 c 0
EndSplineSet
EndChar

StartChar: uni00C0
Encoding: 192 192 127
Width: 590
Flags: W
LayerCount: 2
Fore
SplineSet
432 831 m 1
 392 751 l 1
 152 838 l 1
 211 956 l 1
 432 831 l 1
430 0 m 1
 394 149 l 1
 192 149 l 1
 157 0 l 1
 -13 0 l 1
 196 693 l 1
 395 693 l 1
 604 0 l 1
 430 0 l 1
220 268 m 1
 366 268 l 1
 293 574 l 1
 220 268 l 1
EndSplineSet
EndChar

StartChar: uni00C1
Encoding: 193 193 128
Width: 590
Flags: W
LayerCount: 2
Fore
SplineSet
436 838 m 1
 196 751 l 1
 156 831 l 1
 377 956 l 1
 436 838 l 1
430 0 m 1
 394 149 l 1
 192 149 l 1
 157 0 l 1
 -13 0 l 1
 196 693 l 1
 395 693 l 1
 604 0 l 1
 430 0 l 1
220 268 m 1
 366 268 l 1
 293 574 l 1
 220 268 l 1
EndSplineSet
EndChar

StartChar: uni00C2
Encoding: 194 194 129
Width: 590
Flags: W
LayerCount: 2
Fore
SplineSet
296 839 m 1
 163 755 l 1
 106 820 l 1
 248 949 l 1
 344 949 l 1
 485 820 l 1
 429 755 l 1
 296 839 l 1
430 0 m 1
 394 149 l 1
 192 149 l 1
 157 0 l 1
 -13 0 l 1
 196 693 l 1
 395 693 l 1
 604 0 l 1
 430 0 l 1
220 268 m 1
 366 268 l 1
 293 574 l 1
 220 268 l 1
EndSplineSet
EndChar

StartChar: uni00C3
Encoding: 195 195 130
Width: 590
Flags: W
LayerCount: 2
Fore
SplineSet
240 806 m 0
 216 806 203 790 187 762 c 1
 108 800 l 1
 133 864 177 918 237 918 c 0
 298 918 320 873 353 873 c 0
 375 873 389 888 405 917 c 1
 484 878 l 1
 458 811 413 761 354 761 c 0
 296 761 273 806 240 806 c 0
430 0 m 1
 394 149 l 1
 192 149 l 1
 157 0 l 1
 -13 0 l 1
 196 693 l 1
 395 693 l 1
 604 0 l 1
 430 0 l 1
220 268 m 1
 366 268 l 1
 293 574 l 1
 220 268 l 1
EndSplineSet
EndChar

StartChar: uni00C4
Encoding: 196 196 131
Width: 590
Flags: W
LayerCount: 2
Fore
SplineSet
178 767 m 0
 133 767 97 802 97 846 c 0
 97 890 133 925 178 925 c 0
 224 925 259 890 259 846 c 0
 259 802 224 767 178 767 c 0
409 767 m 0
 365 767 329 802 329 846 c 0
 329 890 365 925 409 925 c 0
 456 925 490 890 490 846 c 0
 490 802 456 767 409 767 c 0
430 0 m 1
 394 149 l 1
 192 149 l 1
 157 0 l 1
 -13 0 l 1
 196 693 l 1
 395 693 l 1
 604 0 l 1
 430 0 l 1
220 268 m 1
 366 268 l 1
 293 574 l 1
 220 268 l 1
EndSplineSet
EndChar

StartChar: uni00C5
Encoding: 197 197 132
Width: 590
Flags: W
LayerCount: 2
Fore
SplineSet
296 731 m 0
 210 731 157 791 157 862 c 0
 157 933 210 993 296 993 c 0
 382 993 435 933 435 862 c 0
 435 791 382 731 296 731 c 0
296 912 m 0
 269 912 251 895 251 862 c 0
 251 829 269 812 296 812 c 0
 322 812 341 829 341 862 c 0
 341 895 323 912 296 912 c 0
430 0 m 1
 394 149 l 1
 192 149 l 1
 157 0 l 1
 -13 0 l 1
 196 693 l 1
 395 693 l 1
 604 0 l 1
 430 0 l 1
220 268 m 1
 366 268 l 1
 293 574 l 1
 220 268 l 1
EndSplineSet
EndChar

StartChar: uni00C6
Encoding: 198 198 133
Width: 845
Flags: W
LayerCount: 2
Fore
SplineSet
582 118 m 1
 812 118 l 1
 812 0 l 1
 444 0 l 1
 418 149 l 1
 203 149 l 1
 153 0 l 1
 -23 0 l 1
 249 693 l 1
 775 693 l 1
 758 576 l 1
 488 576 l 1
 522 408 l 1
 766 408 l 1
 766 293 l 1
 546 293 l 1
 582 118 l 1
243 268 m 1
 398 268 l 1
 345 573 l 1
 243 268 l 1
EndSplineSet
EndChar

StartChar: uni00C7
Encoding: 199 199 134
Width: 575
Flags: W
LayerCount: 2
Fore
SplineSet
383 -48 m 1
 455 -56 487 -93 487 -147 c 0
 487 -215 429 -262 338 -262 c 0
 291 -262 251 -249 226 -232 c 1
 262 -159 l 1
 282 -169 301 -176 326 -176 c 0
 354 -176 373 -168 373 -146 c 0
 373 -122 345 -112 281 -112 c 1
 293 -13 l 1
 135 11 33 136 33 348 c 0
 33 580 168 710 348 710 c 0
 438 710 501 683 559 634 c 1
 481 541 l 1
 442 571 403 589 356 589 c 0
 267 589 205 518 205 348 c 0
 205 181 266 110 358 110 c 0
 413 110 453 135 494 166 c 1
 567 72 l 1
 526 31 463 -7 383 -15 c 1
 383 -48 l 1
EndSplineSet
EndChar

StartChar: uni00C8
Encoding: 200 200 135
Width: 526
Flags: W
LayerCount: 2
Fore
SplineSet
194 956 m 1
 415 831 l 1
 375 751 l 1
 135 838 l 1
 194 956 l 1
490 693 m 1
 473 576 l 1
 229 576 l 1
 229 410 l 1
 442 410 l 1
 442 295 l 1
 229 295 l 1
 229 118 l 1
 490 118 l 1
 490 0 l 1
 65 0 l 1
 65 693 l 1
 490 693 l 1
EndSplineSet
EndChar

StartChar: uni00C9
Encoding: 201 201 136
Width: 526
Flags: W
LayerCount: 2
Fore
SplineSet
360 956 m 1
 419 838 l 1
 179 751 l 1
 139 831 l 1
 360 956 l 1
490 693 m 1
 473 576 l 1
 229 576 l 1
 229 410 l 1
 442 410 l 1
 442 295 l 1
 229 295 l 1
 229 118 l 1
 490 118 l 1
 490 0 l 1
 65 0 l 1
 65 693 l 1
 490 693 l 1
EndSplineSet
EndChar

StartChar: uni00CA
Encoding: 202 202 137
Width: 526
Flags: W
LayerCount: 2
Fore
SplineSet
146 755 m 1
 89 820 l 1
 231 949 l 1
 327 949 l 1
 468 820 l 1
 412 755 l 1
 279 839 l 1
 146 755 l 1
490 693 m 1
 473 576 l 1
 229 576 l 1
 229 410 l 1
 442 410 l 1
 442 295 l 1
 229 295 l 1
 229 118 l 1
 490 118 l 1
 490 0 l 1
 65 0 l 1
 65 693 l 1
 490 693 l 1
EndSplineSet
EndChar

StartChar: uni00CB
Encoding: 203 203 138
Width: 526
Flags: W
LayerCount: 2
Fore
SplineSet
161 925 m 0
 207 925 242 890 242 846 c 0
 242 802 207 767 161 767 c 0
 116 767 80 802 80 846 c 0
 80 890 116 925 161 925 c 0
392 925 m 0
 439 925 473 890 473 846 c 0
 473 802 439 767 392 767 c 0
 348 767 312 802 312 846 c 0
 312 890 348 925 392 925 c 0
490 693 m 1
 473 576 l 1
 229 576 l 1
 229 410 l 1
 442 410 l 1
 442 295 l 1
 229 295 l 1
 229 118 l 1
 490 118 l 1
 490 0 l 1
 65 0 l 1
 65 693 l 1
 490 693 l 1
EndSplineSet
EndChar

StartChar: uni00CC
Encoding: 204 204 139
Width: 293
Flags: W
LayerCount: 2
Fore
SplineSet
62 956 m 1
 283 831 l 1
 243 751 l 1
 3 838 l 1
 62 956 l 1
229 693 m 1
 229 0 l 1
 65 0 l 1
 65 693 l 1
 229 693 l 1
EndSplineSet
EndChar

StartChar: uni00CD
Encoding: 205 205 140
Width: 293
Flags: W
LayerCount: 2
Fore
SplineSet
227 956 m 1
 286 838 l 1
 46 751 l 1
 6 831 l 1
 227 956 l 1
229 693 m 1
 229 0 l 1
 65 0 l 1
 65 693 l 1
 229 693 l 1
EndSplineSet
EndChar

StartChar: uni00CE
Encoding: 206 206 141
Width: 293
Flags: W
LayerCount: 2
Fore
SplineSet
13 755 m 1
 -44 820 l 1
 98 949 l 1
 194 949 l 1
 335 820 l 1
 279 755 l 1
 146 839 l 1
 13 755 l 1
229 693 m 1
 229 0 l 1
 65 0 l 1
 65 693 l 1
 229 693 l 1
EndSplineSet
EndChar

StartChar: uni00CF
Encoding: 207 207 142
Width: 293
Flags: W
LayerCount: 2
Fore
SplineSet
29 925 m 0
 75 925 110 890 110 846 c 0
 110 802 75 767 29 767 c 0
 -16 767 -52 802 -52 846 c 0
 -52 890 -16 925 29 925 c 0
260 925 m 0
 307 925 341 890 341 846 c 0
 341 802 307 767 260 767 c 0
 216 767 180 802 180 846 c 0
 180 890 216 925 260 925 c 0
229 693 m 1
 229 0 l 1
 65 0 l 1
 65 693 l 1
 229 693 l 1
EndSplineSet
EndChar

StartChar: uni00D0
Encoding: 208 208 143
Width: 665
Flags: W
LayerCount: 2
Fore
SplineSet
272 693 m 2
 457 693 632 636 632 350 c 0
 632 71 464 0 287 0 c 2
 78 0 l 1
 78 304 l 1
 14 304 l 1
 14 402 l 1
 78 402 l 1
 78 693 l 1
 272 693 l 2
297 119 m 2
 396 119 462 166 462 350 c 0
 462 536 391 574 295 574 c 2
 242 574 l 1
 242 402 l 1
 377 402 l 1
 377 304 l 1
 242 304 l 1
 242 119 l 1
 297 119 l 2
EndSplineSet
EndChar

StartChar: uni00D1
Encoding: 209 209 144
Width: 663
Flags: W
LayerCount: 2
Fore
SplineSet
394 761 m 0
 336 761 313 806 280 806 c 0
 256 806 243 790 227 762 c 1
 148 800 l 1
 173 864 217 918 277 918 c 0
 338 918 360 873 393 873 c 0
 415 873 429 888 445 917 c 1
 524 878 l 1
 498 811 453 761 394 761 c 0
599 693 m 1
 599 0 l 1
 390 0 l 1
 190 537 l 1
 198 474 211 382 211 254 c 2
 211 0 l 1
 65 0 l 1
 65 693 l 1
 269 693 l 1
 474 155 l 1
 465 211 452 302 452 413 c 2
 452 693 l 1
 599 693 l 1
EndSplineSet
EndChar

StartChar: uni00D2
Encoding: 210 210 145
Width: 691
Flags: W
LayerCount: 2
Fore
SplineSet
261 956 m 1
 482 831 l 1
 442 751 l 1
 202 838 l 1
 261 956 l 1
345 710 m 0
 541 710 658 578 658 347 c 0
 658 120 541 -17 345 -17 c 0
 150 -17 33 116 33 347 c 0
 33 573 150 710 345 710 c 0
345 590 m 0
 253 590 205 522 205 347 c 0
 205 171 255 103 345 103 c 0
 439 103 486 171 486 347 c 0
 486 522 438 590 345 590 c 0
EndSplineSet
EndChar

StartChar: uni00D3
Encoding: 211 211 146
Width: 691
Flags: W
LayerCount: 2
Fore
SplineSet
426 956 m 1
 485 838 l 1
 245 751 l 1
 205 831 l 1
 426 956 l 1
345 710 m 0
 541 710 658 578 658 347 c 0
 658 120 541 -17 345 -17 c 0
 150 -17 33 116 33 347 c 0
 33 573 150 710 345 710 c 0
345 590 m 0
 253 590 205 522 205 347 c 0
 205 171 255 103 345 103 c 0
 439 103 486 171 486 347 c 0
 486 522 438 590 345 590 c 0
EndSplineSet
EndChar

StartChar: uni00D4
Encoding: 212 212 147
Width: 691
Flags: W
LayerCount: 2
Fore
SplineSet
212 755 m 1
 155 820 l 1
 297 949 l 1
 393 949 l 1
 534 820 l 1
 478 755 l 1
 345 839 l 1
 212 755 l 1
345 710 m 0
 541 710 658 578 658 347 c 0
 658 120 541 -17 345 -17 c 0
 150 -17 33 116 33 347 c 0
 33 573 150 710 345 710 c 0
345 590 m 0
 253 590 205 522 205 347 c 0
 205 171 255 103 345 103 c 0
 439 103 486 171 486 347 c 0
 486 522 438 590 345 590 c 0
EndSplineSet
EndChar

StartChar: uni00D5
Encoding: 213 213 148
Width: 691
Flags: W
LayerCount: 2
Fore
SplineSet
403 761 m 0
 345 761 322 806 289 806 c 0
 265 806 252 790 236 762 c 1
 157 800 l 1
 182 864 226 918 286 918 c 0
 347 918 369 873 402 873 c 0
 424 873 438 888 454 917 c 1
 533 878 l 1
 507 811 462 761 403 761 c 0
345 710 m 0
 541 710 658 578 658 347 c 0
 658 120 541 -17 345 -17 c 0
 150 -17 33 116 33 347 c 0
 33 573 150 710 345 710 c 0
345 590 m 0
 253 590 205 522 205 347 c 0
 205 171 255 103 345 103 c 0
 439 103 486 171 486 347 c 0
 486 522 438 590 345 590 c 0
EndSplineSet
EndChar

StartChar: uni00D6
Encoding: 214 214 149
Width: 691
Flags: W
LayerCount: 2
Fore
SplineSet
228 925 m 0
 274 925 309 890 309 846 c 0
 309 802 274 767 228 767 c 0
 183 767 147 802 147 846 c 0
 147 890 183 925 228 925 c 0
459 925 m 0
 506 925 540 890 540 846 c 0
 540 802 506 767 459 767 c 0
 415 767 379 802 379 846 c 0
 379 890 415 925 459 925 c 0
345 710 m 0
 541 710 658 578 658 347 c 0
 658 120 541 -17 345 -17 c 0
 150 -17 33 116 33 347 c 0
 33 573 150 710 345 710 c 0
345 590 m 0
 253 590 205 522 205 347 c 0
 205 171 255 103 345 103 c 0
 439 103 486 171 486 347 c 0
 486 522 438 590 345 590 c 0
EndSplineSet
EndChar

StartChar: uni00D7
Encoding: 215 215 150
Width: 519
Flags: W
LayerCount: 2
Fore
SplineSet
376 510 m 1
 463 423 l 1
 347 309 l 1
 463 190 l 1
 376 103 l 1
 261 224 l 1
 143 103 l 1
 56 190 l 1
 171 304 l 1
 56 423 l 1
 143 510 l 1
 257 389 l 1
 376 510 l 1
EndSplineSet
EndChar

StartChar: uni00D8
Encoding: 216 216 151
Width: 691
Flags: W
LayerCount: 2
Fore
SplineSet
514 667 m 1
 606 611 658 501 658 347 c 0
 658 120 541 -17 345 -17 c 0
 328 -17 312 -16 296 -14 c 1
 260 -134 l 1
 136 -102 l 1
 176 27 l 1
 84 84 33 194 33 347 c 0
 33 573 150 710 345 710 c 0
 362 710 379 709 395 707 c 1
 432 828 l 1
 555 795 l 1
 514 667 l 1
345 590 m 0
 253 590 205 522 205 347 c 0
 205 246 218 184 243 148 c 1
 375 588 l 1
 366 589 356 590 345 590 c 0
345 103 m 0
 439 103 486 171 486 347 c 0
 486 449 473 511 448 546 c 1
 315 105 l 1
 325 104 335 103 345 103 c 0
EndSplineSet
EndChar

StartChar: uni00D9
Encoding: 217 217 152
Width: 651
Flags: W
LayerCount: 2
Fore
SplineSet
241 956 m 1
 462 831 l 1
 422 751 l 1
 182 838 l 1
 241 956 l 1
596 693 m 1
 596 230 l 2
 596 90 506 -17 325 -17 c 0
 144 -17 55 84 55 230 c 2
 55 693 l 1
 219 693 l 1
 219 237 l 2
 219 148 251 105 325 105 c 0
 400 105 432 148 432 237 c 2
 432 693 l 1
 596 693 l 1
EndSplineSet
EndChar

StartChar: uni00DA
Encoding: 218 218 153
Width: 651
Flags: W
LayerCount: 2
Fore
SplineSet
406 956 m 1
 465 838 l 1
 225 751 l 1
 185 831 l 1
 406 956 l 1
596 693 m 1
 596 230 l 2
 596 90 506 -17 325 -17 c 0
 144 -17 55 84 55 230 c 2
 55 693 l 1
 219 693 l 1
 219 237 l 2
 219 148 251 105 325 105 c 0
 400 105 432 148 432 237 c 2
 432 693 l 1
 596 693 l 1
EndSplineSet
EndChar

StartChar: uni00DB
Encoding: 219 219 154
Width: 651
Flags: W
LayerCount: 2
Fore
SplineSet
192 755 m 1
 135 820 l 1
 277 949 l 1
 373 949 l 1
 514 820 l 1
 458 755 l 1
 325 839 l 1
 192 755 l 1
596 693 m 1
 596 230 l 2
 596 90 506 -17 325 -17 c 0
 144 -17 55 84 55 230 c 2
 55 693 l 1
 219 693 l 1
 219 237 l 2
 219 148 251 105 325 105 c 0
 400 105 432 148 432 237 c 2
 432 693 l 1
 596 693 l 1
EndSplineSet
EndChar

StartChar: uni00DC
Encoding: 220 220 155
Width: 651
Flags: W
LayerCount: 2
Fore
SplineSet
208 925 m 0
 254 925 289 890 289 846 c 0
 289 802 254 767 208 767 c 0
 163 767 127 802 127 846 c 0
 127 890 163 925 208 925 c 0
439 925 m 0
 486 925 520 890 520 846 c 0
 520 802 486 767 439 767 c 0
 395 767 359 802 359 846 c 0
 359 890 395 925 439 925 c 0
596 693 m 1
 596 230 l 2
 596 90 506 -17 325 -17 c 0
 144 -17 55 84 55 230 c 2
 55 693 l 1
 219 693 l 1
 219 237 l 2
 219 148 251 105 325 105 c 0
 400 105 432 148 432 237 c 2
 432 693 l 1
 596 693 l 1
EndSplineSet
EndChar

StartChar: uni00DD
Encoding: 221 221 156
Width: 594
Flags: W
LayerCount: 2
Fore
SplineSet
378 956 m 1
 437 838 l 1
 197 751 l 1
 157 831 l 1
 378 956 l 1
601 693 m 1
 379 260 l 1
 379 0 l 1
 215 0 l 1
 215 259 l 1
 -7 693 l 1
 172 693 l 1
 300 388 l 1
 428 693 l 1
 601 693 l 1
EndSplineSet
EndChar

StartChar: uni00DE
Encoding: 222 222 157
Width: 603
Flags: W
LayerCount: 2
Fore
SplineSet
289 585 m 2
 468 585 578 510 578 356 c 0
 578 190 464 114 304 114 c 2
 229 114 l 1
 229 0 l 1
 65 0 l 1
 65 693 l 1
 229 693 l 1
 229 585 l 1
 289 585 l 2
290 233 m 2
 364 233 409 264 409 356 c 0
 409 433 368 468 287 468 c 2
 229 468 l 1
 229 233 l 1
 290 233 l 2
EndSplineSet
EndChar

StartChar: uni00DF
Encoding: 223 223 158
Width: 605
Flags: W
LayerCount: 2
Fore
SplineSet
297 759 m 0
 431 759 504 689 504 609 c 0
 504 509 403 490 403 431 c 0
 403 356 587 342 587 166 c 0
 587 51 498 -17 385 -17 c 0
 338 -17 297 -6 266 10 c 1
 313 117 l 1
 328 109 343 105 365 105 c 0
 401 105 424 126 424 169 c 0
 424 278 266 275 266 405 c 0
 266 510 354 506 354 590 c 0
 354 626 330 647 293 647 c 0
 243 647 219 610 219 538 c 2
 219 0 l 1
 61 0 l 1
 61 533 l 2
 61 673 144 759 297 759 c 0
EndSplineSet
EndChar

StartChar: uni00E0
Encoding: 224 224 159
Width: 548
Flags: W
LayerCount: 2
Fore
SplineSet
421 703 m 1
 377 622 l 1
 141 717 l 1
 203 835 l 1
 421 703 l 1
484 154 m 2
 484 113 495 98 520 89 c 1
 487 -14 l 1
 424 -9 383 10 359 63 c 1
 321 4 262 -17 199 -17 c 0
 93 -17 26 52 26 149 c 0
 26 265 114 328 275 328 c 2
 329 328 l 1
 329 351 l 2
 329 414 304 433 239 433 c 0
 205 433 153 423 100 405 c 1
 64 509 l 1
 131 534 204 548 264 548 c 0
 418 548 484 483 484 360 c 2
 484 154 l 2
245 96 m 0
 282 96 310 115 329 147 c 1
 329 241 l 1
 290 241 l 2
 218 241 183 216 183 163 c 0
 183 121 206 96 245 96 c 0
EndSplineSet
EndChar

StartChar: uni00E1
Encoding: 225 225 160
Width: 548
Flags: W
LayerCount: 2
Fore
SplineSet
405 717 m 1
 169 622 l 1
 125 703 l 1
 343 835 l 1
 405 717 l 1
484 154 m 2
 484 113 495 98 520 89 c 1
 487 -14 l 1
 424 -9 383 10 359 63 c 1
 321 4 262 -17 199 -17 c 0
 93 -17 26 52 26 149 c 0
 26 265 114 328 275 328 c 2
 329 328 l 1
 329 351 l 2
 329 414 304 433 239 433 c 0
 205 433 153 423 100 405 c 1
 64 509 l 1
 131 534 204 548 264 548 c 0
 418 548 484 483 484 360 c 2
 484 154 l 2
245 96 m 0
 282 96 310 115 329 147 c 1
 329 241 l 1
 290 241 l 2
 218 241 183 216 183 163 c 0
 183 121 206 96 245 96 c 0
EndSplineSet
EndChar

StartChar: uni00E2
Encoding: 226 226 161
Width: 548
Flags: W
LayerCount: 2
Fore
SplineSet
271 712 m 1
 137 620 l 1
 81 685 l 1
 222 822 l 1
 319 822 l 1
 460 685 l 1
 404 620 l 1
 271 712 l 1
484 154 m 2
 484 113 495 98 520 89 c 1
 487 -14 l 1
 424 -9 383 10 359 63 c 1
 321 4 262 -17 199 -17 c 0
 93 -17 26 52 26 149 c 0
 26 265 114 328 275 328 c 2
 329 328 l 1
 329 351 l 2
 329 414 304 433 239 433 c 0
 205 433 153 423 100 405 c 1
 64 509 l 1
 131 534 204 548 264 548 c 0
 418 548 484 483 484 360 c 2
 484 154 l 2
245 96 m 0
 282 96 310 115 329 147 c 1
 329 241 l 1
 290 241 l 2
 218 241 183 216 183 163 c 0
 183 121 206 96 245 96 c 0
EndSplineSet
EndChar

StartChar: uni00E3
Encoding: 227 227 162
Width: 548
Flags: W
LayerCount: 2
Fore
SplineSet
215 680 m 0
 191 680 178 664 162 636 c 1
 83 674 l 1
 108 738 152 792 212 792 c 0
 273 792 295 747 328 747 c 0
 350 747 364 762 380 791 c 1
 459 752 l 1
 433 685 388 635 329 635 c 0
 271 635 248 680 215 680 c 0
484 154 m 2
 484 113 495 98 520 89 c 1
 487 -14 l 1
 424 -9 383 10 359 63 c 1
 321 4 262 -17 199 -17 c 0
 93 -17 26 52 26 149 c 0
 26 265 114 328 275 328 c 2
 329 328 l 1
 329 351 l 2
 329 414 304 433 239 433 c 0
 205 433 153 423 100 405 c 1
 64 509 l 1
 131 534 204 548 264 548 c 0
 418 548 484 483 484 360 c 2
 484 154 l 2
245 96 m 0
 282 96 310 115 329 147 c 1
 329 241 l 1
 290 241 l 2
 218 241 183 216 183 163 c 0
 183 121 206 96 245 96 c 0
EndSplineSet
EndChar

StartChar: uni00E4
Encoding: 228 228 163
Width: 548
Flags: W
LayerCount: 2
Fore
SplineSet
155 641 m 0
 110 641 74 676 74 720 c 0
 74 764 110 799 155 799 c 0
 201 799 236 764 236 720 c 0
 236 676 201 641 155 641 c 0
386 641 m 0
 342 641 306 676 306 720 c 0
 306 764 342 799 386 799 c 0
 433 799 467 764 467 720 c 0
 467 676 433 641 386 641 c 0
484 154 m 2
 484 113 495 98 520 89 c 1
 487 -14 l 1
 424 -9 383 10 359 63 c 1
 321 4 262 -17 199 -17 c 0
 93 -17 26 52 26 149 c 0
 26 265 114 328 275 328 c 2
 329 328 l 1
 329 351 l 2
 329 414 304 433 239 433 c 0
 205 433 153 423 100 405 c 1
 64 509 l 1
 131 534 204 548 264 548 c 0
 418 548 484 483 484 360 c 2
 484 154 l 2
245 96 m 0
 282 96 310 115 329 147 c 1
 329 241 l 1
 290 241 l 2
 218 241 183 216 183 163 c 0
 183 121 206 96 245 96 c 0
EndSplineSet
EndChar

StartChar: uni00E5
Encoding: 229 229 164
Width: 548
Flags: W
LayerCount: 2
Fore
SplineSet
271 605 m 0
 185 605 132 665 132 736 c 0
 132 807 185 867 271 867 c 0
 357 867 410 807 410 736 c 0
 410 665 357 605 271 605 c 0
271 786 m 0
 244 786 226 769 226 736 c 0
 226 703 244 686 271 686 c 0
 297 686 316 703 316 736 c 0
 316 769 298 786 271 786 c 0
484 154 m 2
 484 113 495 98 520 89 c 1
 487 -14 l 1
 424 -9 383 10 359 63 c 1
 321 4 262 -17 199 -17 c 0
 93 -17 26 52 26 149 c 0
 26 265 114 328 275 328 c 2
 329 328 l 1
 329 351 l 2
 329 414 304 433 239 433 c 0
 205 433 153 423 100 405 c 1
 64 509 l 1
 131 534 204 548 264 548 c 0
 418 548 484 483 484 360 c 2
 484 154 l 2
245 96 m 0
 282 96 310 115 329 147 c 1
 329 241 l 1
 290 241 l 2
 218 241 183 216 183 163 c 0
 183 121 206 96 245 96 c 0
EndSplineSet
EndChar

StartChar: uni00E6
Encoding: 230 230 165
Width: 857
Flags: W
LayerCount: 2
Fore
SplineSet
828 276 m 0
 828 259 827 235 825 219 c 1
 496 219 l 1
 506 124 551 98 617 98 c 0
 660 98 698 113 744 145 c 1
 809 57 l 1
 756 15 688 -17 602 -17 c 0
 506 -17 435 18 391 74 c 1
 343 6 277 -17 203 -17 c 0
 93 -17 26 52 26 149 c 0
 26 265 116 328 281 328 c 2
 335 328 l 1
 335 350 l 2
 335 412 310 432 245 432 c 0
 211 432 159 422 106 404 c 1
 70 509 l 1
 137 534 210 548 270 548 c 0
 351 548 401 522 433 481 c 1
 472 522 524 548 595 548 c 0
 734 548 828 448 828 276 c 0
672 314 m 1
 672 321 l 2
 672 393 649 443 586 443 c 0
 534 443 503 409 496 314 c 1
 672 314 l 1
253 96 m 0
 293 96 321 120 348 160 c 1
 341 183 338 208 337 234 c 2
 337 238 l 1
 297 238 l 2
 227 238 193 215 193 160 c 0
 193 120 214 96 253 96 c 0
EndSplineSet
EndChar

StartChar: uni00E7
Encoding: 231 231 166
Width: 478
Flags: W
LayerCount: 2
Fore
SplineSet
474 46 m 1
 431 12 383 -10 323 -16 c 1
 323 -48 l 1
 395 -56 427 -93 427 -147 c 0
 427 -215 369 -262 278 -262 c 0
 231 -262 191 -249 166 -232 c 1
 202 -159 l 1
 222 -169 241 -176 266 -176 c 0
 294 -176 313 -168 313 -146 c 0
 313 -122 285 -112 221 -112 c 1
 233 -11 l 1
 107 14 32 116 32 261 c 0
 32 430 133 548 292 548 c 0
 366 548 423 526 474 483 c 1
 406 389 l 1
 372 415 341 427 305 427 c 0
 237 427 198 381 198 262 c 0
 198 144 240 108 303 108 c 0
 341 108 367 120 405 144 c 1
 474 46 l 1
EndSplineSet
EndChar

StartChar: uni00E8
Encoding: 232 232 167
Width: 554
Flags: W
LayerCount: 2
Fore
SplineSet
433 703 m 1
 389 622 l 1
 153 717 l 1
 215 835 l 1
 433 703 l 1
525 276 m 0
 525 259 524 235 522 219 c 1
 193 219 l 1
 204 124 249 98 314 98 c 0
 357 98 395 113 441 145 c 1
 506 57 l 1
 453 15 385 -17 299 -17 c 0
 122 -17 32 97 32 263 c 0
 32 422 119 548 280 548 c 0
 432 548 525 448 525 276 c 0
370 314 m 1
 370 321 l 2
 369 393 347 443 284 443 c 0
 231 443 200 409 193 314 c 1
 370 314 l 1
EndSplineSet
EndChar

StartChar: uni00E9
Encoding: 233 233 168
Width: 554
Flags: W
LayerCount: 2
Fore
SplineSet
417 717 m 1
 181 622 l 1
 137 703 l 1
 355 835 l 1
 417 717 l 1
525 276 m 0
 525 259 524 235 522 219 c 1
 193 219 l 1
 204 124 249 98 314 98 c 0
 357 98 395 113 441 145 c 1
 506 57 l 1
 453 15 385 -17 299 -17 c 0
 122 -17 32 97 32 263 c 0
 32 422 119 548 280 548 c 0
 432 548 525 448 525 276 c 0
370 314 m 1
 370 321 l 2
 369 393 347 443 284 443 c 0
 231 443 200 409 193 314 c 1
 370 314 l 1
EndSplineSet
EndChar

StartChar: uni00EA
Encoding: 234 234 169
Width: 554
Flags: W
LayerCount: 2
Fore
SplineSet
283 712 m 1
 149 620 l 1
 93 685 l 1
 234 822 l 1
 331 822 l 1
 472 685 l 1
 416 620 l 1
 283 712 l 1
525 276 m 0
 525 259 524 235 522 219 c 1
 193 219 l 1
 204 124 249 98 314 98 c 0
 357 98 395 113 441 145 c 1
 506 57 l 1
 453 15 385 -17 299 -17 c 0
 122 -17 32 97 32 263 c 0
 32 422 119 548 280 548 c 0
 432 548 525 448 525 276 c 0
370 314 m 1
 370 321 l 2
 369 393 347 443 284 443 c 0
 231 443 200 409 193 314 c 1
 370 314 l 1
EndSplineSet
EndChar

StartChar: uni00EB
Encoding: 235 235 170
Width: 554
Flags: W
LayerCount: 2
Fore
SplineSet
166 641 m 0
 121 641 85 676 85 720 c 0
 85 764 121 799 166 799 c 0
 212 799 247 764 247 720 c 0
 247 676 212 641 166 641 c 0
397 641 m 0
 353 641 317 676 317 720 c 0
 317 764 353 799 397 799 c 0
 444 799 478 764 478 720 c 0
 478 676 444 641 397 641 c 0
525 276 m 0
 525 259 524 235 522 219 c 1
 193 219 l 1
 204 124 249 98 314 98 c 0
 357 98 395 113 441 145 c 1
 506 57 l 1
 453 15 385 -17 299 -17 c 0
 122 -17 32 97 32 263 c 0
 32 422 119 548 280 548 c 0
 432 548 525 448 525 276 c 0
370 314 m 1
 370 321 l 2
 369 393 347 443 284 443 c 0
 231 443 200 409 193 314 c 1
 370 314 l 1
EndSplineSet
EndChar

StartChar: uni00EC
Encoding: 236 236 171
Width: 280
Flags: W
LayerCount: 2
Fore
SplineSet
72 835 m 1
 290 703 l 1
 246 622 l 1
 10 717 l 1
 72 835 l 1
219 531 m 1
 219 0 l 1
 61 0 l 1
 61 531 l 1
 219 531 l 1
EndSplineSet
EndChar

StartChar: uni00ED
Encoding: 237 237 172
Width: 280
Flags: W
LayerCount: 2
Fore
SplineSet
212 835 m 1
 274 717 l 1
 38 622 l 1
 -6 703 l 1
 212 835 l 1
219 531 m 1
 219 0 l 1
 61 0 l 1
 61 531 l 1
 219 531 l 1
EndSplineSet
EndChar

StartChar: uni00EE
Encoding: 238 238 173
Width: 280
Flags: W
LayerCount: 2
Fore
SplineSet
6 620 m 1
 -50 685 l 1
 91 822 l 1
 188 822 l 1
 329 685 l 1
 273 620 l 1
 140 712 l 1
 6 620 l 1
219 531 m 1
 219 0 l 1
 61 0 l 1
 61 531 l 1
 219 531 l 1
EndSplineSet
EndChar

StartChar: uni00EF
Encoding: 239 239 174
Width: 280
Flags: W
LayerCount: 2
Fore
SplineSet
24 799 m 0
 70 799 105 764 105 720 c 0
 105 676 70 641 24 641 c 0
 -21 641 -57 676 -57 720 c 0
 -57 764 -21 799 24 799 c 0
255 799 m 0
 302 799 336 764 336 720 c 0
 336 676 302 641 255 641 c 0
 211 641 175 676 175 720 c 0
 175 764 211 799 255 799 c 0
219 531 m 1
 219 0 l 1
 61 0 l 1
 61 531 l 1
 219 531 l 1
EndSplineSet
EndChar

StartChar: uni00F0
Encoding: 240 240 175
Width: 579
Flags: W
LayerCount: 2
Fore
SplineSet
357 670 m 1
 494 573 542 445 542 277 c 0
 542 113 448 -17 283 -17 c 0
 141 -17 32 75 32 234 c 0
 32 370 119 479 240 479 c 0
 296 479 338 462 372 432 c 1
 354 492 326 538 270 582 c 1
 215 527 l 1
 116 573 l 1
 173 632 l 1
 139 643 108 650 81 654 c 1
 113 758 l 1
 160 750 202 741 259 720 c 1
 332 798 l 1
 412 727 l 1
 357 670 l 1
285 98 m 0
 350 98 381 150 381 256 c 0
 381 281 380 304 380 327 c 1
 355 354 323 369 283 369 c 0
 217 369 193 316 193 237 c 0
 193 139 229 98 285 98 c 0
EndSplineSet
EndChar

StartChar: uni00F1
Encoding: 241 241 176
Width: 573
Flags: W
LayerCount: 2
Fore
SplineSet
236 680 m 0
 212 680 199 664 183 636 c 1
 104 674 l 1
 129 738 173 792 233 792 c 0
 294 792 316 747 349 747 c 0
 371 747 385 762 401 791 c 1
 480 752 l 1
 454 685 409 635 350 635 c 0
 292 635 269 680 236 680 c 0
372 548 m 0
 464 548 519 489 519 388 c 2
 519 0 l 1
 361 0 l 1
 361 361 l 2
 361 417 342 432 311 432 c 0
 276 432 246 407 219 363 c 1
 219 0 l 1
 61 0 l 1
 61 531 l 1
 198 531 l 1
 210 467 l 1
 254 520 305 548 372 548 c 0
EndSplineSet
EndChar

StartChar: uni00F2
Encoding: 242 242 177
Width: 584
Flags: W
LayerCount: 2
Fore
SplineSet
224 835 m 1
 442 703 l 1
 398 622 l 1
 162 717 l 1
 224 835 l 1
292 548 m 0
 454 548 552 444 552 265 c 0
 552 95 454 -17 292 -17 c 0
 131 -17 32 87 32 266 c 0
 32 436 130 548 292 548 c 0
292 432 m 0
 228 432 196 381 196 266 c 0
 196 148 228 99 292 99 c 0
 356 99 388 150 388 265 c 0
 388 383 356 432 292 432 c 0
EndSplineSet
EndChar

StartChar: uni00F3
Encoding: 243 243 178
Width: 584
Flags: W
LayerCount: 2
Fore
SplineSet
364 835 m 1
 426 717 l 1
 190 622 l 1
 146 703 l 1
 364 835 l 1
292 548 m 0
 454 548 552 444 552 265 c 0
 552 95 454 -17 292 -17 c 0
 131 -17 32 87 32 266 c 0
 32 436 130 548 292 548 c 0
292 432 m 0
 228 432 196 381 196 266 c 0
 196 148 228 99 292 99 c 0
 356 99 388 150 388 265 c 0
 388 383 356 432 292 432 c 0
EndSplineSet
EndChar

StartChar: uni00F4
Encoding: 244 244 179
Width: 584
Flags: W
LayerCount: 2
Fore
SplineSet
158 620 m 1
 102 685 l 1
 243 822 l 1
 340 822 l 1
 481 685 l 1
 425 620 l 1
 292 712 l 1
 158 620 l 1
292 548 m 0
 454 548 552 444 552 265 c 0
 552 95 454 -17 292 -17 c 0
 131 -17 32 87 32 266 c 0
 32 436 130 548 292 548 c 0
292 432 m 0
 228 432 196 381 196 266 c 0
 196 148 228 99 292 99 c 0
 356 99 388 150 388 265 c 0
 388 383 356 432 292 432 c 0
EndSplineSet
EndChar

StartChar: uni00F5
Encoding: 245 245 180
Width: 584
Flags: W
LayerCount: 2
Fore
SplineSet
350 635 m 0
 292 635 269 680 236 680 c 0
 212 680 199 664 183 636 c 1
 104 674 l 1
 129 738 173 792 233 792 c 0
 294 792 316 747 349 747 c 0
 371 747 385 762 401 791 c 1
 480 752 l 1
 454 685 409 635 350 635 c 0
292 548 m 0
 454 548 552 444 552 265 c 0
 552 95 454 -17 292 -17 c 0
 131 -17 32 87 32 266 c 0
 32 436 130 548 292 548 c 0
292 432 m 0
 228 432 196 381 196 266 c 0
 196 148 228 99 292 99 c 0
 356 99 388 150 388 265 c 0
 388 383 356 432 292 432 c 0
EndSplineSet
EndChar

StartChar: uni00F6
Encoding: 246 246 181
Width: 584
Flags: W
LayerCount: 2
Fore
SplineSet
176 799 m 0
 222 799 257 764 257 720 c 0
 257 676 222 641 176 641 c 0
 131 641 95 676 95 720 c 0
 95 764 131 799 176 799 c 0
407 799 m 0
 454 799 488 764 488 720 c 0
 488 676 454 641 407 641 c 0
 363 641 327 676 327 720 c 0
 327 764 363 799 407 799 c 0
292 548 m 0
 454 548 552 444 552 265 c 0
 552 95 454 -17 292 -17 c 0
 131 -17 32 87 32 266 c 0
 32 436 130 548 292 548 c 0
292 432 m 0
 228 432 196 381 196 266 c 0
 196 148 228 99 292 99 c 0
 356 99 388 150 388 265 c 0
 388 383 356 432 292 432 c 0
EndSplineSet
EndChar

StartChar: uni00F7
Encoding: 247 247 182
Width: 519
Flags: W
LayerCount: 2
Fore
SplineSet
259 664 m 0
 310 664 350 623 350 574 c 0
 350 524 310 483 259 483 c 0
 209 483 169 524 169 574 c 0
 169 623 209 664 259 664 c 0
48 271 m 1
 48 393 l 1
 470 393 l 1
 470 271 l 1
 48 271 l 1
259 181 m 0
 310 181 350 141 350 91 c 0
 350 42 310 1 259 1 c 0
 209 1 169 42 169 91 c 0
 169 141 209 181 259 181 c 0
EndSplineSet
EndChar

StartChar: uni00F8
Encoding: 248 248 183
Width: 584
Flags: W
LayerCount: 2
Fore
SplineSet
438 510 m 1
 511 465 552 381 552 265 c 0
 552 95 454 -17 292 -17 c 0
 280 -17 269 -16 258 -15 c 1
 221 -135 l 1
 106 -101 l 1
 145 21 l 1
 73 67 32 151 32 266 c 0
 32 436 130 548 292 548 c 0
 303 548 314 547 325 546 c 1
 364 667 l 1
 480 633 l 1
 438 510 l 1
292 432 m 2
 222 432 183 381 183 266 c 0
 183 197 192 156 208 132 c 1
 308 432 l 1
 292 432 l 2
292 99 m 2
 363 99 401 150 401 265 c 0
 401 334 392 375 375 399 c 1
 276 99 l 1
 292 99 l 2
EndSplineSet
EndChar

StartChar: uni00F9
Encoding: 249 249 184
Width: 568
Flags: W
LayerCount: 2
Fore
SplineSet
213 835 m 1
 431 703 l 1
 387 622 l 1
 151 717 l 1
 213 835 l 1
507 531 m 1
 507 0 l 1
 370 0 l 1
 363 67 l 1
 325 11 273 -17 202 -17 c 0
 103 -17 54 47 54 150 c 2
 54 531 l 1
 212 531 l 1
 212 170 l 2
 212 116 230 100 263 100 c 0
 296 100 326 122 349 162 c 1
 349 531 l 1
 507 531 l 1
EndSplineSet
EndChar

StartChar: uni00FA
Encoding: 250 250 185
Width: 568
Flags: W
LayerCount: 2
Fore
SplineSet
353 835 m 1
 415 717 l 1
 179 622 l 1
 135 703 l 1
 353 835 l 1
507 531 m 1
 507 0 l 1
 370 0 l 1
 363 67 l 1
 325 11 273 -17 202 -17 c 0
 103 -17 54 47 54 150 c 2
 54 531 l 1
 212 531 l 1
 212 170 l 2
 212 116 230 100 263 100 c 0
 296 100 326 122 349 162 c 1
 349 531 l 1
 507 531 l 1
EndSplineSet
EndChar

StartChar: uni00FB
Encoding: 251 251 186
Width: 568
Flags: W
LayerCount: 2
Fore
SplineSet
148 620 m 1
 92 685 l 1
 233 822 l 1
 330 822 l 1
 471 685 l 1
 415 620 l 1
 282 712 l 1
 148 620 l 1
507 531 m 1
 507 0 l 1
 370 0 l 1
 363 67 l 1
 325 11 273 -17 202 -17 c 0
 103 -17 54 47 54 150 c 2
 54 531 l 1
 212 531 l 1
 212 170 l 2
 212 116 230 100 263 100 c 0
 296 100 326 122 349 162 c 1
 349 531 l 1
 507 531 l 1
EndSplineSet
EndChar

StartChar: uni00FC
Encoding: 252 252 187
Width: 568
Flags: W
LayerCount: 2
Fore
SplineSet
165 799 m 0
 211 799 246 764 246 720 c 0
 246 676 211 641 165 641 c 0
 120 641 84 676 84 720 c 0
 84 764 120 799 165 799 c 0
396 799 m 0
 443 799 477 764 477 720 c 0
 477 676 443 641 396 641 c 0
 352 641 316 676 316 720 c 0
 316 764 352 799 396 799 c 0
507 531 m 1
 507 0 l 1
 370 0 l 1
 363 67 l 1
 325 11 273 -17 202 -17 c 0
 103 -17 54 47 54 150 c 2
 54 531 l 1
 212 531 l 1
 212 170 l 2
 212 116 230 100 263 100 c 0
 296 100 326 122 349 162 c 1
 349 531 l 1
 507 531 l 1
EndSplineSet
EndChar

StartChar: uni00FD
Encoding: 253 253 188
Width: 518
Flags: W
LayerCount: 2
Fore
SplineSet
331 835 m 1
 393 717 l 1
 157 622 l 1
 113 703 l 1
 331 835 l 1
524 531 m 1
 355 -1 l 2
 313 -135 223 -213 56 -222 c 1
 39 -111 l 1
 143 -98 181 -68 210 0 c 1
 156 0 l 1
 -6 531 l 1
 162 531 l 1
 257 101 l 1
 361 531 l 1
 524 531 l 1
EndSplineSet
EndChar

StartChar: uni00FE
Encoding: 254 254 189
Width: 591
Flags: W
LayerCount: 2
Fore
SplineSet
358 548 m 0
 498 548 559 439 559 267 c 0
 559 103 479 -17 348 -17 c 0
 296 -17 252 1 219 38 c 1
 219 -204 l 1
 61 -222 l 1
 61 742 l 1
 219 759 l 1
 219 481 l 1
 261 530 313 548 358 548 c 0
299 99 m 0
 358 99 395 146 395 265 c 0
 395 397 363 432 308 432 c 0
 273 432 242 409 219 370 c 1
 219 146 l 1
 241 114 266 99 299 99 c 0
EndSplineSet
EndChar

StartChar: uni00FF
Encoding: 255 255 190
Width: 518
Flags: W
LayerCount: 2
Fore
SplineSet
143 799 m 0
 189 799 224 764 224 720 c 0
 224 676 189 641 143 641 c 0
 98 641 62 676 62 720 c 0
 62 764 98 799 143 799 c 0
374 799 m 0
 421 799 455 764 455 720 c 0
 455 676 421 641 374 641 c 0
 330 641 294 676 294 720 c 0
 294 764 330 799 374 799 c 0
524 531 m 1
 355 -1 l 2
 313 -135 223 -213 56 -222 c 1
 39 -111 l 1
 143 -98 181 -68 210 0 c 1
 156 0 l 1
 -6 531 l 1
 162 531 l 1
 257 101 l 1
 361 531 l 1
 524 531 l 1
EndSplineSet
EndChar

StartChar: uni0100
Encoding: 256 256 191
Width: 590
Flags: W
LayerCount: 2
Fore
SplineSet
448 891 m 1
 448 781 l 1
 143 781 l 1
 143 891 l 1
 448 891 l 1
430 0 m 1
 394 149 l 1
 192 149 l 1
 157 0 l 1
 -13 0 l 1
 196 693 l 1
 395 693 l 1
 604 0 l 1
 430 0 l 1
220 268 m 1
 366 268 l 1
 293 574 l 1
 220 268 l 1
EndSplineSet
EndChar

StartChar: uni0101
Encoding: 257 257 192
Width: 548
Flags: W
LayerCount: 2
Fore
SplineSet
423 765 m 1
 423 655 l 1
 118 655 l 1
 118 765 l 1
 423 765 l 1
484 154 m 2
 484 113 495 98 520 89 c 1
 487 -14 l 1
 424 -9 383 10 359 63 c 1
 321 4 262 -17 199 -17 c 0
 93 -17 26 52 26 149 c 0
 26 265 114 328 275 328 c 2
 329 328 l 1
 329 351 l 2
 329 414 304 433 239 433 c 0
 205 433 153 423 100 405 c 1
 64 509 l 1
 131 534 204 548 264 548 c 0
 418 548 484 483 484 360 c 2
 484 154 l 2
245 96 m 0
 282 96 310 115 329 147 c 1
 329 241 l 1
 290 241 l 2
 218 241 183 216 183 163 c 0
 183 121 206 96 245 96 c 0
EndSplineSet
EndChar

StartChar: uni0102
Encoding: 258 258 193
Width: 590
Flags: W
LayerCount: 2
Fore
SplineSet
295 751 m 0
 190 751 131 828 123 913 c 1
 210 928 l 1
 222 890 249 860 295 860 c 0
 341 860 368 890 381 928 c 1
 468 913 l 1
 460 828 400 751 295 751 c 0
430 0 m 1
 394 149 l 1
 192 149 l 1
 157 0 l 1
 -13 0 l 1
 196 693 l 1
 395 693 l 1
 604 0 l 1
 430 0 l 1
220 268 m 1
 366 268 l 1
 293 574 l 1
 220 268 l 1
EndSplineSet
EndChar

StartChar: uni0103
Encoding: 259 259 194
Width: 548
Flags: W
LayerCount: 2
Fore
SplineSet
270 632 m 0
 165 632 106 709 98 805 c 1
 185 820 l 1
 197 772 224 742 270 742 c 0
 316 742 343 772 356 820 c 1
 443 805 l 1
 435 709 375 632 270 632 c 0
484 154 m 2
 484 113 495 98 520 89 c 1
 487 -14 l 1
 424 -9 383 10 359 63 c 1
 321 4 262 -17 199 -17 c 0
 93 -17 26 52 26 149 c 0
 26 265 114 328 275 328 c 2
 329 328 l 1
 329 351 l 2
 329 414 304 433 239 433 c 0
 205 433 153 423 100 405 c 1
 64 509 l 1
 131 534 204 548 264 548 c 0
 418 548 484 483 484 360 c 2
 484 154 l 2
245 96 m 0
 282 96 310 115 329 147 c 1
 329 241 l 1
 290 241 l 2
 218 241 183 216 183 163 c 0
 183 121 206 96 245 96 c 0
EndSplineSet
EndChar

StartChar: uni0104
Encoding: 260 260 195
Width: 590
Flags: W
LayerCount: 2
Fore
SplineSet
521 0 m 1
 422 -37 403 -74 403 -102 c 0
 403 -132 420 -148 456 -148 c 0
 475 -148 494 -145 517 -140 c 1
 506 -238 l 1
 484 -243 462 -246 436 -246 c 0
 351 -246 289 -201 289 -129 c 0
 289 -56 341 -8 424 26 c 1
 394 149 l 1
 192 149 l 1
 157 0 l 1
 -13 0 l 1
 196 693 l 1
 395 693 l 1
 604 0 l 1
 521 0 l 1
220 268 m 1
 366 268 l 1
 293 574 l 1
 220 268 l 1
EndSplineSet
EndChar

StartChar: uni0105
Encoding: 261 261 196
Width: 548
Flags: W
LayerCount: 2
Fore
SplineSet
488 -14 m 1
 389 -51 370 -88 370 -116 c 0
 370 -146 387 -162 423 -162 c 0
 442 -162 461 -159 484 -154 c 1
 473 -252 l 1
 451 -257 429 -260 403 -260 c 0
 318 -260 256 -215 256 -143 c 0
 256 -68 310 -19 397 14 c 1
 381 26 369 42 359 63 c 1
 321 4 262 -17 199 -17 c 0
 93 -17 26 52 26 149 c 0
 26 265 114 328 275 328 c 2
 329 328 l 1
 329 351 l 2
 329 414 304 433 239 433 c 0
 205 433 153 423 100 405 c 1
 64 509 l 1
 131 534 204 548 264 548 c 0
 418 548 484 483 484 360 c 2
 484 154 l 2
 484 113 495 98 520 89 c 1
 487 -13 l 1
 488 -14 l 1
245 96 m 0
 282 96 310 115 329 147 c 1
 329 241 l 1
 290 241 l 2
 218 241 183 216 183 163 c 0
 183 121 206 96 245 96 c 0
EndSplineSet
EndChar

StartChar: uni0106
Encoding: 262 262 197
Width: 575
Flags: W
LayerCount: 2
Fore
SplineSet
435 956 m 1
 494 838 l 1
 254 751 l 1
 214 831 l 1
 435 956 l 1
348 710 m 0
 438 710 501 683 559 634 c 1
 481 541 l 1
 442 571 403 589 356 589 c 0
 267 589 205 518 205 348 c 0
 205 181 266 110 358 110 c 0
 413 110 453 135 494 166 c 1
 567 72 l 1
 521 26 446 -17 350 -17 c 0
 160 -17 33 111 33 348 c 0
 33 580 168 710 348 710 c 0
EndSplineSet
EndChar

StartChar: uni0107
Encoding: 263 263 198
Width: 478
Flags: W
LayerCount: 2
Fore
SplineSet
363 835 m 1
 425 717 l 1
 189 622 l 1
 145 703 l 1
 363 835 l 1
292 548 m 0
 366 548 423 526 474 483 c 1
 406 389 l 1
 372 415 341 427 305 427 c 0
 237 427 198 381 198 262 c 0
 198 144 240 108 303 108 c 0
 341 108 367 120 405 144 c 1
 474 46 l 1
 425 7 368 -17 295 -17 c 0
 132 -17 32 93 32 261 c 0
 32 430 133 548 292 548 c 0
EndSplineSet
EndChar

StartChar: uni0108
Encoding: 264 264 199
Width: 575
Flags: W
LayerCount: 2
Fore
SplineSet
221 755 m 1
 164 820 l 1
 306 949 l 1
 402 949 l 1
 543 820 l 1
 487 755 l 1
 354 839 l 1
 221 755 l 1
348 710 m 0
 438 710 501 683 559 634 c 1
 481 541 l 1
 442 571 403 589 356 589 c 0
 267 589 205 518 205 348 c 0
 205 181 266 110 358 110 c 0
 413 110 453 135 494 166 c 1
 567 72 l 1
 521 26 446 -17 350 -17 c 0
 160 -17 33 111 33 348 c 0
 33 580 168 710 348 710 c 0
EndSplineSet
EndChar

StartChar: uni0109
Encoding: 265 265 200
Width: 478
Flags: W
LayerCount: 2
Fore
SplineSet
157 620 m 1
 101 685 l 1
 242 822 l 1
 339 822 l 1
 480 685 l 1
 424 620 l 1
 291 712 l 1
 157 620 l 1
292 548 m 0
 366 548 423 526 474 483 c 1
 406 389 l 1
 372 415 341 427 305 427 c 0
 237 427 198 381 198 262 c 0
 198 144 240 108 303 108 c 0
 341 108 367 120 405 144 c 1
 474 46 l 1
 425 7 368 -17 295 -17 c 0
 132 -17 32 93 32 261 c 0
 32 430 133 548 292 548 c 0
EndSplineSet
EndChar

StartChar: uni010A
Encoding: 266 266 201
Width: 575
Flags: W
LayerCount: 2
Fore
SplineSet
353 937 m 0
 408 937 447 898 447 847 c 0
 447 796 408 757 353 757 c 0
 298 757 260 796 260 847 c 0
 260 898 298 937 353 937 c 0
348 710 m 0
 438 710 501 683 559 634 c 1
 481 541 l 1
 442 571 403 589 356 589 c 0
 267 589 205 518 205 348 c 0
 205 181 266 110 358 110 c 0
 413 110 453 135 494 166 c 1
 567 72 l 1
 521 26 446 -17 350 -17 c 0
 160 -17 33 111 33 348 c 0
 33 580 168 710 348 710 c 0
EndSplineSet
EndChar

StartChar: uni010B
Encoding: 267 267 202
Width: 478
Flags: W
LayerCount: 2
Fore
SplineSet
290 811 m 0
 345 811 384 772 384 721 c 0
 384 670 345 631 290 631 c 0
 235 631 197 670 197 721 c 0
 197 772 235 811 290 811 c 0
292 548 m 0
 366 548 423 526 474 483 c 1
 406 389 l 1
 372 415 341 427 305 427 c 0
 237 427 198 381 198 262 c 0
 198 144 240 108 303 108 c 0
 341 108 367 120 405 144 c 1
 474 46 l 1
 425 7 368 -17 295 -17 c 0
 132 -17 32 93 32 261 c 0
 32 430 133 548 292 548 c 0
EndSplineSet
EndChar

StartChar: uni010C
Encoding: 268 268 203
Width: 575
Flags: W
LayerCount: 2
Fore
SplineSet
487 944 m 1
 543 879 l 1
 402 750 l 1
 306 750 l 1
 164 879 l 1
 221 944 l 1
 354 860 l 1
 487 944 l 1
348 710 m 0
 438 710 501 683 559 634 c 1
 481 541 l 1
 442 571 403 589 356 589 c 0
 267 589 205 518 205 348 c 0
 205 181 266 110 358 110 c 0
 413 110 453 135 494 166 c 1
 567 72 l 1
 521 26 446 -17 350 -17 c 0
 160 -17 33 111 33 348 c 0
 33 580 168 710 348 710 c 0
EndSplineSet
EndChar

StartChar: uni010D
Encoding: 269 269 204
Width: 478
Flags: W
LayerCount: 2
Fore
SplineSet
424 813 m 1
 480 748 l 1
 339 611 l 1
 243 611 l 1
 101 748 l 1
 158 813 l 1
 291 722 l 1
 424 813 l 1
292 548 m 0
 366 548 423 526 474 483 c 1
 406 389 l 1
 372 415 341 427 305 427 c 0
 237 427 198 381 198 262 c 0
 198 144 240 108 303 108 c 0
 341 108 367 120 405 144 c 1
 474 46 l 1
 425 7 368 -17 295 -17 c 0
 132 -17 32 93 32 261 c 0
 32 430 133 548 292 548 c 0
EndSplineSet
EndChar

StartChar: uni010E
Encoding: 270 270 205
Width: 651
Flags: W
LayerCount: 2
Fore
SplineSet
429 944 m 1
 485 879 l 1
 344 750 l 1
 248 750 l 1
 106 879 l 1
 163 944 l 1
 296 860 l 1
 429 944 l 1
258 693 m 2
 443 693 618 636 618 350 c 0
 618 71 450 0 273 0 c 2
 65 0 l 1
 65 693 l 1
 258 693 l 2
281 574 m 2
 229 574 l 1
 229 119 l 1
 283 119 l 2
 382 119 448 166 448 350 c 0
 448 536 377 574 281 574 c 2
EndSplineSet
EndChar

StartChar: uni010F
Encoding: 271 271 206
Width: 686
Flags: W
LayerCount: 2
Fore
SplineSet
375 498 m 1
 375 759 l 1
 533 742 l 1
 533 0 l 1
 393 0 l 1
 385 62 l 1
 354 18 306 -17 234 -17 c 0
 99 -17 32 95 32 267 c 0
 32 431 118 548 249 548 c 0
 301 548 344 529 375 498 c 1
599 758 m 1
 718 741 l 1
 663 526 l 1
 576 539 l 1
 599 758 l 1
283 99 m 0
 321 99 350 119 375 159 c 1
 375 388 l 1
 351 416 327 433 292 433 c 0
 236 433 196 385 196 266 c 0
 196 134 232 99 283 99 c 0
EndSplineSet
EndChar

StartChar: uni0110
Encoding: 272 272 207
Width: 665
Flags: W
LayerCount: 2
Fore
SplineSet
272 693 m 2
 457 693 632 636 632 350 c 0
 632 71 464 0 287 0 c 2
 78 0 l 1
 78 304 l 1
 14 304 l 1
 14 402 l 1
 78 402 l 1
 78 693 l 1
 272 693 l 2
297 119 m 2
 396 119 462 166 462 350 c 0
 462 536 391 574 295 574 c 2
 242 574 l 1
 242 402 l 1
 377 402 l 1
 377 304 l 1
 242 304 l 1
 242 119 l 1
 297 119 l 2
EndSplineSet
EndChar

StartChar: uni0111
Encoding: 273 273 208
Width: 608
Flags: W
LayerCount: 2
Fore
SplineSet
533 688 m 1
 600 688 l 1
 600 596 l 1
 533 596 l 1
 533 0 l 1
 393 0 l 1
 385 62 l 1
 354 18 306 -17 234 -17 c 0
 99 -17 32 95 32 267 c 0
 32 431 118 548 249 548 c 0
 301 548 344 529 375 498 c 1
 375 596 l 1
 243 596 l 1
 243 688 l 1
 375 688 l 1
 375 759 l 1
 533 742 l 1
 533 688 l 1
283 99 m 0
 321 99 350 119 375 159 c 1
 375 388 l 1
 351 416 327 433 292 433 c 0
 236 433 196 385 196 266 c 0
 196 134 232 99 283 99 c 0
EndSplineSet
EndChar

StartChar: uni0112
Encoding: 274 274 209
Width: 526
Flags: W
LayerCount: 2
Fore
SplineSet
431 781 m 1
 126 781 l 1
 126 891 l 1
 431 891 l 1
 431 781 l 1
490 693 m 1
 473 576 l 1
 229 576 l 1
 229 410 l 1
 442 410 l 1
 442 295 l 1
 229 295 l 1
 229 118 l 1
 490 118 l 1
 490 0 l 1
 65 0 l 1
 65 693 l 1
 490 693 l 1
EndSplineSet
EndChar

StartChar: uni0113
Encoding: 275 275 210
Width: 554
Flags: W
LayerCount: 2
Fore
SplineSet
435 765 m 1
 435 655 l 1
 130 655 l 1
 130 765 l 1
 435 765 l 1
525 276 m 0
 525 259 524 235 522 219 c 1
 193 219 l 1
 204 124 249 98 314 98 c 0
 357 98 395 113 441 145 c 1
 506 57 l 1
 453 15 385 -17 299 -17 c 0
 122 -17 32 97 32 263 c 0
 32 422 119 548 280 548 c 0
 432 548 525 448 525 276 c 0
370 314 m 1
 370 321 l 2
 369 393 347 443 284 443 c 0
 231 443 200 409 193 314 c 1
 370 314 l 1
EndSplineSet
EndChar

StartChar: uni0114
Encoding: 276 276 211
Width: 526
Flags: W
LayerCount: 2
Fore
SplineSet
278 751 m 0
 173 751 114 828 106 913 c 1
 193 928 l 1
 205 890 232 860 278 860 c 0
 324 860 351 890 364 928 c 1
 451 913 l 1
 443 828 383 751 278 751 c 0
490 693 m 1
 473 576 l 1
 229 576 l 1
 229 410 l 1
 442 410 l 1
 442 295 l 1
 229 295 l 1
 229 118 l 1
 490 118 l 1
 490 0 l 1
 65 0 l 1
 65 693 l 1
 490 693 l 1
EndSplineSet
EndChar

StartChar: uni0115
Encoding: 277 277 212
Width: 554
Flags: W
LayerCount: 2
Fore
SplineSet
282 632 m 0
 177 632 118 709 110 805 c 1
 197 820 l 1
 209 772 236 742 282 742 c 0
 328 742 355 772 368 820 c 1
 455 805 l 1
 447 709 387 632 282 632 c 0
525 276 m 0
 525 259 524 235 522 219 c 1
 193 219 l 1
 204 124 249 98 314 98 c 0
 357 98 395 113 441 145 c 1
 506 57 l 1
 453 15 385 -17 299 -17 c 0
 122 -17 32 97 32 263 c 0
 32 422 119 548 280 548 c 0
 432 548 525 448 525 276 c 0
370 314 m 1
 370 321 l 2
 369 393 347 443 284 443 c 0
 231 443 200 409 193 314 c 1
 370 314 l 1
EndSplineSet
EndChar

StartChar: uni0116
Encoding: 278 278 213
Width: 526
Flags: W
LayerCount: 2
Fore
SplineSet
278 937 m 0
 333 937 372 898 372 847 c 0
 372 796 333 757 278 757 c 0
 223 757 185 796 185 847 c 0
 185 898 223 937 278 937 c 0
490 693 m 1
 473 576 l 1
 229 576 l 1
 229 410 l 1
 442 410 l 1
 442 295 l 1
 229 295 l 1
 229 118 l 1
 490 118 l 1
 490 0 l 1
 65 0 l 1
 65 693 l 1
 490 693 l 1
EndSplineSet
EndChar

StartChar: uni0117
Encoding: 279 279 214
Width: 554
Flags: W
LayerCount: 2
Fore
SplineSet
282 631 m 0
 227 631 189 670 189 721 c 0
 189 772 227 811 282 811 c 0
 337 811 376 772 376 721 c 0
 376 670 337 631 282 631 c 0
525 276 m 0
 525 259 524 235 522 219 c 1
 193 219 l 1
 204 124 249 98 314 98 c 0
 357 98 395 113 441 145 c 1
 506 57 l 1
 453 15 385 -17 299 -17 c 0
 122 -17 32 97 32 263 c 0
 32 422 119 548 280 548 c 0
 432 548 525 448 525 276 c 0
370 314 m 1
 370 321 l 2
 369 393 347 443 284 443 c 0
 231 443 200 409 193 314 c 1
 370 314 l 1
EndSplineSet
EndChar

StartChar: uni0118
Encoding: 280 280 215
Width: 526
Flags: W
LayerCount: 2
Fore
SplineSet
229 295 m 1
 229 118 l 1
 490 118 l 1
 490 0 l 1
 450 0 l 1
 351 -37 332 -74 332 -102 c 0
 332 -132 349 -148 385 -148 c 0
 404 -148 423 -145 446 -140 c 1
 435 -238 l 1
 413 -243 391 -246 365 -246 c 0
 280 -246 218 -201 218 -129 c 0
 218 -73 248 -31 300 0 c 1
 65 0 l 1
 65 693 l 1
 490 693 l 1
 473 576 l 1
 229 576 l 1
 229 410 l 1
 442 410 l 1
 442 295 l 1
 229 295 l 1
EndSplineSet
EndChar

StartChar: uni0119
Encoding: 281 281 216
Width: 554
Flags: W
LayerCount: 2
Fore
SplineSet
525 276 m 0
 525 259 524 235 522 219 c 1
 193 219 l 1
 204 124 249 98 314 98 c 0
 357 98 395 113 441 145 c 1
 506 57 l 1
 475 32 439 11 397 -2 c 1
 322 -35 306 -68 306 -93 c 0
 306 -123 323 -139 359 -139 c 0
 379 -139 397 -136 420 -131 c 1
 409 -229 l 1
 388 -234 366 -237 339 -237 c 0
 254 -237 192 -192 192 -120 c 0
 192 -74 218 -39 260 -15 c 1
 109 1 32 110 32 263 c 0
 32 422 119 548 280 548 c 0
 432 548 525 448 525 276 c 0
370 314 m 1
 370 321 l 2
 369 393 347 443 284 443 c 0
 231 443 200 409 193 314 c 1
 370 314 l 1
EndSplineSet
EndChar

StartChar: uni011A
Encoding: 282 282 217
Width: 526
Flags: W
LayerCount: 2
Fore
SplineSet
412 944 m 1
 468 879 l 1
 327 750 l 1
 231 750 l 1
 89 879 l 1
 146 944 l 1
 279 860 l 1
 412 944 l 1
490 693 m 1
 473 576 l 1
 229 576 l 1
 229 410 l 1
 442 410 l 1
 442 295 l 1
 229 295 l 1
 229 118 l 1
 490 118 l 1
 490 0 l 1
 65 0 l 1
 65 693 l 1
 490 693 l 1
EndSplineSet
EndChar

StartChar: uni011B
Encoding: 283 283 218
Width: 554
Flags: W
LayerCount: 2
Fore
SplineSet
331 611 m 1
 235 611 l 1
 93 748 l 1
 150 813 l 1
 283 722 l 1
 416 813 l 1
 472 748 l 1
 331 611 l 1
525 276 m 0
 525 259 524 235 522 219 c 1
 193 219 l 1
 204 124 249 98 314 98 c 0
 357 98 395 113 441 145 c 1
 506 57 l 1
 453 15 385 -17 299 -17 c 0
 122 -17 32 97 32 263 c 0
 32 422 119 548 280 548 c 0
 432 548 525 448 525 276 c 0
370 314 m 1
 370 321 l 2
 369 393 347 443 284 443 c 0
 231 443 200 409 193 314 c 1
 370 314 l 1
EndSplineSet
EndChar

StartChar: uni011C
Encoding: 284 284 219
Width: 645
Flags: W
LayerCount: 2
Fore
SplineSet
219 755 m 1
 162 820 l 1
 304 949 l 1
 400 949 l 1
 541 820 l 1
 485 755 l 1
 352 839 l 1
 219 755 l 1
365 710 m 0
 466 710 539 675 596 625 c 1
 513 538 l 1
 466 574 428 591 372 591 c 0
 275 591 203 519 203 347 c 0
 203 165 251 103 347 103 c 0
 381 103 412 110 441 126 c 1
 441 283 l 1
 351 283 l 1
 335 399 l 1
 600 399 l 1
 600 56 l 1
 528 10 438 -17 351 -17 c 0
 139 -17 33 110 33 347 c 0
 33 582 179 710 365 710 c 0
EndSplineSet
EndChar

StartChar: uni011D
Encoding: 285 285 220
Width: 551
Flags: W
LayerCount: 2
Fore
SplineSet
142 620 m 1
 86 685 l 1
 227 822 l 1
 324 822 l 1
 465 685 l 1
 409 620 l 1
 276 712 l 1
 142 620 l 1
514 617 m 1
 551 500 l 1
 514 485 465 479 398 479 c 1
 465 450 498 411 498 342 c 0
 498 239 413 164 275 164 c 0
 253 164 233 166 214 170 c 1
 203 164 197 152 197 140 c 0
 197 124 204 108 255 108 c 2
 335 108 l 2
 459 108 538 43 538 -46 c 0
 538 -155 442 -222 260 -222 c 0
 59 -222 6 -156 6 -51 c 1
 148 -51 l 1
 148 -97 168 -117 264 -117 c 0
 357 -117 379 -91 379 -57 c 0
 379 -26 356 -5 303 -5 c 2
 226 -5 l 2
 110 -5 63 43 63 100 c 0
 63 139 88 178 126 202 c 1
 58 238 31 285 31 354 c 0
 31 474 125 548 264 548 c 0
 382 545 450 579 514 617 c 1
268 444 m 0
 219 444 188 411 188 356 c 0
 188 298 220 266 268 266 c 0
 320 266 348 297 348 358 c 0
 348 417 321 444 268 444 c 0
EndSplineSet
EndChar

StartChar: uni011E
Encoding: 286 286 221
Width: 645
Flags: W
LayerCount: 2
Fore
SplineSet
351 751 m 0
 246 751 187 828 179 913 c 1
 266 928 l 1
 278 890 305 860 351 860 c 0
 397 860 424 890 437 928 c 1
 524 913 l 1
 516 828 456 751 351 751 c 0
365 710 m 0
 466 710 539 675 596 625 c 1
 513 538 l 1
 466 574 428 591 372 591 c 0
 275 591 203 519 203 347 c 0
 203 165 251 103 347 103 c 0
 381 103 412 110 441 126 c 1
 441 283 l 1
 351 283 l 1
 335 399 l 1
 600 399 l 1
 600 56 l 1
 528 10 438 -17 351 -17 c 0
 139 -17 33 110 33 347 c 0
 33 582 179 710 365 710 c 0
EndSplineSet
EndChar

StartChar: uni011F
Encoding: 287 287 222
Width: 551
Flags: W
LayerCount: 2
Fore
SplineSet
275 632 m 0
 170 632 111 709 103 805 c 1
 190 820 l 1
 202 772 229 742 275 742 c 0
 321 742 348 772 361 820 c 1
 448 805 l 1
 440 709 380 632 275 632 c 0
514 617 m 1
 551 500 l 1
 514 485 465 479 398 479 c 1
 465 450 498 411 498 342 c 0
 498 239 413 164 275 164 c 0
 253 164 233 166 214 170 c 1
 203 164 197 152 197 140 c 0
 197 124 204 108 255 108 c 2
 335 108 l 2
 459 108 538 43 538 -46 c 0
 538 -155 442 -222 260 -222 c 0
 59 -222 6 -156 6 -51 c 1
 148 -51 l 1
 148 -97 168 -117 264 -117 c 0
 357 -117 379 -91 379 -57 c 0
 379 -26 356 -5 303 -5 c 2
 226 -5 l 2
 110 -5 63 43 63 100 c 0
 63 139 88 178 126 202 c 1
 58 238 31 285 31 354 c 0
 31 474 125 548 264 548 c 0
 382 545 450 579 514 617 c 1
268 444 m 0
 219 444 188 411 188 356 c 0
 188 298 220 266 268 266 c 0
 320 266 348 297 348 358 c 0
 348 417 321 444 268 444 c 0
EndSplineSet
EndChar

StartChar: uni0120
Encoding: 288 288 223
Width: 645
Flags: W
LayerCount: 2
Fore
SplineSet
351 937 m 0
 406 937 445 898 445 847 c 0
 445 796 406 757 351 757 c 0
 296 757 258 796 258 847 c 0
 258 898 296 937 351 937 c 0
365 710 m 0
 466 710 539 675 596 625 c 1
 513 538 l 1
 466 574 428 591 372 591 c 0
 275 591 203 519 203 347 c 0
 203 165 251 103 347 103 c 0
 381 103 412 110 441 126 c 1
 441 283 l 1
 351 283 l 1
 335 399 l 1
 600 399 l 1
 600 56 l 1
 528 10 438 -17 351 -17 c 0
 139 -17 33 110 33 347 c 0
 33 582 179 710 365 710 c 0
EndSplineSet
EndChar

StartChar: uni0121
Encoding: 289 289 224
Width: 551
Flags: W
LayerCount: 2
Fore
SplineSet
275 811 m 0
 330 811 369 772 369 721 c 0
 369 670 330 631 275 631 c 0
 220 631 182 670 182 721 c 0
 182 772 220 811 275 811 c 0
514 617 m 1
 551 500 l 1
 514 485 465 479 398 479 c 1
 465 450 498 411 498 342 c 0
 498 239 413 164 275 164 c 0
 253 164 233 166 214 170 c 1
 203 164 197 152 197 140 c 0
 197 124 204 108 255 108 c 2
 335 108 l 2
 459 108 538 43 538 -46 c 0
 538 -155 442 -222 260 -222 c 0
 59 -222 6 -156 6 -51 c 1
 148 -51 l 1
 148 -97 168 -117 264 -117 c 0
 357 -117 379 -91 379 -57 c 0
 379 -26 356 -5 303 -5 c 2
 226 -5 l 2
 110 -5 63 43 63 100 c 0
 63 139 88 178 126 202 c 1
 58 238 31 285 31 354 c 0
 31 474 125 548 264 548 c 0
 382 545 450 579 514 617 c 1
268 444 m 0
 219 444 188 411 188 356 c 0
 188 298 220 266 268 266 c 0
 320 266 348 297 348 358 c 0
 348 417 321 444 268 444 c 0
EndSplineSet
EndChar

StartChar: uni0122
Encoding: 290 290 225
Width: 645
Flags: W
LayerCount: 2
Fore
SplineSet
365 710 m 0
 466 710 539 675 596 625 c 1
 513 538 l 1
 466 574 428 591 372 591 c 0
 275 591 203 519 203 347 c 0
 203 165 251 103 347 103 c 0
 381 103 412 110 441 126 c 1
 441 283 l 1
 351 283 l 1
 335 399 l 1
 600 399 l 1
 600 56 l 1
 528 10 438 -17 351 -17 c 0
 139 -17 33 110 33 347 c 0
 33 582 179 710 365 710 c 0
348 -68 m 0
 394 -68 427 -101 427 -145 c 0
 427 -171 419 -191 400 -229 c 2
 354 -325 l 1
 275 -325 l 1
 302 -210 l 1
 283 -195 269 -174 269 -145 c 0
 269 -103 302 -68 348 -68 c 0
EndSplineSet
EndChar

StartChar: uni0123
Encoding: 291 291 226
Width: 551
Flags: W
LayerCount: 2
Fore
SplineSet
272 577 m 0
 226 577 193 610 193 655 c 0
 193 680 201 700 220 738 c 2
 266 834 l 1
 345 834 l 1
 318 719 l 1
 337 704 351 683 351 655 c 0
 351 612 317 577 272 577 c 0
514 617 m 1
 551 500 l 1
 514 485 465 479 398 479 c 1
 465 450 498 411 498 342 c 0
 498 239 413 164 275 164 c 0
 253 164 233 166 214 170 c 1
 203 164 197 152 197 140 c 0
 197 124 204 108 255 108 c 2
 335 108 l 2
 459 108 538 43 538 -46 c 0
 538 -155 442 -222 260 -222 c 0
 59 -222 6 -156 6 -51 c 1
 148 -51 l 1
 148 -97 168 -117 264 -117 c 0
 357 -117 379 -91 379 -57 c 0
 379 -26 356 -5 303 -5 c 2
 226 -5 l 2
 110 -5 63 43 63 100 c 0
 63 139 88 178 126 202 c 1
 58 238 31 285 31 354 c 0
 31 474 125 548 264 548 c 0
 382 545 450 579 514 617 c 1
268 444 m 0
 219 444 188 411 188 356 c 0
 188 298 220 266 268 266 c 0
 320 266 348 297 348 358 c 0
 348 417 321 444 268 444 c 0
EndSplineSet
EndChar

StartChar: uni0124
Encoding: 292 292 227
Width: 666
Flags: W
LayerCount: 2
Fore
SplineSet
200 755 m 1
 143 820 l 1
 285 949 l 1
 381 949 l 1
 522 820 l 1
 466 755 l 1
 333 839 l 1
 200 755 l 1
437 0 m 1
 437 297 l 1
 229 297 l 1
 229 0 l 1
 65 0 l 1
 65 693 l 1
 229 693 l 1
 229 425 l 1
 437 425 l 1
 437 693 l 1
 601 693 l 1
 601 0 l 1
 437 0 l 1
EndSplineSet
EndChar

StartChar: uni0125
Encoding: 293 293 228
Width: 573
Flags: W
LayerCount: 2
Fore
SplineSet
287 888 m 1
 154 804 l 1
 97 869 l 1
 239 998 l 1
 335 998 l 1
 476 869 l 1
 420 804 l 1
 287 888 l 1
372 548 m 0
 463 548 519 489 519 388 c 2
 519 0 l 1
 361 0 l 1
 361 361 l 2
 361 417 341 432 311 432 c 0
 276 432 246 407 219 364 c 1
 219 0 l 1
 61 0 l 1
 61 742 l 1
 219 758 l 1
 219 474 l 1
 262 523 309 548 372 548 c 0
EndSplineSet
EndChar

StartChar: uni0126
Encoding: 294 294 229
Width: 677
Flags: W
LayerCount: 2
Fore
SplineSet
664 592 m 1
 664 500 l 1
 607 500 l 1
 607 0 l 1
 443 0 l 1
 443 297 l 1
 234 297 l 1
 234 0 l 1
 70 0 l 1
 70 500 l 1
 13 500 l 1
 13 592 l 1
 70 592 l 1
 70 693 l 1
 234 693 l 1
 234 592 l 1
 443 592 l 1
 443 693 l 1
 607 693 l 1
 607 592 l 1
 664 592 l 1
443 425 m 1
 443 500 l 1
 234 500 l 1
 234 425 l 1
 443 425 l 1
EndSplineSet
EndChar

StartChar: uni0127
Encoding: 295 295 230
Width: 582
Flags: W
LayerCount: 2
Fore
SplineSet
380 548 m 0
 472 548 528 489 528 388 c 2
 528 0 l 1
 370 0 l 1
 370 361 l 2
 370 417 349 432 319 432 c 0
 285 432 255 407 227 364 c 1
 227 0 l 1
 69 0 l 1
 69 596 l 1
 8 596 l 1
 8 688 l 1
 69 688 l 1
 69 742 l 1
 227 758 l 1
 227 688 l 1
 360 688 l 1
 360 596 l 1
 227 596 l 1
 227 474 l 1
 270 523 318 548 380 548 c 0
EndSplineSet
EndChar

StartChar: uni0128
Encoding: 296 296 231
Width: 293
Flags: W
LayerCount: 2
Fore
SplineSet
204 761 m 0
 146 761 123 806 90 806 c 0
 66 806 53 790 37 762 c 1
 -42 800 l 1
 -17 864 27 918 87 918 c 0
 148 918 170 873 203 873 c 0
 225 873 239 888 255 917 c 1
 334 878 l 1
 308 811 263 761 204 761 c 0
229 693 m 1
 229 0 l 1
 65 0 l 1
 65 693 l 1
 229 693 l 1
EndSplineSet
EndChar

StartChar: uni0129
Encoding: 297 297 232
Width: 280
Flags: W
LayerCount: 2
Fore
SplineSet
198 635 m 0
 140 635 117 680 84 680 c 0
 60 680 47 664 31 636 c 1
 -48 674 l 1
 -23 738 21 792 81 792 c 0
 142 792 164 747 197 747 c 0
 219 747 233 762 249 791 c 1
 328 752 l 1
 302 685 257 635 198 635 c 0
219 531 m 1
 219 0 l 1
 61 0 l 1
 61 531 l 1
 219 531 l 1
EndSplineSet
EndChar

StartChar: uni012A
Encoding: 298 298 233
Width: 293
Flags: W
LayerCount: 2
Fore
SplineSet
298 781 m 1
 -7 781 l 1
 -7 891 l 1
 298 891 l 1
 298 781 l 1
229 693 m 1
 229 0 l 1
 65 0 l 1
 65 693 l 1
 229 693 l 1
EndSplineSet
EndChar

StartChar: uni012B
Encoding: 299 299 234
Width: 280
Flags: W
LayerCount: 2
Fore
SplineSet
292 655 m 1
 -13 655 l 1
 -13 765 l 1
 292 765 l 1
 292 655 l 1
219 531 m 1
 219 0 l 1
 61 0 l 1
 61 531 l 1
 219 531 l 1
EndSplineSet
EndChar

StartChar: uni012C
Encoding: 300 300 235
Width: 293
Flags: W
LayerCount: 2
Fore
SplineSet
146 751 m 0
 41 751 -18 828 -26 913 c 1
 61 928 l 1
 73 890 100 860 146 860 c 0
 192 860 219 890 232 928 c 1
 319 913 l 1
 311 828 251 751 146 751 c 0
229 693 m 1
 229 0 l 1
 65 0 l 1
 65 693 l 1
 229 693 l 1
EndSplineSet
EndChar

StartChar: uni012D
Encoding: 301 301 236
Width: 280
Flags: W
LayerCount: 2
Fore
SplineSet
139 632 m 0
 34 632 -25 709 -33 805 c 1
 54 820 l 1
 66 772 93 742 139 742 c 0
 185 742 212 772 225 820 c 1
 312 805 l 1
 304 709 244 632 139 632 c 0
219 531 m 1
 219 0 l 1
 61 0 l 1
 61 531 l 1
 219 531 l 1
EndSplineSet
EndChar

StartChar: uni012E
Encoding: 302 302 237
Width: 293
Flags: W
LayerCount: 2
Fore
SplineSet
65 693 m 1
 229 693 l 1
 229 0 l 1
 200 0 l 1
 101 -37 82 -74 82 -102 c 0
 82 -132 99 -148 135 -148 c 0
 154 -148 173 -145 196 -140 c 1
 185 -238 l 1
 163 -243 141 -246 115 -246 c 0
 30 -246 -32 -201 -32 -129 c 0
 -32 -67 4 -24 65 8 c 1
 65 693 l 1
EndSplineSet
EndChar

StartChar: uni012F
Encoding: 303 303 238
Width: 280
Flags: W
LayerCount: 2
Fore
SplineSet
139 631 m 0
 84 631 46 670 46 721 c 0
 46 772 84 811 139 811 c 0
 194 811 233 772 233 721 c 0
 233 670 194 631 139 631 c 0
61 10 m 1
 61 531 l 1
 219 531 l 1
 219 0 l 1
 194 0 l 1
 95 -37 76 -74 76 -102 c 0
 76 -132 93 -148 129 -148 c 0
 148 -148 167 -145 190 -140 c 1
 179 -238 l 1
 157 -243 135 -246 109 -246 c 0
 24 -246 -38 -201 -38 -129 c 0
 -38 -67 -1 -23 61 10 c 1
EndSplineSet
EndChar

StartChar: uni0130
Encoding: 304 304 239
Width: 293
Flags: W
LayerCount: 2
Fore
SplineSet
146 937 m 0
 201 937 240 898 240 847 c 0
 240 796 201 757 146 757 c 0
 91 757 53 796 53 847 c 0
 53 898 91 937 146 937 c 0
229 693 m 1
 229 0 l 1
 65 0 l 1
 65 693 l 1
 229 693 l 1
EndSplineSet
EndChar

StartChar: uni0131
Encoding: 305 305 240
Width: 280
Flags: W
LayerCount: 2
Fore
SplineSet
219 531 m 1
 219 0 l 1
 61 0 l 1
 61 531 l 1
 219 531 l 1
EndSplineSet
EndChar

StartChar: uni0132
Encoding: 306 306 241
Width: 610
Flags: W
LayerCount: 2
Fore
SplineSet
229 693 m 1
 229 0 l 1
 65 0 l 1
 65 693 l 1
 229 693 l 1
549 693 m 1
 549 105 l 2
 549 -70 443 -131 326 -169 c 1
 282 -53 l 1
 372 -18 385 29 385 111 c 2
 385 693 l 1
 549 693 l 1
EndSplineSet
EndChar

StartChar: uni0133
Encoding: 307 307 242
Width: 560
Flags: W
LayerCount: 2
Fore
SplineSet
139 811 m 0
 194 811 233 772 233 721 c 0
 233 670 194 631 139 631 c 0
 84 631 46 670 46 721 c 0
 46 772 84 811 139 811 c 0
420 811 m 0
 475 811 514 772 514 721 c 0
 514 670 475 631 420 631 c 0
 365 631 327 670 327 721 c 0
 327 772 365 811 420 811 c 0
219 531 m 1
 219 0 l 1
 61 0 l 1
 61 531 l 1
 219 531 l 1
499 531 m 1
 499 60 l 2
 499 -113 410 -176 286 -221 c 1
 233 -106 l 1
 301 -75 341 -47 341 50 c 2
 341 531 l 1
 499 531 l 1
EndSplineSet
EndChar

StartChar: uni0134
Encoding: 308 308 243
Width: 317
Flags: W
LayerCount: 2
Fore
SplineSet
41 755 m 1
 -16 820 l 1
 126 949 l 1
 222 949 l 1
 363 820 l 1
 307 755 l 1
 174 839 l 1
 41 755 l 1
256 693 m 1
 256 105 l 2
 256 -70 150 -131 33 -169 c 1
 -11 -53 l 1
 79 -18 92 29 92 111 c 2
 92 693 l 1
 256 693 l 1
EndSplineSet
EndChar

StartChar: uni0135
Encoding: 309 309 244
Width: 280
Flags: W
LayerCount: 2
Fore
SplineSet
7 620 m 1
 -49 685 l 1
 92 822 l 1
 189 822 l 1
 330 685 l 1
 274 620 l 1
 141 712 l 1
 7 620 l 1
219 531 m 1
 219 60 l 2
 219 -113 130 -176 6 -221 c 1
 -47 -106 l 1
 21 -75 61 -47 61 50 c 2
 61 531 l 1
 219 531 l 1
EndSplineSet
EndChar

StartChar: uni0136
Encoding: 310 310 245
Width: 633
Flags: W
LayerCount: 2
Fore
SplineSet
229 693 m 1
 229 0 l 1
 65 0 l 1
 65 693 l 1
 229 693 l 1
627 693 m 1
 406 382 l 1
 645 0 l 1
 455 0 l 1
 234 370 l 1
 454 693 l 1
 627 693 l 1
325 -68 m 0
 371 -68 404 -101 404 -145 c 0
 404 -171 396 -191 377 -229 c 2
 331 -325 l 1
 252 -325 l 1
 279 -210 l 1
 260 -195 246 -174 246 -145 c 0
 246 -103 279 -68 325 -68 c 0
EndSplineSet
EndChar

StartChar: uni0137
Encoding: 311 311 246
Width: 551
Flags: W
LayerCount: 2
Fore
SplineSet
219 759 m 1
 219 0 l 1
 61 0 l 1
 61 742 l 1
 219 759 l 1
547 531 m 1
 386 298 l 1
 560 0 l 1
 382 0 l 1
 224 290 l 1
 386 531 l 1
 547 531 l 1
275 -68 m 0
 321 -68 354 -101 354 -145 c 0
 354 -171 346 -191 327 -229 c 2
 281 -325 l 1
 202 -325 l 1
 229 -210 l 1
 210 -195 196 -174 196 -145 c 0
 196 -103 229 -68 275 -68 c 0
EndSplineSet
EndChar

StartChar: uni0138
Encoding: 312 312 247
Width: 550
Flags: W
LayerCount: 2
Fore
SplineSet
219 531 m 1
 219 0 l 1
 61 0 l 1
 61 531 l 1
 219 531 l 1
546 531 m 1
 385 288 l 1
 559 0 l 1
 381 0 l 1
 222 280 l 1
 385 531 l 1
 546 531 l 1
EndSplineSet
EndChar

StartChar: uni0139
Encoding: 313 313 248
Width: 513
Flags: W
LayerCount: 2
Fore
SplineSet
228 956 m 1
 287 838 l 1
 47 751 l 1
 7 831 l 1
 228 956 l 1
229 693 m 1
 229 130 l 1
 499 130 l 1
 482 0 l 1
 65 0 l 1
 65 693 l 1
 229 693 l 1
EndSplineSet
EndChar

StartChar: uni013A
Encoding: 314 314 249
Width: 300
Flags: W
LayerCount: 2
Fore
SplineSet
214 1005 m 1
 273 887 l 1
 33 800 l 1
 -7 880 l 1
 214 1005 l 1
200 -17 m 0
 108 -17 54 38 54 135 c 2
 54 742 l 1
 212 759 l 1
 212 141 l 2
 212 119 221 108 240 108 c 0
 250 108 259 110 266 113 c 1
 296 1 l 1
 273 -9 239 -17 200 -17 c 0
EndSplineSet
EndChar

StartChar: uni013B
Encoding: 315 315 250
Width: 513
Flags: W
LayerCount: 2
Fore
SplineSet
229 693 m 1
 229 130 l 1
 499 130 l 1
 482 0 l 1
 65 0 l 1
 65 693 l 1
 229 693 l 1
274 -68 m 0
 320 -68 353 -101 353 -145 c 0
 353 -171 345 -191 326 -229 c 2
 280 -325 l 1
 201 -325 l 1
 228 -210 l 1
 209 -195 195 -174 195 -145 c 0
 195 -103 228 -68 274 -68 c 0
EndSplineSet
EndChar

StartChar: uni013C
Encoding: 316 316 251
Width: 300
Flags: W
LayerCount: 2
Fore
SplineSet
200 -17 m 0
 108 -17 54 38 54 135 c 2
 54 742 l 1
 212 759 l 1
 212 141 l 2
 212 119 221 108 240 108 c 0
 250 108 259 110 266 113 c 1
 296 1 l 1
 273 -9 239 -17 200 -17 c 0
181 -68 m 0
 227 -68 260 -101 260 -145 c 0
 260 -171 252 -191 233 -229 c 2
 187 -325 l 1
 108 -325 l 1
 135 -210 l 1
 116 -195 102 -174 102 -145 c 0
 102 -103 135 -68 181 -68 c 0
EndSplineSet
EndChar

StartChar: uni013D
Encoding: 317 317 252
Width: 513
Flags: W
LayerCount: 2
Fore
SplineSet
358 478 m 1
 413 693 l 1
 294 710 l 1
 271 491 l 1
 358 478 l 1
229 693 m 1
 229 130 l 1
 499 130 l 1
 482 0 l 1
 65 0 l 1
 65 693 l 1
 229 693 l 1
EndSplineSet
EndChar

StartChar: uni013E
Encoding: 318 318 253
Width: 369
Flags: W
LayerCount: 2
Fore
SplineSet
200 -17 m 0
 108 -17 54 38 54 135 c 2
 54 742 l 1
 212 759 l 1
 212 141 l 2
 212 119 221 108 240 108 c 0
 250 108 259 110 266 113 c 1
 296 1 l 1
 273 -9 239 -17 200 -17 c 0
339 526 m 1
 394 741 l 1
 275 758 l 1
 252 539 l 1
 339 526 l 1
EndSplineSet
EndChar

StartChar: uni013F
Encoding: 319 319 254
Width: 513
Flags: W
LayerCount: 2
Fore
SplineSet
229 693 m 1
 229 130 l 1
 499 130 l 1
 482 0 l 1
 65 0 l 1
 65 693 l 1
 229 693 l 1
399 490 m 0
 454 490 493 451 493 400 c 0
 493 349 454 310 399 310 c 0
 344 310 306 349 306 400 c 0
 306 451 344 490 399 490 c 0
EndSplineSet
EndChar

StartChar: uni0140
Encoding: 320 320 255
Width: 442
Flags: W
LayerCount: 2
Fore
SplineSet
200 -17 m 0
 108 -17 54 38 54 135 c 2
 54 742 l 1
 212 759 l 1
 212 141 l 2
 212 119 221 108 240 108 c 0
 250 108 259 110 266 113 c 1
 296 1 l 1
 273 -9 239 -17 200 -17 c 0
356 466 m 0
 411 466 449 427 449 376 c 0
 449 326 411 287 356 287 c 0
 301 287 262 326 262 376 c 0
 262 427 301 466 356 466 c 0
EndSplineSet
EndChar

StartChar: uni0141
Encoding: 321 321 256
Width: 553
Flags: W
LayerCount: 2
Fore
SplineSet
268 130 m 1
 539 130 l 1
 522 0 l 1
 104 0 l 1
 104 225 l 1
 62 198 l 1
 8 285 l 1
 104 344 l 1
 104 693 l 1
 268 693 l 1
 268 446 l 1
 396 525 l 1
 450 439 l 1
 268 326 l 1
 268 130 l 1
EndSplineSet
EndChar

StartChar: uni0142
Encoding: 322 322 257
Width: 358
Flags: W
LayerCount: 2
Fore
SplineSet
268 108 m 0
 279 108 287 110 294 113 c 1
 325 1 l 1
 301 -9 267 -17 229 -17 c 0
 136 -17 83 38 83 135 c 2
 83 267 l 1
 44 243 l 1
 -9 329 l 1
 83 387 l 1
 83 742 l 1
 241 759 l 1
 241 482 l 1
 310 523 l 1
 362 437 l 1
 241 363 l 1
 241 141 l 2
 241 119 249 108 268 108 c 0
EndSplineSet
EndChar

StartChar: uni0143
Encoding: 323 323 258
Width: 663
Flags: W
LayerCount: 2
Fore
SplineSet
417 956 m 1
 476 838 l 1
 236 751 l 1
 196 831 l 1
 417 956 l 1
599 693 m 1
 599 0 l 1
 390 0 l 1
 190 537 l 1
 198 474 211 382 211 254 c 2
 211 0 l 1
 65 0 l 1
 65 693 l 1
 269 693 l 1
 474 155 l 1
 465 211 452 302 452 413 c 2
 452 693 l 1
 599 693 l 1
EndSplineSet
EndChar

StartChar: uni0144
Encoding: 324 324 259
Width: 573
Flags: W
LayerCount: 2
Fore
SplineSet
426 717 m 1
 190 622 l 1
 146 703 l 1
 364 835 l 1
 426 717 l 1
372 548 m 0
 464 548 519 489 519 388 c 2
 519 0 l 1
 361 0 l 1
 361 361 l 2
 361 417 342 432 311 432 c 0
 276 432 246 407 219 363 c 1
 219 0 l 1
 61 0 l 1
 61 531 l 1
 198 531 l 1
 210 467 l 1
 254 520 305 548 372 548 c 0
EndSplineSet
EndChar

StartChar: uni0145
Encoding: 325 325 260
Width: 663
Flags: W
LayerCount: 2
Fore
SplineSet
599 693 m 1
 599 0 l 1
 390 0 l 1
 190 537 l 1
 198 474 211 382 211 254 c 2
 211 0 l 1
 65 0 l 1
 65 693 l 1
 269 693 l 1
 474 155 l 1
 465 211 452 302 452 413 c 2
 452 693 l 1
 599 693 l 1
333 -68 m 0
 379 -68 412 -101 412 -145 c 0
 412 -171 404 -191 385 -229 c 2
 339 -325 l 1
 260 -325 l 1
 287 -210 l 1
 268 -195 254 -174 254 -145 c 0
 254 -103 287 -68 333 -68 c 0
EndSplineSet
EndChar

StartChar: uni0146
Encoding: 326 326 261
Width: 573
Flags: W
LayerCount: 2
Fore
SplineSet
372 548 m 0
 464 548 519 489 519 388 c 2
 519 0 l 1
 361 0 l 1
 361 361 l 2
 361 417 342 432 311 432 c 0
 276 432 246 407 219 363 c 1
 219 0 l 1
 61 0 l 1
 61 531 l 1
 198 531 l 1
 210 467 l 1
 254 520 305 548 372 548 c 0
289 -68 m 0
 335 -68 368 -101 368 -145 c 0
 368 -171 360 -191 341 -229 c 2
 295 -325 l 1
 216 -325 l 1
 243 -210 l 1
 224 -195 210 -174 210 -145 c 0
 210 -103 243 -68 289 -68 c 0
EndSplineSet
EndChar

StartChar: uni0147
Encoding: 327 327 262
Width: 663
Flags: W
LayerCount: 2
Fore
SplineSet
470 944 m 1
 526 879 l 1
 385 750 l 1
 289 750 l 1
 147 879 l 1
 204 944 l 1
 337 860 l 1
 470 944 l 1
599 693 m 1
 599 0 l 1
 390 0 l 1
 190 537 l 1
 198 474 211 382 211 254 c 2
 211 0 l 1
 65 0 l 1
 65 693 l 1
 269 693 l 1
 474 155 l 1
 465 211 452 302 452 413 c 2
 452 693 l 1
 599 693 l 1
EndSplineSet
EndChar

StartChar: uni0148
Encoding: 328 328 263
Width: 573
Flags: W
LayerCount: 2
Fore
SplineSet
341 611 m 1
 245 611 l 1
 103 748 l 1
 160 813 l 1
 293 722 l 1
 426 813 l 1
 482 748 l 1
 341 611 l 1
372 548 m 0
 464 548 519 489 519 388 c 2
 519 0 l 1
 361 0 l 1
 361 361 l 2
 361 417 342 432 311 432 c 0
 276 432 246 407 219 363 c 1
 219 0 l 1
 61 0 l 1
 61 531 l 1
 198 531 l 1
 210 467 l 1
 254 520 305 548 372 548 c 0
EndSplineSet
EndChar

StartChar: uni0149
Encoding: 329 329 264
Width: 698
Flags: W
LayerCount: 2
Fore
SplineSet
102 760 m 0
 142 760 172 731 172 692 c 0
 172 669 165 652 148 617 c 2
 107 535 l 1
 38 535 l 1
 62 635 l 1
 45 648 33 667 33 692 c 0
 33 729 63 760 102 760 c 0
496 548 m 0
 588 548 644 489 644 388 c 2
 644 0 l 1
 486 0 l 1
 486 361 l 2
 486 417 466 432 436 432 c 0
 400 432 371 407 343 363 c 1
 343 0 l 1
 185 0 l 1
 185 531 l 1
 323 531 l 1
 335 468 l 1
 379 520 430 548 496 548 c 0
EndSplineSet
EndChar

StartChar: uni014A
Encoding: 330 330 265
Width: 663
Flags: W
LayerCount: 2
Fore
SplineSet
452 693 m 1
 599 693 l 1
 599 -31 l 2
 599 -159 518 -222 398 -222 c 0
 333 -222 288 -203 257 -179 c 1
 310 -82 l 1
 334 -94 350 -103 380 -103 c 0
 414 -103 434 -83 434 -42 c 2
 434 0 l 1
 390 0 l 1
 190 537 l 1
 198 474 211 382 211 254 c 2
 211 0 l 1
 65 0 l 1
 65 693 l 1
 269 693 l 1
 474 155 l 1
 465 211 452 302 452 413 c 2
 452 693 l 1
EndSplineSet
EndChar

StartChar: uni014B
Encoding: 331 331 266
Width: 575
Flags: W
LayerCount: 2
Fore
SplineSet
519 1 m 1
 520 1 l 1
 520 -31 l 2
 520 -158 441 -222 324 -222 c 0
 258 -222 214 -203 182 -179 c 1
 235 -87 l 1
 259 -99 276 -107 306 -107 c 0
 341 -107 362 -87 362 -46 c 2
 362 0 l 1
 361 0 l 1
 361 361 l 2
 361 417 342 432 311 432 c 0
 276 432 246 407 219 363 c 1
 219 0 l 1
 61 0 l 1
 61 531 l 1
 198 531 l 1
 210 467 l 1
 254 520 305 548 372 548 c 0
 464 548 519 489 519 388 c 2
 519 1 l 1
EndSplineSet
EndChar

StartChar: uni014C
Encoding: 332 332 267
Width: 691
Flags: W
LayerCount: 2
Fore
SplineSet
497 781 m 1
 192 781 l 1
 192 891 l 1
 497 891 l 1
 497 781 l 1
345 710 m 0
 541 710 658 578 658 347 c 0
 658 120 541 -17 345 -17 c 0
 150 -17 33 116 33 347 c 0
 33 573 150 710 345 710 c 0
345 590 m 0
 253 590 205 522 205 347 c 0
 205 171 255 103 345 103 c 0
 439 103 486 171 486 347 c 0
 486 522 438 590 345 590 c 0
EndSplineSet
EndChar

StartChar: uni014D
Encoding: 333 333 268
Width: 584
Flags: W
LayerCount: 2
Fore
SplineSet
444 655 m 1
 139 655 l 1
 139 765 l 1
 444 765 l 1
 444 655 l 1
292 548 m 0
 454 548 552 444 552 265 c 0
 552 95 454 -17 292 -17 c 0
 131 -17 32 87 32 266 c 0
 32 436 130 548 292 548 c 0
292 432 m 0
 228 432 196 381 196 266 c 0
 196 148 228 99 292 99 c 0
 356 99 388 150 388 265 c 0
 388 383 356 432 292 432 c 0
EndSplineSet
EndChar

StartChar: uni014E
Encoding: 334 334 269
Width: 691
Flags: W
LayerCount: 2
Fore
SplineSet
345 751 m 0
 240 751 181 828 173 913 c 1
 260 928 l 1
 272 890 299 860 345 860 c 0
 391 860 418 890 431 928 c 1
 518 913 l 1
 510 828 450 751 345 751 c 0
345 710 m 0
 541 710 658 578 658 347 c 0
 658 120 541 -17 345 -17 c 0
 150 -17 33 116 33 347 c 0
 33 573 150 710 345 710 c 0
345 590 m 0
 253 590 205 522 205 347 c 0
 205 171 255 103 345 103 c 0
 439 103 486 171 486 347 c 0
 486 522 438 590 345 590 c 0
EndSplineSet
EndChar

StartChar: uni014F
Encoding: 335 335 270
Width: 584
Flags: W
LayerCount: 2
Fore
SplineSet
291 632 m 0
 186 632 127 709 119 805 c 1
 206 820 l 1
 218 772 245 742 291 742 c 0
 337 742 364 772 377 820 c 1
 464 805 l 1
 456 709 396 632 291 632 c 0
292 548 m 0
 454 548 552 444 552 265 c 0
 552 95 454 -17 292 -17 c 0
 131 -17 32 87 32 266 c 0
 32 436 130 548 292 548 c 0
292 432 m 0
 228 432 196 381 196 266 c 0
 196 148 228 99 292 99 c 0
 356 99 388 150 388 265 c 0
 388 383 356 432 292 432 c 0
EndSplineSet
EndChar

StartChar: uni0150
Encoding: 336 336 271
Width: 691
Flags: W
LayerCount: 2
Fore
SplineSet
308 956 m 1
 408 899 l 1
 282 740 l 1
 212 778 l 1
 308 956 l 1
479 947 m 1
 576 885 l 1
 441 733 l 1
 374 775 l 1
 479 947 l 1
345 710 m 0
 541 710 658 578 658 347 c 0
 658 120 541 -17 345 -17 c 0
 150 -17 33 116 33 347 c 0
 33 573 150 710 345 710 c 0
345 590 m 0
 253 590 205 522 205 347 c 0
 205 171 255 103 345 103 c 0
 439 103 486 171 486 347 c 0
 486 522 438 590 345 590 c 0
EndSplineSet
EndChar

StartChar: uni0151
Encoding: 337 337 272
Width: 584
Flags: W
LayerCount: 2
Fore
SplineSet
272 827 m 1
 372 770 l 1
 246 601 l 1
 176 639 l 1
 272 827 l 1
443 818 m 1
 540 756 l 1
 405 594 l 1
 338 636 l 1
 443 818 l 1
292 548 m 0
 454 548 552 444 552 265 c 0
 552 95 454 -17 292 -17 c 0
 131 -17 32 87 32 266 c 0
 32 436 130 548 292 548 c 0
292 432 m 0
 228 432 196 381 196 266 c 0
 196 148 228 99 292 99 c 0
 356 99 388 150 388 265 c 0
 388 383 356 432 292 432 c 0
EndSplineSet
EndChar

StartChar: uni0152
Encoding: 338 338 273
Width: 905
Flags: W
LayerCount: 2
Fore
SplineSet
635 295 m 1
 627 228 604 166 566 118 c 1
 869 118 l 1
 869 0 l 1
 424 0 l 1
 396 -11 363 -17 329 -17 c 0
 150 -17 33 116 33 347 c 0
 33 573 150 710 329 710 c 0
 365 710 399 704 428 693 c 1
 869 693 l 1
 852 576 l 1
 570 576 l 1
 605 530 626 473 634 410 c 1
 821 410 l 1
 821 295 l 1
 635 295 l 1
335 103 m 0
 419 103 466 171 466 347 c 0
 466 522 418 590 335 590 c 0
 253 590 205 522 205 347 c 0
 205 171 255 103 335 103 c 0
EndSplineSet
EndChar

StartChar: uni0153
Encoding: 339 339 274
Width: 909
Flags: W
LayerCount: 2
Fore
SplineSet
880 276 m 0
 880 259 879 235 877 219 c 1
 548 219 l 1
 558 124 603 98 669 98 c 0
 712 98 750 113 796 145 c 1
 861 57 l 1
 808 15 740 -17 654 -17 c 0
 570 -17 511 13 469 65 c 1
 426 12 368 -17 291 -17 c 0
 130 -17 32 87 32 266 c 0
 32 435 130 548 292 548 c 0
 367 548 426 519 469 469 c 1
 509 518 564 548 637 548 c 0
 787 548 880 448 880 276 c 0
724 314 m 1
 724 321 l 2
 724 393 701 443 640 443 c 0
 586 443 555 409 548 314 c 1
 724 314 l 1
291 99 m 0
 355 99 387 149 387 266 c 0
 387 381 355 432 292 432 c 0
 228 432 196 381 196 266 c 0
 196 148 228 99 291 99 c 0
EndSplineSet
EndChar

StartChar: uni0154
Encoding: 340 340 275
Width: 617
Flags: W
LayerCount: 2
Fore
SplineSet
441 838 m 1
 201 751 l 1
 161 831 l 1
 382 956 l 1
 441 838 l 1
435 0 m 1
 293 265 l 1
 229 265 l 1
 229 0 l 1
 65 0 l 1
 65 693 l 1
 292 693 l 2
 480 693 577 626 577 482 c 0
 577 391 534 336 444 295 c 1
 620 0 l 1
 435 0 l 1
229 578 m 1
 229 378 l 1
 298 378 l 2
 370 378 408 409 408 482 c 0
 408 549 369 578 288 578 c 2
 229 578 l 1
EndSplineSet
EndChar

StartChar: uni0155
Encoding: 341 341 276
Width: 400
Flags: W
LayerCount: 2
Fore
SplineSet
366 717 m 1
 130 622 l 1
 86 703 l 1
 304 835 l 1
 366 717 l 1
349 546 m 0
 369 546 384 544 402 539 c 1
 377 386 l 1
 360 390 346 393 329 393 c 0
 264 393 237 346 219 267 c 1
 219 0 l 1
 61 0 l 1
 61 531 l 1
 198 531 l 1
 212 428 l 1
 236 502 288 546 349 546 c 0
EndSplineSet
EndChar

StartChar: uni0156
Encoding: 342 342 277
Width: 617
Flags: W
LayerCount: 2
Fore
SplineSet
444 295 m 1
 620 0 l 1
 435 0 l 1
 293 265 l 1
 229 265 l 1
 229 0 l 1
 65 0 l 1
 65 693 l 1
 292 693 l 2
 480 693 577 626 577 482 c 0
 577 391 534 336 444 295 c 1
229 578 m 1
 229 378 l 1
 298 378 l 2
 370 378 408 409 408 482 c 0
 408 549 369 578 288 578 c 2
 229 578 l 1
312 -68 m 0
 358 -68 391 -101 391 -145 c 0
 391 -171 383 -191 364 -229 c 2
 318 -325 l 1
 239 -325 l 1
 266 -210 l 1
 247 -195 233 -174 233 -145 c 0
 233 -103 266 -68 312 -68 c 0
EndSplineSet
EndChar

StartChar: uni0157
Encoding: 343 343 278
Width: 400
Flags: W
LayerCount: 2
Fore
SplineSet
349 546 m 0
 369 546 384 544 402 539 c 1
 377 386 l 1
 360 390 346 393 329 393 c 0
 264 393 237 346 219 267 c 1
 219 0 l 1
 61 0 l 1
 61 531 l 1
 198 531 l 1
 212 428 l 1
 236 502 288 546 349 546 c 0
141 -68 m 0
 187 -68 220 -101 220 -145 c 0
 220 -171 212 -191 193 -229 c 2
 147 -325 l 1
 68 -325 l 1
 95 -210 l 1
 76 -195 62 -174 62 -145 c 0
 62 -103 95 -68 141 -68 c 0
EndSplineSet
EndChar

StartChar: uni0158
Encoding: 344 344 279
Width: 617
Flags: W
LayerCount: 2
Fore
SplineSet
349 750 m 1
 253 750 l 1
 111 879 l 1
 168 944 l 1
 301 860 l 1
 434 944 l 1
 490 879 l 1
 349 750 l 1
435 0 m 1
 293 265 l 1
 229 265 l 1
 229 0 l 1
 65 0 l 1
 65 693 l 1
 292 693 l 2
 480 693 577 626 577 482 c 0
 577 391 534 336 444 295 c 1
 620 0 l 1
 435 0 l 1
229 578 m 1
 229 378 l 1
 298 378 l 2
 370 378 408 409 408 482 c 0
 408 549 369 578 288 578 c 2
 229 578 l 1
EndSplineSet
EndChar

StartChar: uni0159
Encoding: 345 345 280
Width: 400
Flags: W
LayerCount: 2
Fore
SplineSet
281 611 m 1
 185 611 l 1
 43 748 l 1
 100 813 l 1
 233 722 l 1
 366 813 l 1
 422 748 l 1
 281 611 l 1
212 428 m 1
 236 502 288 546 349 546 c 0
 369 546 384 544 402 539 c 1
 377 386 l 1
 360 390 346 393 329 393 c 0
 264 393 237 346 219 267 c 1
 219 0 l 1
 61 0 l 1
 61 531 l 1
 198 531 l 1
 212 428 l 1
EndSplineSet
EndChar

StartChar: uni015A
Encoding: 346 346 281
Width: 572
Flags: W
LayerCount: 2
Fore
SplineSet
376 956 m 1
 435 838 l 1
 195 751 l 1
 155 831 l 1
 376 956 l 1
288 710 m 0
 394 710 467 679 528 621 c 1
 452 532 l 1
 404 571 356 590 300 590 c 0
 243 590 207 566 207 522 c 0
 207 478 233 460 341 426 c 0
 472 384 547 330 547 202 c 0
 547 73 445 -17 272 -17 c 0
 152 -17 66 27 9 82 c 1
 92 173 l 1
 143 130 198 105 267 105 c 0
 335 105 377 137 377 190 c 0
 377 241 351 264 250 295 c 0
 95 343 38 407 38 510 c 0
 38 632 144 710 288 710 c 0
EndSplineSet
EndChar

StartChar: uni015B
Encoding: 347 347 282
Width: 480
Flags: W
LayerCount: 2
Fore
SplineSet
321 835 m 1
 383 717 l 1
 147 622 l 1
 103 703 l 1
 321 835 l 1
249 548 m 0
 326 548 395 523 444 483 c 1
 386 394 l 1
 345 420 301 435 255 435 c 0
 212 435 191 419 191 395 c 0
 191 367 205 355 300 327 c 0
 405 297 464 253 464 158 c 0
 464 48 360 -17 228 -17 c 0
 136 -17 58 15 6 62 c 1
 83 148 l 1
 123 117 172 96 224 96 c 0
 272 96 301 114 301 146 c 0
 301 182 285 193 189 220 c 0
 84 250 32 304 32 386 c 0
 32 477 115 548 249 548 c 0
EndSplineSet
EndChar

StartChar: uni015C
Encoding: 348 348 283
Width: 572
Flags: W
LayerCount: 2
Fore
SplineSet
162 755 m 1
 105 820 l 1
 247 949 l 1
 343 949 l 1
 484 820 l 1
 428 755 l 1
 295 839 l 1
 162 755 l 1
288 710 m 0
 394 710 467 679 528 621 c 1
 452 532 l 1
 404 571 356 590 300 590 c 0
 243 590 207 566 207 522 c 0
 207 478 233 460 341 426 c 0
 472 384 547 330 547 202 c 0
 547 73 445 -17 272 -17 c 0
 152 -17 66 27 9 82 c 1
 92 173 l 1
 143 130 198 105 267 105 c 0
 335 105 377 137 377 190 c 0
 377 241 351 264 250 295 c 0
 95 343 38 407 38 510 c 0
 38 632 144 710 288 710 c 0
EndSplineSet
EndChar

StartChar: uni015D
Encoding: 349 349 284
Width: 480
Flags: W
LayerCount: 2
Fore
SplineSet
115 620 m 1
 59 685 l 1
 200 822 l 1
 297 822 l 1
 438 685 l 1
 382 620 l 1
 249 712 l 1
 115 620 l 1
249 548 m 0
 326 548 395 523 444 483 c 1
 386 394 l 1
 345 420 301 435 255 435 c 0
 212 435 191 419 191 395 c 0
 191 367 205 355 300 327 c 0
 405 297 464 253 464 158 c 0
 464 48 360 -17 228 -17 c 0
 136 -17 58 15 6 62 c 1
 83 148 l 1
 123 117 172 96 224 96 c 0
 272 96 301 114 301 146 c 0
 301 182 285 193 189 220 c 0
 84 250 32 304 32 386 c 0
 32 477 115 548 249 548 c 0
EndSplineSet
EndChar

StartChar: uni015E
Encoding: 350 350 285
Width: 572
Flags: W
LayerCount: 2
Fore
SplineSet
547 202 m 0
 547 87 466 3 325 -14 c 1
 325 -48 l 1
 397 -56 429 -93 429 -147 c 0
 429 -215 371 -262 280 -262 c 0
 233 -262 193 -249 168 -232 c 1
 204 -159 l 1
 224 -169 243 -176 268 -176 c 0
 296 -176 315 -168 315 -146 c 0
 315 -122 287 -112 223 -112 c 1
 234 -16 l 1
 134 -7 60 33 9 82 c 1
 92 173 l 1
 143 130 198 105 267 105 c 0
 335 105 377 137 377 190 c 0
 377 241 351 264 250 295 c 0
 95 343 38 407 38 510 c 0
 38 632 144 710 288 710 c 0
 394 710 467 679 528 621 c 1
 452 532 l 1
 404 571 356 590 300 590 c 0
 243 590 207 566 207 522 c 0
 207 478 233 460 341 426 c 0
 472 384 547 330 547 202 c 0
EndSplineSet
EndChar

StartChar: uni015F
Encoding: 351 351 286
Width: 480
Flags: W
LayerCount: 2
Fore
SplineSet
464 158 m 0
 464 64 389 3 285 -13 c 1
 285 -48 l 1
 357 -56 389 -93 389 -147 c 0
 389 -215 331 -262 240 -262 c 0
 193 -262 153 -249 128 -232 c 1
 164 -159 l 1
 184 -169 203 -176 228 -176 c 0
 256 -176 275 -168 275 -146 c 0
 275 -122 247 -112 183 -112 c 1
 194 -16 l 1
 117 -9 52 21 6 62 c 1
 83 148 l 1
 123 117 172 96 224 96 c 0
 272 96 301 114 301 146 c 0
 301 182 285 193 189 220 c 0
 84 250 32 304 32 386 c 0
 32 477 115 548 249 548 c 0
 326 548 395 523 444 483 c 1
 386 394 l 1
 345 420 301 435 255 435 c 0
 212 435 191 419 191 395 c 0
 191 367 205 355 300 327 c 0
 405 297 464 253 464 158 c 0
EndSplineSet
EndChar

StartChar: uni0160
Encoding: 352 352 287
Width: 572
Flags: W
LayerCount: 2
Fore
SplineSet
429 944 m 1
 485 879 l 1
 344 750 l 1
 248 750 l 1
 106 879 l 1
 163 944 l 1
 296 860 l 1
 429 944 l 1
288 710 m 0
 394 710 467 679 528 621 c 1
 452 532 l 1
 404 571 356 590 300 590 c 0
 243 590 207 566 207 522 c 0
 207 478 233 460 341 426 c 0
 472 384 547 330 547 202 c 0
 547 73 445 -17 272 -17 c 0
 152 -17 66 27 9 82 c 1
 92 173 l 1
 143 130 198 105 267 105 c 0
 335 105 377 137 377 190 c 0
 377 241 351 264 250 295 c 0
 95 343 38 407 38 510 c 0
 38 632 144 710 288 710 c 0
EndSplineSet
EndChar

StartChar: uni0161
Encoding: 353 353 288
Width: 480
Flags: W
LayerCount: 2
Fore
SplineSet
382 813 m 1
 438 748 l 1
 297 611 l 1
 201 611 l 1
 59 748 l 1
 116 813 l 1
 249 722 l 1
 382 813 l 1
249 548 m 0
 326 548 395 523 444 483 c 1
 386 394 l 1
 345 420 301 435 255 435 c 0
 212 435 191 419 191 395 c 0
 191 367 205 355 300 327 c 0
 405 297 464 253 464 158 c 0
 464 48 360 -17 228 -17 c 0
 136 -17 58 15 6 62 c 1
 83 148 l 1
 123 117 172 96 224 96 c 0
 272 96 301 114 301 146 c 0
 301 182 285 193 189 220 c 0
 84 250 32 304 32 386 c 0
 32 477 115 548 249 548 c 0
EndSplineSet
EndChar

StartChar: uni0162
Encoding: 354 354 289
Width: 540
Flags: W
LayerCount: 2
Fore
SplineSet
352 -48 m 1
 423 -56 457 -93 457 -147 c 0
 457 -215 398 -262 307 -262 c 0
 261 -262 220 -248 196 -232 c 1
 232 -159 l 1
 252 -169 270 -176 293 -176 c 0
 323 -176 343 -168 343 -145 c 0
 343 -122 315 -112 251 -112 c 1
 264 0 l 1
 188 0 l 1
 188 567 l 1
 9 567 l 1
 9 693 l 1
 539 693 l 1
 523 567 l 1
 352 567 l 1
 352 -48 l 1
EndSplineSet
EndChar

StartChar: uni0163
Encoding: 355 355 290
Width: 386
Flags: W
LayerCount: 2
Fore
SplineSet
277 -48 m 1
 349 -56 381 -93 381 -147 c 0
 381 -215 323 -262 232 -262 c 0
 185 -262 145 -249 120 -232 c 1
 156 -159 l 1
 176 -169 195 -176 220 -176 c 0
 248 -176 267 -168 267 -146 c 0
 267 -122 239 -112 175 -112 c 1
 187 -8 l 1
 113 13 77 75 77 175 c 2
 77 421 l 1
 2 421 l 1
 2 531 l 1
 77 531 l 1
 77 646 l 1
 235 664 l 1
 235 531 l 1
 357 531 l 1
 340 421 l 1
 235 421 l 1
 235 177 l 2
 235 126 252 108 285 108 c 0
 303 108 321 113 342 125 c 1
 395 25 l 1
 362 2 318 -12 277 -16 c 1
 277 -48 l 1
EndSplineSet
EndChar

StartChar: uni0164
Encoding: 356 356 291
Width: 540
Flags: W
LayerCount: 2
Fore
SplineSet
404 944 m 1
 460 879 l 1
 319 750 l 1
 223 750 l 1
 81 879 l 1
 138 944 l 1
 271 860 l 1
 404 944 l 1
539 693 m 1
 523 567 l 1
 352 567 l 1
 352 0 l 1
 188 0 l 1
 188 567 l 1
 9 567 l 1
 9 693 l 1
 539 693 l 1
EndSplineSet
EndChar

StartChar: uni0165
Encoding: 357 357 292
Width: 386
Flags: W
LayerCount: 2
Fore
SplineSet
400 779 m 1
 345 564 l 1
 257 577 l 1
 280 796 l 1
 400 779 l 1
285 108 m 0
 303 108 321 113 342 125 c 1
 395 25 l 1
 355 -3 299 -17 251 -17 c 0
 134 -16 77 50 77 175 c 2
 77 421 l 1
 2 421 l 1
 2 531 l 1
 77 531 l 1
 77 646 l 1
 235 664 l 1
 235 531 l 1
 357 531 l 1
 340 421 l 1
 235 421 l 1
 235 177 l 2
 235 126 252 108 285 108 c 0
EndSplineSet
EndChar

StartChar: uni0166
Encoding: 358 358 293
Width: 540
Flags: W
LayerCount: 2
Fore
SplineSet
523 566 m 1
 352 566 l 1
 352 389 l 1
 467 389 l 1
 467 297 l 1
 352 297 l 1
 352 -1 l 1
 188 -1 l 1
 188 297 l 1
 73 297 l 1
 73 389 l 1
 188 389 l 1
 188 566 l 1
 9 566 l 1
 9 693 l 1
 539 693 l 1
 523 566 l 1
EndSplineSet
EndChar

StartChar: uni0167
Encoding: 359 359 294
Width: 386
Flags: W
LayerCount: 2
Fore
SplineSet
342 125 m 1
 395 25 l 1
 355 -3 299 -17 251 -17 c 0
 134 -16 77 50 77 175 c 2
 77 257 l 1
 11 257 l 1
 11 361 l 1
 77 361 l 1
 77 421 l 1
 2 421 l 1
 2 531 l 1
 77 531 l 1
 77 646 l 1
 235 664 l 1
 235 531 l 1
 357 531 l 1
 340 421 l 1
 235 421 l 1
 235 361 l 1
 338 361 l 1
 338 257 l 1
 235 257 l 1
 235 177 l 2
 235 126 252 108 285 108 c 0
 303 108 321 113 342 125 c 1
EndSplineSet
EndChar

StartChar: uni0168
Encoding: 360 360 295
Width: 651
Flags: W
LayerCount: 2
Fore
SplineSet
383 761 m 0
 325 761 302 806 269 806 c 0
 245 806 232 790 216 762 c 1
 137 800 l 1
 162 864 206 918 266 918 c 0
 327 918 349 873 382 873 c 0
 404 873 418 888 434 917 c 1
 513 878 l 1
 487 811 442 761 383 761 c 0
596 693 m 1
 596 230 l 2
 596 90 506 -17 325 -17 c 0
 144 -17 55 84 55 230 c 2
 55 693 l 1
 219 693 l 1
 219 237 l 2
 219 148 251 105 325 105 c 0
 400 105 432 148 432 237 c 2
 432 693 l 1
 596 693 l 1
EndSplineSet
EndChar

StartChar: uni0169
Encoding: 361 361 296
Width: 568
Flags: W
LayerCount: 2
Fore
SplineSet
339 635 m 0
 281 635 258 680 225 680 c 0
 201 680 188 664 172 636 c 1
 93 674 l 1
 118 738 162 792 222 792 c 0
 283 792 305 747 338 747 c 0
 360 747 374 762 390 791 c 1
 469 752 l 1
 443 685 398 635 339 635 c 0
507 531 m 1
 507 0 l 1
 370 0 l 1
 363 67 l 1
 325 11 273 -17 202 -17 c 0
 103 -17 54 47 54 150 c 2
 54 531 l 1
 212 531 l 1
 212 170 l 2
 212 116 230 100 263 100 c 0
 296 100 326 122 349 162 c 1
 349 531 l 1
 507 531 l 1
EndSplineSet
EndChar

StartChar: uni016A
Encoding: 362 362 297
Width: 651
Flags: W
LayerCount: 2
Fore
SplineSet
477 781 m 1
 172 781 l 1
 172 891 l 1
 477 891 l 1
 477 781 l 1
596 693 m 1
 596 230 l 2
 596 90 506 -17 325 -17 c 0
 144 -17 55 84 55 230 c 2
 55 693 l 1
 219 693 l 1
 219 237 l 2
 219 148 251 105 325 105 c 0
 400 105 432 148 432 237 c 2
 432 693 l 1
 596 693 l 1
EndSplineSet
EndChar

StartChar: uni016B
Encoding: 363 363 298
Width: 568
Flags: W
LayerCount: 2
Fore
SplineSet
433 655 m 1
 128 655 l 1
 128 765 l 1
 433 765 l 1
 433 655 l 1
507 531 m 1
 507 0 l 1
 370 0 l 1
 363 67 l 1
 325 11 273 -17 202 -17 c 0
 103 -17 54 47 54 150 c 2
 54 531 l 1
 212 531 l 1
 212 170 l 2
 212 116 230 100 263 100 c 0
 296 100 326 122 349 162 c 1
 349 531 l 1
 507 531 l 1
EndSplineSet
EndChar

StartChar: uni016C
Encoding: 364 364 299
Width: 651
Flags: W
LayerCount: 2
Fore
SplineSet
325 751 m 0
 220 751 161 828 153 913 c 1
 240 928 l 1
 252 890 279 860 325 860 c 0
 371 860 398 890 411 928 c 1
 498 913 l 1
 490 828 430 751 325 751 c 0
596 693 m 1
 596 230 l 2
 596 90 506 -17 325 -17 c 0
 144 -17 55 84 55 230 c 2
 55 693 l 1
 219 693 l 1
 219 237 l 2
 219 148 251 105 325 105 c 0
 400 105 432 148 432 237 c 2
 432 693 l 1
 596 693 l 1
EndSplineSet
EndChar

StartChar: uni016D
Encoding: 365 365 300
Width: 568
Flags: W
LayerCount: 2
Fore
SplineSet
281 632 m 0
 176 632 117 709 109 805 c 1
 196 820 l 1
 208 772 235 742 281 742 c 0
 327 742 354 772 367 820 c 1
 454 805 l 1
 446 709 386 632 281 632 c 0
507 531 m 1
 507 0 l 1
 370 0 l 1
 363 67 l 1
 325 11 273 -17 202 -17 c 0
 103 -17 54 47 54 150 c 2
 54 531 l 1
 212 531 l 1
 212 170 l 2
 212 116 230 100 263 100 c 0
 296 100 326 122 349 162 c 1
 349 531 l 1
 507 531 l 1
EndSplineSet
EndChar

StartChar: uni016E
Encoding: 366 366 301
Width: 651
Flags: W
LayerCount: 2
Fore
SplineSet
325 993 m 0
 411 993 464 933 464 862 c 0
 464 791 411 731 325 731 c 0
 239 731 186 791 186 862 c 0
 186 933 239 993 325 993 c 0
325 912 m 0
 298 912 280 895 280 862 c 0
 280 829 298 812 325 812 c 0
 351 812 370 829 370 862 c 0
 370 895 352 912 325 912 c 0
596 693 m 1
 596 230 l 2
 596 90 506 -17 325 -17 c 0
 144 -17 55 84 55 230 c 2
 55 693 l 1
 219 693 l 1
 219 237 l 2
 219 148 251 105 325 105 c 0
 400 105 432 148 432 237 c 2
 432 693 l 1
 596 693 l 1
EndSplineSet
EndChar

StartChar: uni016F
Encoding: 367 367 302
Width: 568
Flags: W
LayerCount: 2
Fore
SplineSet
281 867 m 0
 367 867 420 807 420 736 c 0
 420 665 367 605 281 605 c 0
 195 605 142 665 142 736 c 0
 142 807 195 867 281 867 c 0
281 786 m 0
 254 786 236 769 236 736 c 0
 236 703 254 686 281 686 c 0
 307 686 326 703 326 736 c 0
 326 769 308 786 281 786 c 0
507 531 m 1
 507 0 l 1
 370 0 l 1
 363 67 l 1
 325 11 273 -17 202 -17 c 0
 103 -17 54 47 54 150 c 2
 54 531 l 1
 212 531 l 1
 212 170 l 2
 212 116 230 100 263 100 c 0
 296 100 326 122 349 162 c 1
 349 531 l 1
 507 531 l 1
EndSplineSet
EndChar

StartChar: uni0170
Encoding: 368 368 303
Width: 651
Flags: W
LayerCount: 2
Fore
SplineSet
288 956 m 1
 388 899 l 1
 262 740 l 1
 192 778 l 1
 288 956 l 1
459 947 m 1
 556 885 l 1
 421 733 l 1
 354 775 l 1
 459 947 l 1
596 693 m 1
 596 230 l 2
 596 90 506 -17 325 -17 c 0
 144 -17 55 84 55 230 c 2
 55 693 l 1
 219 693 l 1
 219 237 l 2
 219 148 251 105 325 105 c 0
 400 105 432 148 432 237 c 2
 432 693 l 1
 596 693 l 1
EndSplineSet
EndChar

StartChar: uni0171
Encoding: 369 369 304
Width: 568
Flags: W
LayerCount: 2
Fore
SplineSet
261 827 m 1
 361 770 l 1
 235 601 l 1
 165 639 l 1
 261 827 l 1
432 818 m 1
 529 756 l 1
 394 594 l 1
 327 636 l 1
 432 818 l 1
507 531 m 1
 507 0 l 1
 370 0 l 1
 363 67 l 1
 325 11 273 -17 202 -17 c 0
 103 -17 54 47 54 150 c 2
 54 531 l 1
 212 531 l 1
 212 170 l 2
 212 116 230 100 263 100 c 0
 296 100 326 122 349 162 c 1
 349 531 l 1
 507 531 l 1
EndSplineSet
EndChar

StartChar: uni0172
Encoding: 370 370 305
Width: 651
Flags: W
LayerCount: 2
Fore
SplineSet
432 693 m 1
 596 693 l 1
 596 230 l 2
 596 122 543 34 436 -1 c 1
 340 -37 320 -74 320 -102 c 0
 320 -132 337 -148 373 -148 c 0
 393 -148 411 -145 434 -140 c 1
 423 -238 l 1
 402 -243 380 -246 353 -246 c 0
 268 -246 206 -201 206 -129 c 0
 206 -77 239 -40 290 -16 c 1
 132 -3 55 94 55 230 c 2
 55 693 l 1
 219 693 l 1
 219 237 l 2
 219 148 251 105 325 105 c 0
 400 105 432 148 432 237 c 2
 432 693 l 1
EndSplineSet
EndChar

StartChar: uni0173
Encoding: 371 371 306
Width: 568
Flags: W
LayerCount: 2
Fore
SplineSet
390 -102 m 0
 390 -132 407 -148 443 -148 c 0
 462 -148 481 -145 504 -140 c 1
 493 -238 l 1
 471 -243 449 -246 423 -246 c 0
 338 -246 276 -201 276 -129 c 0
 276 -69 311 -26 369 7 c 1
 363 67 l 1
 325 11 273 -17 202 -17 c 0
 103 -17 54 47 54 150 c 2
 54 531 l 1
 212 531 l 1
 212 170 l 2
 212 116 230 100 263 100 c 0
 296 100 326 122 349 162 c 1
 349 531 l 1
 507 531 l 1
 507 2 l 1
 508 0 l 1
 409 -37 390 -74 390 -102 c 0
EndSplineSet
EndChar

StartChar: uni0174
Encoding: 372 372 307
Width: 847
Flags: W
LayerCount: 2
Fore
SplineSet
292 755 m 1
 235 820 l 1
 377 949 l 1
 473 949 l 1
 614 820 l 1
 558 755 l 1
 425 839 l 1
 292 755 l 1
837 693 m 1
 721 0 l 1
 508 0 l 1
 422 529 l 1
 331 0 l 1
 123 0 l 1
 9 693 l 1
 173 693 l 1
 242 124 l 1
 338 693 l 1
 510 693 l 1
 600 124 l 1
 681 693 l 1
 837 693 l 1
EndSplineSet
EndChar

StartChar: uni0175
Encoding: 373 373 308
Width: 749
Flags: W
LayerCount: 2
Fore
SplineSet
241 620 m 1
 185 685 l 1
 326 822 l 1
 423 822 l 1
 564 685 l 1
 508 620 l 1
 375 712 l 1
 241 620 l 1
744 531 m 1
 634 0 l 1
 445 0 l 1
 374 390 l 1
 304 0 l 1
 117 0 l 1
 4 531 l 1
 164 531 l 1
 219 118 l 1
 302 531 l 1
 456 531 l 1
 529 118 l 1
 593 531 l 1
 744 531 l 1
EndSplineSet
EndChar

StartChar: uni0176
Encoding: 374 374 309
Width: 594
Flags: W
LayerCount: 2
Fore
SplineSet
164 755 m 1
 107 820 l 1
 249 949 l 1
 345 949 l 1
 486 820 l 1
 430 755 l 1
 297 839 l 1
 164 755 l 1
601 693 m 1
 379 260 l 1
 379 0 l 1
 215 0 l 1
 215 259 l 1
 -7 693 l 1
 172 693 l 1
 300 388 l 1
 428 693 l 1
 601 693 l 1
EndSplineSet
EndChar

StartChar: uni0177
Encoding: 375 375 310
Width: 518
Flags: W
LayerCount: 2
Fore
SplineSet
125 620 m 1
 69 685 l 1
 210 822 l 1
 307 822 l 1
 448 685 l 1
 392 620 l 1
 259 712 l 1
 125 620 l 1
524 531 m 1
 355 -1 l 2
 313 -135 223 -213 56 -222 c 1
 39 -111 l 1
 143 -98 181 -68 210 0 c 1
 156 0 l 1
 -6 531 l 1
 162 531 l 1
 257 101 l 1
 361 531 l 1
 524 531 l 1
EndSplineSet
EndChar

StartChar: uni0178
Encoding: 376 376 311
Width: 594
Flags: W
LayerCount: 2
Fore
SplineSet
179 925 m 0
 225 925 260 890 260 846 c 0
 260 802 225 767 179 767 c 0
 134 767 98 802 98 846 c 0
 98 890 134 925 179 925 c 0
410 925 m 0
 457 925 491 890 491 846 c 0
 491 802 457 767 410 767 c 0
 366 767 330 802 330 846 c 0
 330 890 366 925 410 925 c 0
601 693 m 1
 379 260 l 1
 379 0 l 1
 215 0 l 1
 215 259 l 1
 -7 693 l 1
 172 693 l 1
 300 388 l 1
 428 693 l 1
 601 693 l 1
EndSplineSet
EndChar

StartChar: uni0179
Encoding: 377 377 312
Width: 544
Flags: W
LayerCount: 2
Fore
SplineSet
357 956 m 1
 416 838 l 1
 176 751 l 1
 136 831 l 1
 357 956 l 1
512 693 m 1
 512 569 l 1
 211 131 l 1
 517 131 l 1
 501 0 l 1
 18 0 l 1
 18 123 l 1
 325 566 l 1
 49 566 l 1
 49 693 l 1
 512 693 l 1
EndSplineSet
EndChar

StartChar: uni017A
Encoding: 378 378 313
Width: 454
Flags: W
LayerCount: 2
Fore
SplineSet
305 835 m 1
 367 717 l 1
 131 622 l 1
 87 703 l 1
 305 835 l 1
436 531 m 1
 436 420 l 1
 196 120 l 1
 441 120 l 1
 427 0 l 1
 13 0 l 1
 13 112 l 1
 254 412 l 1
 34 412 l 1
 34 531 l 1
 436 531 l 1
EndSplineSet
EndChar

StartChar: uni017B
Encoding: 379 379 314
Width: 544
Flags: W
LayerCount: 2
Fore
SplineSet
276 937 m 0
 331 937 370 898 370 847 c 0
 370 796 331 757 276 757 c 0
 221 757 183 796 183 847 c 0
 183 898 221 937 276 937 c 0
512 693 m 1
 512 569 l 1
 211 131 l 1
 517 131 l 1
 501 0 l 1
 18 0 l 1
 18 123 l 1
 325 566 l 1
 49 566 l 1
 49 693 l 1
 512 693 l 1
EndSplineSet
EndChar

StartChar: uni017C
Encoding: 380 380 315
Width: 454
Flags: W
LayerCount: 2
Fore
SplineSet
232 811 m 0
 287 811 326 772 326 721 c 0
 326 670 287 631 232 631 c 0
 177 631 139 670 139 721 c 0
 139 772 177 811 232 811 c 0
436 531 m 1
 436 420 l 1
 196 120 l 1
 441 120 l 1
 427 0 l 1
 13 0 l 1
 13 112 l 1
 254 412 l 1
 34 412 l 1
 34 531 l 1
 436 531 l 1
EndSplineSet
EndChar

StartChar: uni017D
Encoding: 381 381 316
Width: 544
Flags: W
LayerCount: 2
Fore
SplineSet
410 944 m 1
 466 879 l 1
 325 750 l 1
 229 750 l 1
 87 879 l 1
 144 944 l 1
 277 860 l 1
 410 944 l 1
512 693 m 1
 512 569 l 1
 211 131 l 1
 517 131 l 1
 501 0 l 1
 18 0 l 1
 18 123 l 1
 325 566 l 1
 49 566 l 1
 49 693 l 1
 512 693 l 1
EndSplineSet
EndChar

StartChar: uni017E
Encoding: 382 382 317
Width: 454
Flags: W
LayerCount: 2
Fore
SplineSet
366 813 m 1
 422 748 l 1
 281 611 l 1
 185 611 l 1
 43 748 l 1
 100 813 l 1
 233 722 l 1
 366 813 l 1
436 531 m 1
 436 420 l 1
 196 120 l 1
 441 120 l 1
 427 0 l 1
 13 0 l 1
 13 112 l 1
 254 412 l 1
 34 412 l 1
 34 531 l 1
 436 531 l 1
EndSplineSet
EndChar

StartChar: uni017F
Encoding: 383 383 318
Width: 356
Flags: W
LayerCount: 2
Fore
SplineSet
286 759 m 0
 341 759 392 745 431 725 c 1
 388 622 l 1
 358 637 328 642 305 642 c 0
 259 642 241 622 241 572 c 2
 241 0 l 1
 83 0 l 1
 83 421 l 1
 3 421 l 1
 3 531 l 1
 83 531 l 1
 83 578 l 2
 83 680 150 759 286 759 c 0
EndSplineSet
EndChar

StartChar: uni0180
Encoding: 384 384 319
Width: 599
Flags: W
LayerCount: 2
Fore
SplineSet
371 548 m 0
 497 548 567 443 567 265 c 0
 567 101 488 -17 356 -17 c 0
 297 -17 250 9 217 50 c 1
 210 0 l 1
 69 0 l 1
 69 596 l 1
 8 596 l 1
 8 688 l 1
 69 688 l 1
 69 742 l 1
 227 759 l 1
 227 688 l 1
 360 688 l 1
 360 596 l 1
 227 596 l 1
 227 476 l 1
 258 520 311 548 371 548 c 0
310 98 m 0
 366 98 404 141 404 265 c 0
 404 400 368 432 317 432 c 0
 281 432 250 409 227 370 c 1
 227 150 l 1
 248 117 276 98 310 98 c 0
EndSplineSet
EndChar

StartChar: uni0181
Encoding: 385 385 320
Width: 758
Flags: W
LayerCount: 2
Fore
SplineSet
575 367 m 1
 653 352 732 314 732 202 c 0
 732 44 604 0 430 0 c 2
 206 0 l 1
 206 576 l 1
 178 576 l 2
 148 576 132 561 132 534 c 0
 132 512 139 492 149 469 c 1
 48 424 l 1
 25 458 4 497 4 544 c 0
 4 636 75 693 187 693 c 2
 403 693 l 2
 588 693 703 646 703 516 c 0
 703 428 639 382 575 367 c 1
418 577 m 2
 370 577 l 1
 370 416 l 1
 431 416 l 2
 499 416 536 442 536 500 c 0
 536 558 498 577 418 577 c 2
431 119 m 2
 508 119 562 135 562 211 c 0
 562 281 514 307 443 307 c 2
 370 307 l 1
 370 119 l 1
 431 119 l 2
EndSplineSet
EndChar

StartChar: uni0182
Encoding: 386 386 321
Width: 596
Flags: W
LayerCount: 2
Fore
SplineSet
303 446 m 2
 476 446 578 374 578 229 c 0
 578 73 464 0 306 0 c 2
 65 0 l 1
 65 693 l 1
 497 693 l 1
 480 569 l 1
 229 569 l 1
 229 446 l 1
 303 446 l 2
292 119 m 2
 365 119 407 152 407 227 c 0
 407 296 369 332 289 332 c 2
 229 332 l 1
 229 119 l 1
 292 119 l 2
EndSplineSet
EndChar

StartChar: uni0183
Encoding: 387 387 322
Width: 591
Flags: W
LayerCount: 2
Fore
SplineSet
359 536 m 0
 490 536 559 431 559 259 c 0
 559 101 480 -17 348 -17 c 0
 289 -17 241 9 209 51 c 1
 201 0 l 1
 61 0 l 1
 61 742 l 1
 437 742 l 1
 420 629 l 1
 219 629 l 1
 219 465 l 1
 251 508 304 536 359 536 c 0
303 98 m 0
 357 98 395 141 395 259 c 0
 395 387 359 420 309 420 c 0
 272 420 242 397 219 358 c 1
 219 149 l 1
 239 117 269 98 303 98 c 0
EndSplineSet
EndChar

StartChar: uni0184
Encoding: 388 388 323
Width: 615
Flags: W
LayerCount: 2
Fore
SplineSet
324 457 m 2
 497 457 600 385 600 235 c 0
 600 73 486 0 328 0 c 2
 86 0 l 1
 86 492 l 1
 11 542 l 1
 51 583 86 636 112 693 c 1
 250 693 l 1
 250 457 l 1
 324 457 l 2
314 119 m 2
 386 119 428 152 428 233 c 0
 428 307 391 343 310 343 c 2
 250 343 l 1
 250 119 l 1
 314 119 l 2
EndSplineSet
EndChar

StartChar: uni0185
Encoding: 389 389 324
Width: 541
Flags: W
LayerCount: 2
Fore
SplineSet
276 366 m 2
 452 366 524 301 524 182 c 0
 524 60 429 0 299 0 c 2
 80 0 l 1
 80 339 l 1
 5 390 l 1
 45 431 77 475 106 531 c 1
 238 531 l 1
 238 366 l 1
 276 366 l 2
282 104 m 2
 334 104 363 130 363 185 c 0
 363 237 341 265 274 265 c 2
 238 265 l 1
 238 104 l 1
 282 104 l 2
EndSplineSet
EndChar

StartChar: uni0186
Encoding: 390 390 325
Width: 575
Flags: W
LayerCount: 2
Fore
SplineSet
242 710 m 0
 421 710 542 580 542 348 c 0
 542 111 415 -17 228 -17 c 0
 129 -17 56 26 8 72 c 1
 81 165 l 1
 122 135 161 110 220 110 c 0
 309 110 370 175 370 348 c 0
 370 524 315 589 232 589 c 0
 178 589 136 570 95 539 c 1
 16 634 l 1
 76 682 145 710 242 710 c 0
EndSplineSet
EndChar

StartChar: uni0187
Encoding: 391 391 326
Width: 575
Flags: W
LayerCount: 2
Fore
SplineSet
590 851 m 0
 650 851 693 834 725 814 c 1
 679 716 l 1
 656 728 637 735 611 735 c 0
 577 735 559 716 559 673 c 2
 559 634 l 1
 489 550 l 1
 449 574 409 589 355 589 c 0
 267 589 205 518 205 348 c 0
 205 181 266 110 358 110 c 0
 413 110 453 137 493 168 c 1
 567 72 l 1
 522 26 446 -17 350 -17 c 0
 160 -17 33 111 33 348 c 0
 33 580 171 710 329 710 c 0
 365 710 395 704 420 694 c 1
 425 792 480 851 590 851 c 0
EndSplineSet
EndChar

StartChar: uni0188
Encoding: 392 392 327
Width: 479
Flags: W
LayerCount: 2
Fore
SplineSet
504 759 m 0
 564 759 608 741 639 721 c 1
 593 623 l 1
 570 635 551 642 525 642 c 0
 491 642 474 624 474 581 c 2
 474 483 l 1
 415 401 l 1
 384 417 352 427 307 427 c 0
 237 427 198 381 198 262 c 0
 198 144 240 108 303 108 c 0
 341 108 367 120 405 144 c 1
 474 46 l 1
 425 7 368 -17 295 -17 c 0
 132 -17 32 93 32 261 c 0
 32 430 134 548 273 548 c 0
 296 548 316 545 334 539 c 1
 334 588 l 2
 334 696 391 759 504 759 c 0
EndSplineSet
EndChar

StartChar: uni0189
Encoding: 393 393 328
Width: 665
Flags: W
LayerCount: 2
Fore
SplineSet
272 693 m 2
 457 693 632 636 632 350 c 0
 632 71 464 0 287 0 c 2
 78 0 l 1
 78 304 l 1
 14 304 l 1
 14 402 l 1
 78 402 l 1
 78 693 l 1
 272 693 l 2
297 119 m 2
 396 119 462 166 462 350 c 0
 462 536 391 574 295 574 c 2
 242 574 l 1
 242 402 l 1
 377 402 l 1
 377 304 l 1
 242 304 l 1
 242 119 l 1
 297 119 l 2
EndSplineSet
EndChar

StartChar: uni018A
Encoding: 394 394 329
Width: 793
Flags: W
LayerCount: 2
Fore
SplineSet
399 693 m 2
 585 693 760 636 760 350 c 0
 760 71 592 0 415 0 c 2
 206 0 l 1
 206 576 l 1
 178 576 l 2
 148 576 132 561 132 534 c 0
 132 512 139 492 149 469 c 1
 48 424 l 1
 25 458 4 497 4 544 c 0
 4 636 75 693 187 693 c 2
 399 693 l 2
425 119 m 2
 523 119 590 166 590 350 c 0
 590 536 519 574 423 574 c 2
 370 574 l 1
 370 119 l 1
 425 119 l 2
EndSplineSet
EndChar

StartChar: uni018B
Encoding: 395 395 330
Width: 596
Flags: W
LayerCount: 2
Fore
SplineSet
531 693 m 1
 531 0 l 1
 284 0 l 2
 129 0 18 67 18 223 c 0
 18 366 120 446 293 446 c 2
 367 446 l 1
 367 569 l 1
 105 569 l 1
 105 693 l 1
 531 693 l 1
303 119 m 2
 367 119 l 1
 367 332 l 1
 307 332 l 2
 227 332 189 295 189 223 c 0
 189 149 231 119 303 119 c 2
EndSplineSet
EndChar

StartChar: uni018C
Encoding: 396 396 331
Width: 594
Flags: W
LayerCount: 2
Fore
SplineSet
533 742 m 1
 533 0 l 1
 393 0 l 1
 385 62 l 1
 354 18 306 -17 234 -17 c 0
 99 -17 32 95 32 260 c 0
 32 418 115 536 252 536 c 0
 301 536 344 516 375 485 c 1
 375 629 l 1
 166 629 l 1
 166 742 l 1
 533 742 l 1
284 99 m 0
 321 99 350 119 375 159 c 1
 375 376 l 1
 351 404 328 421 293 421 c 0
 236 421 196 373 196 260 c 0
 196 134 232 99 284 99 c 0
EndSplineSet
EndChar

StartChar: uni018D
Encoding: 397 397 332
Width: 577
Flags: W
LayerCount: 2
Fore
SplineSet
392 74 m 1
 474 29 491 -14 491 -68 c 0
 491 -151 426 -223 277 -223 c 0
 193 -223 130 -196 86 -162 c 1
 158 -78 l 1
 192 -101 224 -113 266 -113 c 0
 319 -113 340 -92 340 -65 c 0
 340 -33 327 -18 239 17 c 0
 98 75 32 145 32 283 c 0
 32 442 131 548 289 548 c 0
 447 548 545 452 545 290 c 0
 545 192 490 120 392 74 c 1
196 283 m 0
 196 191 216 159 311 112 c 1
 365 157 383 209 383 284 c 0
 383 385 353 432 289 432 c 0
 228 432 196 386 196 283 c 0
EndSplineSet
EndChar

StartChar: uni018E
Encoding: 398 398 333
Width: 526
Flags: W
LayerCount: 2
Fore
SplineSet
41 693 m 1
 461 693 l 1
 461 0 l 1
 36 0 l 1
 36 118 l 1
 297 118 l 1
 297 295 l 1
 84 295 l 1
 84 410 l 1
 297 410 l 1
 297 576 l 1
 41 576 l 1
 41 693 l 1
EndSplineSet
EndChar

StartChar: uni018F
Encoding: 399 399 334
Width: 640
Flags: W
LayerCount: 2
Fore
SplineSet
309 710 m 0
 496 710 606 590 606 352 c 0
 606 107 491 -17 312 -17 c 0
 113 -17 23 121 23 338 c 0
 23 360 25 385 29 405 c 1
 440 405 l 1
 435 535 383 590 294 590 c 0
 225 590 178 564 136 533 c 1
 62 622 l 1
 130 680 207 710 309 710 c 0
311 103 m 0
 389 103 435 153 441 292 c 1
 181 292 l 1
 182 154 233 103 311 103 c 0
EndSplineSet
EndChar

StartChar: uni0190
Encoding: 400 400 335
Width: 541
Flags: W
LayerCount: 2
Fore
SplineSet
291 710 m 0
 386 710 459 679 523 618 c 1
 444 535 l 1
 401 573 357 591 310 591 c 0
 241 591 216 555 216 510 c 0
 216 456 253 424 319 424 c 2
 395 424 l 1
 375 306 l 1
 322 306 l 2
 238 306 198 268 198 205 c 0
 198 140 242 104 315 104 c 0
 371 104 413 125 456 166 c 1
 543 80 l 1
 485 18 405 -17 299 -17 c 0
 140 -17 26 66 26 195 c 0
 26 299 95 356 202 368 c 1
 98 389 47 449 47 528 c 0
 47 633 143 710 291 710 c 0
EndSplineSet
EndChar

StartChar: uni0191
Encoding: 401 401 336
Width: 487
Flags: W
LayerCount: 2
Fore
SplineSet
461 576 m 1
 229 576 l 1
 229 392 l 1
 431 392 l 1
 431 275 l 1
 229 275 l 1
 229 -31 l 2
 229 -159 148 -222 28 -222 c 0
 -37 -222 -81 -203 -113 -179 c 1
 -60 -82 l 1
 -36 -94 -20 -103 10 -103 c 0
 44 -103 65 -83 65 -42 c 2
 65 693 l 1
 478 693 l 1
 461 576 l 1
EndSplineSet
EndChar

StartChar: uni0192
Encoding: 402 402 337
Width: 372
Flags: W
LayerCount: 2
Fore
SplineSet
316 642 m 0
 262 642 246 622 246 572 c 2
 246 531 l 1
 372 531 l 1
 354 421 l 1
 246 421 l 1
 246 60 l 2
 246 -113 157 -176 33 -221 c 1
 -20 -106 l 1
 48 -75 88 -47 88 50 c 2
 88 421 l 1
 7 421 l 1
 7 531 l 1
 88 531 l 1
 88 578 l 2
 88 680 156 759 291 759 c 0
 352 759 404 745 446 725 c 1
 403 622 l 1
 369 637 342 642 316 642 c 0
EndSplineSet
EndChar

StartChar: uni0193
Encoding: 403 403 338
Width: 612
Flags: W
LayerCount: 2
Fore
SplineSet
627 851 m 0
 687 851 731 834 762 814 c 1
 716 716 l 1
 693 728 674 735 648 735 c 0
 614 735 596 716 596 673 c 2
 596 625 l 1
 519 545 l 1
 472 573 428 591 372 591 c 0
 275 591 203 519 203 347 c 0
 203 165 251 103 347 103 c 0
 381 103 412 110 441 126 c 1
 441 283 l 1
 351 283 l 1
 335 399 l 1
 600 399 l 1
 600 56 l 1
 529 10 439 -17 348 -17 c 0
 139 -17 33 110 33 347 c 0
 33 582 183 710 346 710 c 0
 390 710 427 702 457 689 c 1
 460 790 515 851 627 851 c 0
EndSplineSet
EndChar

StartChar: uni0194
Encoding: 404 404 339
Width: 570
Flags: W
LayerCount: 2
Fore
SplineSet
583 693 m 1
 372 92 l 1
 416 19 438 -35 438 -97 c 0
 438 -171 395 -222 287 -222 c 0
 182 -222 136 -172 136 -98 c 0
 136 -42 157 9 204 92 c 1
 -13 693 l 1
 160 693 l 1
 288 199 l 1
 415 693 l 1
 583 693 l 1
316 -87 m 0
 316 -60 304 -32 287 6 c 1
 270 -31 258 -62 258 -87 c 0
 258 -108 269 -119 287 -119 c 0
 306 -119 316 -107 316 -87 c 0
EndSplineSet
EndChar

StartChar: uni0195
Encoding: 405 405 340
Width: 869
Flags: W
LayerCount: 2
Fore
SplineSet
798 531 m 1
 813 450 827 359 827 248 c 0
 827 59 695 -17 568 -17 c 0
 456 -17 361 42 361 180 c 2
 361 361 l 2
 361 417 341 432 311 432 c 0
 276 432 246 407 219 364 c 1
 219 0 l 1
 61 0 l 1
 61 742 l 1
 219 758 l 1
 219 474 l 1
 262 523 309 548 372 548 c 0
 463 548 519 489 519 388 c 2
 519 183 l 2
 519 122 542 99 579 99 c 0
 622 99 669 138 669 261 c 0
 669 343 658 438 642 531 c 1
 798 531 l 1
EndSplineSet
EndChar

StartChar: uni0196
Encoding: 406 406 341
Width: 391
Flags: W
LayerCount: 2
Fore
SplineSet
343 123 m 1
 396 25 l 1
 365 2 320 -17 255 -17 c 0
 135 -17 55 46 55 173 c 2
 55 693 l 1
 219 693 l 1
 219 163 l 2
 219 122 239 102 273 102 c 0
 303 102 319 110 343 123 c 1
EndSplineSet
EndChar

StartChar: uni0197
Encoding: 407 407 342
Width: 330
Flags: W
LayerCount: 2
Fore
SplineSet
324 420 m 1
 324 299 l 1
 247 299 l 1
 247 0 l 1
 83 0 l 1
 83 299 l 1
 6 299 l 1
 6 420 l 1
 83 420 l 1
 83 693 l 1
 247 693 l 1
 247 420 l 1
 324 420 l 1
EndSplineSet
EndChar

StartChar: uni0198
Encoding: 408 408 343
Width: 653
Flags: W
LayerCount: 2
Fore
SplineSet
455 0 m 1
 234 370 l 1
 373 591 l 2
 425 677 468 710 553 710 c 0
 604 710 640 692 666 673 c 1
 622 579 l 1
 611 586 598 593 576 593 c 0
 549 593 534 585 506 541 c 2
 405 382 l 1
 645 0 l 1
 455 0 l 1
229 693 m 1
 229 0 l 1
 65 0 l 1
 65 693 l 1
 229 693 l 1
EndSplineSet
EndChar

StartChar: uni0199
Encoding: 409 409 344
Width: 551
Flags: W
LayerCount: 2
Fore
SplineSet
283 642 m 0
 237 642 219 622 219 572 c 2
 219 0 l 1
 61 0 l 1
 61 578 l 2
 61 680 128 759 264 759 c 0
 319 759 370 745 409 725 c 1
 366 624 l 1
 336 637 306 642 283 642 c 0
386 298 m 1
 560 0 l 1
 382 0 l 1
 224 290 l 1
 386 531 l 1
 547 531 l 1
 386 298 l 1
EndSplineSet
EndChar

StartChar: uni019A
Encoding: 410 410 345
Width: 335
Flags: W
LayerCount: 2
Fore
SplineSet
295 113 m 1
 326 1 l 1
 302 -9 268 -17 230 -17 c 0
 138 -17 84 38 84 135 c 2
 84 316 l 1
 6 316 l 1
 6 427 l 1
 84 427 l 1
 84 742 l 1
 242 759 l 1
 242 427 l 1
 324 427 l 1
 324 316 l 1
 242 316 l 1
 242 141 l 2
 242 119 250 108 269 108 c 0
 280 108 288 110 295 113 c 1
EndSplineSet
EndChar

StartChar: uni019B
Encoding: 411 411 346
Width: 529
Flags: W
LayerCount: 2
Fore
SplineSet
390 457 m 0
 443 229 476 129 547 33 c 1
 395 -17 l 1
 331 86 299 180 261 381 c 1
 164 -17 l 1
 8 19 l 1
 166 489 l 1
 244 489 l 1
 236 521 228 547 218 568 c 1
 161 520 l 1
 75 572 l 1
 148 636 l 1
 125 645 98 651 62 656 c 1
 81 758 l 1
 147 748 199 735 242 710 c 1
 314 770 l 1
 379 696 l 1
 315 644 l 1
 346 600 370 541 390 457 c 0
EndSplineSet
EndChar

StartChar: uni019C
Encoding: 412 412 347
Width: 915
Flags: W
LayerCount: 2
Fore
SplineSet
686 693 m 1
 850 693 l 1
 850 0 l 1
 707 0 l 1
 695 64 l 1
 648 8 601 -17 538 -17 c 0
 468 -17 417 18 391 75 c 1
 337 11 289 -17 222 -17 c 0
 116 -17 55 63 55 177 c 2
 55 693 l 1
 219 693 l 1
 219 185 l 2
 219 135 239 105 277 105 c 0
 312 105 338 131 370 172 c 1
 370 177 l 1
 370 693 l 1
 535 693 l 1
 535 185 l 2
 535 135 555 105 592 105 c 0
 630 105 655 126 686 173 c 1
 686 693 l 1
EndSplineSet
EndChar

StartChar: uni019D
Encoding: 413 413 348
Width: 663
Flags: W
LayerCount: 2
Fore
SplineSet
452 693 m 1
 599 693 l 1
 599 0 l 1
 390 0 l 1
 190 537 l 1
 198 474 211 382 211 254 c 2
 211 -32 l 2
 211 -159 136 -222 25 -222 c 0
 -39 -222 -84 -203 -116 -179 c 1
 -62 -85 l 1
 -39 -98 -22 -107 8 -107 c 0
 43 -107 65 -87 65 -46 c 2
 65 693 l 1
 269 693 l 1
 474 155 l 1
 465 211 452 302 452 413 c 2
 452 693 l 1
EndSplineSet
EndChar

StartChar: uni019E
Encoding: 414 414 349
Width: 575
Flags: W
LayerCount: 2
Fore
SplineSet
519 1 m 1
 520 1 l 1
 520 -222 l 1
 362 -205 l 1
 362 0 l 1
 361 0 l 1
 361 361 l 2
 361 417 342 432 311 432 c 0
 276 432 246 407 219 363 c 1
 219 0 l 1
 61 0 l 1
 61 531 l 1
 198 531 l 1
 210 467 l 1
 254 520 305 548 372 548 c 0
 464 548 519 489 519 388 c 2
 519 1 l 1
EndSplineSet
EndChar

StartChar: uni019F
Encoding: 415 415 350
Width: 691
Flags: W
LayerCount: 2
Fore
SplineSet
345 710 m 0
 541 710 658 578 658 347 c 0
 658 120 541 -17 345 -17 c 0
 150 -17 33 116 33 347 c 0
 33 573 150 710 345 710 c 0
345 590 m 0
 262 590 211 535 202 397 c 1
 489 397 l 1
 480 535 429 590 345 590 c 0
345 103 m 0
 431 103 482 160 490 305 c 1
 201 305 l 1
 209 160 263 103 345 103 c 0
EndSplineSet
EndChar

StartChar: uni01A0
Encoding: 416 416 351
Width: 715
Flags: W
LayerCount: 2
Fore
SplineSet
713 685 m 0
 713 616 675 576 611 563 c 1
 642 506 658 433 658 347 c 0
 658 120 541 -17 345 -17 c 0
 150 -17 33 116 33 347 c 0
 33 573 150 710 345 710 c 0
 432 710 504 684 557 634 c 1
 591 638 605 656 605 690 c 0
 605 720 599 738 592 758 c 1
 694 773 l 1
 704 754 713 727 713 685 c 0
345 103 m 0
 439 103 486 171 486 347 c 0
 486 522 438 590 345 590 c 0
 253 590 205 522 205 347 c 0
 205 171 255 103 345 103 c 0
EndSplineSet
EndChar

StartChar: uni01A1
Encoding: 417 417 352
Width: 625
Flags: W
LayerCount: 2
Fore
SplineSet
635 521 m 0
 635 451 596 411 529 399 c 1
 544 361 552 316 552 265 c 0
 552 95 454 -17 292 -17 c 0
 131 -17 32 87 32 266 c 0
 32 436 130 548 292 548 c 0
 374 548 439 521 484 472 c 1
 515 477 527 494 527 527 c 0
 527 556 522 574 515 594 c 1
 616 609 l 1
 626 590 635 563 635 521 c 0
292 99 m 0
 356 99 388 150 388 265 c 0
 388 383 356 432 292 432 c 0
 228 432 196 381 196 266 c 0
 196 148 228 99 292 99 c 0
EndSplineSet
EndChar

StartChar: uni01A2
Encoding: 418 418 353
Width: 960
Flags: W
LayerCount: 2
Fore
SplineSet
692 711 m 0
 817 711 896 646 896 519 c 2
 896 -210 l 1
 732 -210 l 1
 732 525 l 2
 732 575 710 596 672 596 c 0
 643 596 622 589 599 579 c 1
 637 520 658 442 658 347 c 0
 658 120 541 -17 345 -17 c 0
 150 -17 33 116 33 347 c 0
 33 573 150 710 345 710 c 0
 414 710 475 692 524 657 c 1
 574 691 626 711 692 711 c 0
345 103 m 0
 439 103 486 171 486 347 c 0
 486 522 438 590 345 590 c 0
 253 590 205 522 205 347 c 0
 205 171 255 103 345 103 c 0
EndSplineSet
EndChar

StartChar: uni01A3
Encoding: 419 419 354
Width: 828
Flags: W
LayerCount: 2
Fore
SplineSet
575 548 m 0
 693 548 767 483 767 357 c 2
 767 -222 l 1
 609 -205 l 1
 609 369 l 2
 609 415 589 433 552 433 c 0
 539 433 527 431 513 428 c 1
 538 384 552 329 552 265 c 0
 552 95 454 -17 292 -17 c 0
 131 -17 32 87 32 266 c 0
 32 436 130 548 292 548 c 0
 345 548 393 535 432 511 c 1
 476 536 518 548 575 548 c 0
292 99 m 0
 356 99 388 150 388 265 c 0
 388 383 356 432 292 432 c 0
 228 432 196 381 196 266 c 0
 196 148 228 99 292 99 c 0
EndSplineSet
EndChar

StartChar: uni01A4
Encoding: 420 420 355
Width: 744
Flags: W
LayerCount: 2
Fore
SplineSet
431 693 m 2
 610 693 720 619 720 467 c 0
 720 306 605 231 445 231 c 2
 370 231 l 1
 370 0 l 1
 206 0 l 1
 206 576 l 1
 178 576 l 2
 148 576 132 561 132 534 c 0
 132 512 139 492 149 469 c 1
 48 424 l 1
 25 458 4 497 4 544 c 0
 4 636 75 693 187 693 c 2
 431 693 l 2
431 349 m 2
 506 349 551 380 551 467 c 0
 551 541 509 576 428 576 c 2
 370 576 l 1
 370 349 l 1
 431 349 l 2
EndSplineSet
EndChar

StartChar: uni01A5
Encoding: 421 421 356
Width: 591
Flags: W
LayerCount: 2
Fore
SplineSet
358 548 m 0
 498 548 559 439 559 267 c 0
 559 103 479 -17 348 -17 c 0
 296 -17 252 1 219 38 c 1
 219 -205 l 1
 61 -222 l 1
 61 578 l 2
 61 680 128 759 264 759 c 0
 319 759 370 745 409 725 c 1
 366 624 l 1
 336 637 306 642 283 642 c 0
 237 642 219 622 219 572 c 2
 219 480 l 1
 261 530 313 548 358 548 c 0
299 99 m 0
 358 99 395 146 395 265 c 0
 395 397 363 432 308 432 c 0
 273 432 242 409 219 370 c 1
 219 146 l 1
 241 114 266 99 299 99 c 0
EndSplineSet
EndChar

StartChar: uni01A6
Encoding: 422 422 357
Width: 617
Flags: W
LayerCount: 2
Fore
SplineSet
435 -115 m 1
 293 150 l 1
 229 150 l 1
 229 0 l 1
 65 0 l 1
 65 693 l 1
 229 693 l 1
 229 579 l 1
 292 579 l 2
 480 579 577 512 577 368 c 0
 577 276 534 222 444 180 c 1
 620 -115 l 1
 435 -115 l 1
229 463 m 1
 229 264 l 1
 298 264 l 2
 370 264 408 295 408 368 c 0
 408 434 369 463 288 463 c 2
 229 463 l 1
EndSplineSet
EndChar

StartChar: uni01A7
Encoding: 423 423 358
Width: 563
Flags: W
LayerCount: 2
Fore
SplineSet
292 710 m 0
 438 710 537 633 537 514 c 0
 537 408 472 349 322 302 c 0
 221 271 195 239 195 190 c 0
 195 135 235 106 298 106 c 0
 363 106 421 132 471 173 c 1
 553 82 l 1
 494 27 406 -17 287 -17 c 0
 126 -17 24 73 24 199 c 0
 24 321 100 377 230 418 c 0
 338 453 367 476 367 523 c 0
 367 568 333 590 280 590 c 0
 219 590 171 571 123 533 c 1
 46 621 l 1
 112 679 191 710 292 710 c 0
EndSplineSet
EndChar

StartChar: uni01A8
Encoding: 424 424 359
Width: 471
Flags: W
LayerCount: 2
Fore
SplineSet
243 548 m 0
 372 548 448 477 448 386 c 0
 448 298 393 256 288 226 c 0
 195 199 179 182 179 148 c 0
 179 114 208 96 249 96 c 0
 299 96 348 117 388 147 c 1
 464 62 l 1
 412 15 335 -17 243 -17 c 0
 115 -17 16 48 16 155 c 0
 16 251 78 292 183 322 c 0
 275 348 289 364 289 394 c 0
 289 418 270 435 227 435 c 0
 179 435 135 420 94 395 c 1
 36 483 l 1
 92 523 160 548 243 548 c 0
EndSplineSet
EndChar

StartChar: uni01A9
Encoding: 425 425 360
Width: 503
Flags: W
LayerCount: 2
Fore
SplineSet
482 693 m 1
 482 574 l 1
 202 574 l 1
 370 374 l 1
 370 309 l 1
 201 122 l 1
 482 122 l 1
 482 0 l 1
 21 0 l 1
 21 119 l 1
 213 340 l 1
 21 574 l 1
 21 693 l 1
 482 693 l 1
EndSplineSet
EndChar

StartChar: uni01AA
Encoding: 426 426 361
Width: 403
Flags: W
LayerCount: 2
Fore
SplineSet
467 -87 m 1
 521 -179 l 1
 489 -203 445 -222 379 -222 c 0
 262 -222 183 -158 183 -31 c 2
 183 429 l 1
 166 423 145 418 121 418 c 0
 29 418 -37 485 -37 587 c 0
 -37 686 33 759 147 759 c 0
 269 759 341 686 341 573 c 2
 341 -46 l 2
 341 -87 362 -107 397 -107 c 0
 427 -107 444 -99 467 -87 c 1
150 527 m 0
 161 527 172 529 183 532 c 1
 183 596 l 2
 183 631 169 649 142 649 c 0
 114 649 100 629 100 590 c 0
 100 546 117 527 150 527 c 0
EndSplineSet
EndChar

StartChar: uni01AB
Encoding: 427 427 362
Width: 386
Flags: W
LayerCount: 2
Fore
SplineSet
350 110 m 1
 395 25 l 1
 395 -31 l 2
 395 -158 322 -221 202 -221 c 0
 138 -221 89 -202 57 -179 c 1
 110 -85 l 1
 135 -98 156 -106 192 -106 c 0
 233 -106 257 -88 257 -45 c 2
 257 -16 l 2
 254 -17 250 -17 247 -17 c 0
 135 -16 77 50 77 175 c 2
 77 421 l 1
 2 421 l 1
 2 531 l 1
 77 531 l 1
 77 646 l 1
 235 664 l 1
 235 531 l 1
 357 531 l 1
 340 421 l 1
 235 421 l 1
 235 166 l 2
 235 119 252 100 290 100 c 0
 309 100 325 103 350 110 c 1
EndSplineSet
EndChar

StartChar: uni01AC
Encoding: 428 428 363
Width: 595
Flags: W
LayerCount: 2
Fore
SplineSet
594 693 m 1
 577 567 l 1
 407 567 l 1
 407 0 l 1
 243 0 l 1
 243 567 l 1
 179 567 l 2
 149 567 133 552 133 527 c 0
 133 505 140 489 149 470 c 1
 41 424 l 1
 22 456 4 498 4 543 c 0
 4 637 76 693 194 693 c 2
 594 693 l 1
EndSplineSet
EndChar

StartChar: uni01AD
Encoding: 429 429 364
Width: 386
Flags: W
LayerCount: 2
Fore
SplineSet
342 126 m 1
 395 25 l 1
 355 -3 299 -17 251 -17 c 0
 134 -16 77 50 77 175 c 2
 77 421 l 1
 2 421 l 1
 2 531 l 1
 77 531 l 1
 77 576 l 2
 77 684 141 759 262 759 c 0
 320 759 363 741 394 721 c 1
 348 629 l 1
 325 641 306 649 283 649 c 0
 252 649 235 630 235 587 c 2
 235 531 l 1
 357 531 l 1
 340 421 l 1
 235 421 l 1
 235 177 l 2
 235 126 252 108 285 108 c 0
 303 108 321 113 342 126 c 1
EndSplineSet
EndChar

StartChar: uni01AE
Encoding: 430 430 365
Width: 542
Flags: W
LayerCount: 2
Fore
SplineSet
406 -103 m 0
 436 -103 453 -94 476 -82 c 1
 530 -179 l 1
 498 -203 454 -222 389 -222 c 0
 268 -222 188 -159 188 -31 c 2
 188 567 l 1
 9 567 l 1
 9 693 l 1
 539 693 l 1
 523 567 l 1
 352 567 l 1
 352 -42 l 2
 352 -83 372 -103 406 -103 c 0
EndSplineSet
EndChar

StartChar: uni01AF
Encoding: 431 431 366
Width: 725
Flags: W
LayerCount: 2
Fore
SplineSet
726 773 m 1
 736 754 745 727 745 685 c 0
 745 601 689 559 596 558 c 1
 596 230 l 2
 596 90 506 -17 325 -17 c 0
 144 -17 55 84 55 230 c 2
 55 693 l 1
 219 693 l 1
 219 237 l 2
 219 148 251 105 325 105 c 0
 400 105 432 148 432 237 c 2
 432 693 l 1
 596 693 l 1
 596 635 l 1
 626 641 637 658 637 690 c 0
 637 720 632 738 624 758 c 1
 726 773 l 1
EndSplineSet
EndChar

StartChar: uni01B0
Encoding: 432 432 367
Width: 643
Flags: W
LayerCount: 2
Fore
SplineSet
640 609 m 1
 650 590 659 563 659 521 c 0
 659 437 602 396 510 395 c 1
 507 418 l 1
 507 0 l 1
 370 0 l 1
 363 67 l 1
 325 11 273 -17 202 -17 c 0
 103 -17 54 47 54 150 c 2
 54 531 l 1
 212 531 l 1
 212 170 l 2
 212 116 230 100 263 100 c 0
 296 100 326 122 349 162 c 1
 349 531 l 1
 507 531 l 1
 507 472 l 1
 539 477 551 494 551 527 c 0
 551 556 545 574 538 594 c 1
 640 609 l 1
EndSplineSet
EndChar

StartChar: uni01B1
Encoding: 433 433 368
Width: 691
Flags: W
LayerCount: 2
Fore
SplineSet
345 -17 m 0
 148 -17 33 120 33 302 c 0
 33 440 88 521 165 576 c 1
 55 576 l 1
 55 693 l 1
 290 693 l 1
 290 582 l 1
 234 519 205 450 205 302 c 0
 205 171 252 103 345 103 c 0
 437 103 486 171 486 302 c 0
 486 450 454 519 401 582 c 1
 401 693 l 1
 637 693 l 1
 637 576 l 1
 526 576 l 1
 604 524 658 442 658 302 c 0
 658 122 540 -17 345 -17 c 0
EndSplineSet
EndChar

StartChar: uni01B2
Encoding: 434 434 369
Width: 651
Flags: W
LayerCount: 2
Fore
SplineSet
444 710 m 0
 540 710 596 659 596 544 c 2
 596 292 l 2
 596 98 480 -17 305 -17 c 0
 147 -17 55 81 55 214 c 2
 55 693 l 1
 219 693 l 1
 219 215 l 2
 219 146 250 105 309 105 c 0
 383 105 432 159 432 290 c 2
 432 552 l 2
 432 580 423 591 401 591 c 0
 391 591 382 589 374 586 c 1
 348 693 l 1
 375 704 404 710 444 710 c 0
EndSplineSet
EndChar

StartChar: uni01B3
Encoding: 435 435 370
Width: 633
Flags: W
LayerCount: 2
Fore
SplineSet
215 0 m 1
 215 259 l 1
 -7 693 l 1
 172 693 l 1
 300 388 l 1
 370 566 l 2
 408 670 458 710 552 710 c 0
 603 710 640 695 672 673 c 1
 627 579 l 1
 613 587 595 595 573 595 c 0
 542 595 526 582 507 540 c 2
 379 260 l 1
 379 0 l 1
 215 0 l 1
EndSplineSet
EndChar

StartChar: uni01B4
Encoding: 436 436 371
Width: 525
Flags: W
LayerCount: 2
Fore
SplineSet
56 -222 m 1
 39 -111 l 1
 143 -98 181 -68 210 0 c 1
 156 0 l 1
 -6 531 l 1
 162 531 l 1
 257 101 l 1
 329 437 l 2
 349 537 387 584 478 584 c 0
 511 584 537 578 561 569 c 1
 534 464 l 1
 526 467 517 469 507 469 c 0
 486 469 472 461 464 428 c 2
 366 26 l 2
 327 -140 223 -213 56 -222 c 1
EndSplineSet
EndChar

StartChar: uni01B5
Encoding: 437 437 372
Width: 544
Flags: W
LayerCount: 2
Fore
SplineSet
197 131 m 1
 517 131 l 1
 501 0 l 1
 18 0 l 1
 18 116 l 1
 146 296 l 1
 64 296 l 1
 64 399 l 1
 219 398 l 1
 339 566 l 1
 49 566 l 1
 49 693 l 1
 512 693 l 1
 512 575 l 1
 386 398 l 1
 387 398 l 1
 468 399 l 1
 468 296 l 1
 314 296 l 1
 197 131 l 1
EndSplineSet
EndChar

StartChar: uni01B6
Encoding: 438 438 373
Width: 454
Flags: W
LayerCount: 2
Fore
SplineSet
188 114 m 1
 441 114 l 1
 427 0 l 1
 13 0 l 1
 13 106 l 1
 110 227 l 1
 40 227 l 1
 40 319 l 1
 183 319 l 1
 262 418 l 1
 34 418 l 1
 34 531 l 1
 436 531 l 1
 436 426 l 1
 351 319 l 1
 412 319 l 1
 412 227 l 1
 278 227 l 1
 188 114 l 1
EndSplineSet
EndChar

StartChar: uni01B7
Encoding: 439 439 374
Width: 547
Flags: W
LayerCount: 2
Fore
SplineSet
307 403 m 1
 445 397 520 324 520 205 c 0
 520 81 420 -17 243 -17 c 0
 132 -17 58 21 4 85 c 1
 88 167 l 1
 134 124 174 105 235 105 c 0
 307 105 351 143 351 212 c 0
 351 281 303 308 226 308 c 2
 127 308 l 1
 127 400 l 1
 304 574 l 1
 43 574 l 1
 43 693 l 1
 485 693 l 1
 485 578 l 1
 307 403 l 1
EndSplineSet
EndChar

StartChar: uni01B8
Encoding: 440 440 375
Width: 547
Flags: W
LayerCount: 2
Fore
SplineSet
458 167 m 1
 543 85 l 1
 487 21 413 -17 296 -17 c 0
 128 -17 26 76 26 203 c 0
 26 318 108 397 240 403 c 1
 62 578 l 1
 62 693 l 1
 503 693 l 1
 503 574 l 1
 245 574 l 1
 420 398 l 1
 420 308 l 1
 320 308 l 2
 239 308 196 272 196 205 c 0
 196 143 237 105 305 105 c 0
 370 105 413 124 458 167 c 1
EndSplineSet
EndChar

StartChar: uni01B9
Encoding: 441 441 376
Width: 505
Flags: W
LayerCount: 2
Fore
SplineSet
436 -40 m 1
 517 -119 l 1
 463 -183 389 -222 279 -222 c 0
 113 -222 13 -124 13 3 c 0
 13 131 93 204 229 212 c 1
 45 423 l 1
 45 531 l 1
 477 531 l 1
 477 413 l 1
 221 413 l 1
 394 209 l 1
 394 120 l 1
 301 120 l 2
 218 120 176 86 176 12 c 0
 176 -63 221 -101 289 -101 c 0
 346 -101 387 -83 436 -40 c 1
EndSplineSet
EndChar

StartChar: uni01BA
Encoding: 442 442 377
Width: 509
Flags: W
LayerCount: 2
Fore
SplineSet
187 -222 m 1
 90 -192 27 -142 27 -70 c 0
 27 4 83 44 199 65 c 0
 287 80 324 97 324 139 c 0
 324 174 298 188 244 188 c 2
 112 188 l 1
 112 274 l 1
 269 419 l 1
 22 419 l 1
 22 531 l 1
 453 531 l 1
 453 429 l 1
 281 280 l 1
 307 280 l 2
 420 280 487 224 487 134 c 0
 487 23 396 -20 288 -38 c 0
 193 -54 174 -66 174 -88 c 0
 174 -106 192 -120 225 -135 c 1
 187 -222 l 1
EndSplineSet
EndChar

StartChar: uni01BB
Encoding: 443 443 378
Width: 517
Flags: W
LayerCount: 2
Fore
SplineSet
208 121 m 1
 485 121 l 1
 469 0 l 1
 29 0 l 1
 29 112 l 1
 79 162 121 203 156 239 c 1
 61 239 l 1
 61 344 l 1
 250 344 l 1
 295 401 309 438 309 481 c 0
 309 536 275 569 222 569 c 0
 173 569 139 547 99 499 c 1
 6 573 l 1
 60 644 137 690 238 690 c 0
 389 690 471 602 471 497 c 0
 471 445 458 400 420 344 c 1
 476 344 l 1
 476 239 l 1
 331 239 l 1
 298 205 257 166 208 121 c 1
EndSplineSet
EndChar

StartChar: uni01BC
Encoding: 444 444 379
Width: 543
Flags: W
LayerCount: 2
Fore
SplineSet
478 693 m 1
 461 580 l 1
 210 580 l 1
 210 430 l 1
 247 448 282 454 316 454 c 0
 426 454 510 374 510 228 c 0
 510 80 406 -17 241 -17 c 0
 140 -17 65 26 13 85 c 1
 101 167 l 1
 136 126 181 102 235 102 c 0
 306 102 348 144 348 228 c 0
 348 316 308 346 253 346 c 0
 224 346 200 339 166 322 c 1
 58 322 l 1
 58 693 l 1
 478 693 l 1
EndSplineSet
EndChar

StartChar: uni01BD
Encoding: 445 445 380
Width: 479
Flags: W
LayerCount: 2
Fore
SplineSet
419 531 m 1
 397 416 l 1
 200 416 l 1
 200 333 l 1
 220 342 245 348 282 348 c 0
 374 348 452 285 452 174 c 0
 452 59 358 -17 220 -17 c 0
 126 -17 68 15 18 64 c 1
 97 149 l 1
 140 117 167 101 215 101 c 0
 263 101 294 127 294 175 c 0
 294 223 266 242 231 242 c 0
 204 242 186 237 163 228 c 1
 60 228 l 1
 60 531 l 1
 419 531 l 1
EndSplineSet
EndChar

StartChar: uni01BE
Encoding: 446 446 381
Width: 512
Flags: W
LayerCount: 2
Fore
SplineSet
331 433 m 1
 417 407 480 345 480 222 c 0
 480 78 380 -17 232 -17 c 0
 140 -17 68 15 5 75 c 1
 83 155 l 1
 124 118 162 100 210 100 c 0
 277 100 317 143 317 223 c 0
 317 309 279 356 197 377 c 2
 141 389 l 1
 141 529 l 1
 71 529 l 1
 71 622 l 1
 141 622 l 1
 141 742 l 1
 299 758 l 1
 299 622 l 1
 396 622 l 1
 396 529 l 1
 299 529 l 1
 299 440 l 1
 331 433 l 1
EndSplineSet
EndChar

StartChar: uni01BF
Encoding: 447 447 382
Width: 591
Flags: W
LayerCount: 2
Fore
SplineSet
377 548 m 0
 481 548 559 474 559 352 c 0
 559 172 441 95 284 18 c 2
 219 -14 l 1
 219 -205 l 1
 61 -222 l 1
 61 531 l 1
 200 531 l 1
 209 467 l 1
 250 517 304 548 377 548 c 0
257 124 m 2
 344 180 395 249 395 350 c 0
 395 406 370 434 325 434 c 0
 282 434 248 414 219 383 c 1
 219 100 l 1
 257 124 l 2
EndSplineSet
EndChar

StartChar: uni01C0
Encoding: 448 448 383
Width: 266
Flags: W
LayerCount: 2
Fore
SplineSet
202 756 m 1
 202 0 l 1
 65 0 l 1
 65 742 l 1
 202 756 l 1
EndSplineSet
EndChar

StartChar: uni01C1
Encoding: 449 449 384
Width: 469
Flags: W
LayerCount: 2
Fore
SplineSet
202 756 m 1
 202 0 l 1
 65 0 l 1
 65 742 l 1
 202 756 l 1
405 756 m 1
 405 0 l 1
 268 0 l 1
 268 742 l 1
 405 756 l 1
EndSplineSet
EndChar

StartChar: uni01C2
Encoding: 450 450 385
Width: 330
Flags: W
LayerCount: 2
Fore
SplineSet
324 396 m 1
 234 396 l 1
 234 338 l 1
 324 338 l 1
 324 247 l 1
 234 247 l 1
 234 0 l 1
 97 0 l 1
 97 247 l 1
 6 247 l 1
 6 338 l 1
 97 338 l 1
 97 396 l 1
 6 396 l 1
 6 487 l 1
 97 487 l 1
 97 742 l 1
 234 756 l 1
 234 487 l 1
 324 487 l 1
 324 396 l 1
EndSplineSet
EndChar

StartChar: uni01C3
Encoding: 451 451 386
Width: 310
Flags: W
LayerCount: 2
Fore
SplineSet
223 756 m 1
 223 235 l 1
 86 235 l 1
 86 742 l 1
 223 756 l 1
155 164 m 0
 205 164 245 123 245 74 c 0
 245 24 205 -17 155 -17 c 0
 104 -17 65 24 65 74 c 0
 65 123 104 164 155 164 c 0
EndSplineSet
EndChar

StartChar: uni01C4
Encoding: 452 452 387
Width: 1170
Flags: W
LayerCount: 2
Fore
SplineSet
1036 944 m 1
 1092 879 l 1
 951 750 l 1
 854 750 l 1
 713 879 l 1
 770 944 l 1
 902 860 l 1
 1036 944 l 1
258 693 m 2
 443 693 618 636 618 350 c 0
 618 71 450 0 273 0 c 2
 65 0 l 1
 65 693 l 1
 258 693 l 2
1138 693 m 1
 1138 569 l 1
 837 131 l 1
 1143 131 l 1
 1127 0 l 1
 644 0 l 1
 644 123 l 1
 951 566 l 1
 675 566 l 1
 675 693 l 1
 1138 693 l 1
281 574 m 2
 229 574 l 1
 229 119 l 1
 283 119 l 2
 382 119 448 166 448 350 c 0
 448 536 377 574 281 574 c 2
EndSplineSet
EndChar

StartChar: uni01C5
Encoding: 453 453 388
Width: 1097
Flags: W
LayerCount: 2
Fore
SplineSet
1009 813 m 1
 1065 748 l 1
 924 611 l 1
 828 611 l 1
 686 748 l 1
 743 813 l 1
 876 722 l 1
 1009 813 l 1
258 693 m 2
 443 693 618 636 618 350 c 0
 618 71 450 0 273 0 c 2
 65 0 l 1
 65 693 l 1
 258 693 l 2
281 574 m 2
 229 574 l 1
 229 119 l 1
 283 119 l 2
 382 119 448 166 448 350 c 0
 448 536 377 574 281 574 c 2
1079 531 m 1
 1079 420 l 1
 839 120 l 1
 1084 120 l 1
 1070 0 l 1
 656 0 l 1
 656 112 l 1
 897 412 l 1
 677 412 l 1
 677 531 l 1
 1079 531 l 1
EndSplineSet
EndChar

StartChar: uni01C6
Encoding: 454 454 389
Width: 1048
Flags: W
LayerCount: 2
Fore
SplineSet
875 611 m 1
 779 611 l 1
 637 748 l 1
 694 813 l 1
 827 722 l 1
 960 813 l 1
 1016 748 l 1
 875 611 l 1
375 498 m 1
 375 759 l 1
 533 742 l 1
 533 0 l 1
 393 0 l 1
 385 62 l 1
 354 18 306 -17 234 -17 c 0
 99 -17 32 95 32 267 c 0
 32 431 118 548 249 548 c 0
 301 548 344 529 375 498 c 1
790 120 m 1
 1035 120 l 1
 1021 0 l 1
 607 0 l 1
 607 112 l 1
 848 412 l 1
 628 412 l 1
 628 531 l 1
 1030 531 l 1
 1030 420 l 1
 790 120 l 1
283 99 m 0
 321 99 350 119 375 159 c 1
 375 388 l 1
 351 416 327 433 292 433 c 0
 236 433 196 385 196 266 c 0
 196 134 232 99 283 99 c 0
EndSplineSet
EndChar

StartChar: uni01C7
Encoding: 455 455 390
Width: 807
Flags: W
LayerCount: 2
Fore
SplineSet
229 693 m 1
 229 130 l 1
 499 130 l 1
 482 0 l 1
 65 0 l 1
 65 693 l 1
 229 693 l 1
746 693 m 1
 746 105 l 2
 746 -70 640 -131 523 -169 c 1
 479 -53 l 1
 569 -18 582 29 582 111 c 2
 582 693 l 1
 746 693 l 1
EndSplineSet
EndChar

StartChar: uni01C8
Encoding: 456 456 391
Width: 783
Flags: W
LayerCount: 2
Fore
SplineSet
643 811 m 0
 698 811 737 772 737 721 c 0
 737 670 698 631 643 631 c 0
 588 631 550 670 550 721 c 0
 550 772 588 811 643 811 c 0
229 693 m 1
 229 130 l 1
 499 130 l 1
 482 0 l 1
 65 0 l 1
 65 693 l 1
 229 693 l 1
722 531 m 1
 722 60 l 2
 722 -113 633 -176 509 -221 c 1
 456 -106 l 1
 524 -75 564 -47 564 50 c 2
 564 531 l 1
 722 531 l 1
EndSplineSet
EndChar

StartChar: uni01C9
Encoding: 457 457 392
Width: 580
Flags: W
LayerCount: 2
Fore
SplineSet
440 811 m 0
 495 811 534 772 534 721 c 0
 534 670 495 631 440 631 c 0
 385 631 347 670 347 721 c 0
 347 772 385 811 440 811 c 0
200 -17 m 0
 108 -17 54 38 54 135 c 2
 54 742 l 1
 212 759 l 1
 212 141 l 2
 212 119 221 108 240 108 c 0
 250 108 259 110 266 113 c 1
 296 1 l 1
 273 -9 239 -17 200 -17 c 0
519 531 m 1
 519 60 l 2
 519 -113 430 -176 306 -221 c 1
 253 -106 l 1
 321 -75 361 -47 361 50 c 2
 361 531 l 1
 519 531 l 1
EndSplineSet
EndChar

StartChar: uni01CA
Encoding: 458 458 393
Width: 980
Flags: W
LayerCount: 2
Fore
SplineSet
599 693 m 1
 599 0 l 1
 390 0 l 1
 190 537 l 1
 198 474 211 382 211 254 c 2
 211 0 l 1
 65 0 l 1
 65 693 l 1
 269 693 l 1
 474 155 l 1
 465 211 452 302 452 413 c 2
 452 693 l 1
 599 693 l 1
919 693 m 1
 919 105 l 2
 919 -70 813 -131 696 -169 c 1
 652 -53 l 1
 742 -18 755 29 755 111 c 2
 755 693 l 1
 919 693 l 1
EndSplineSet
EndChar

StartChar: uni01CB
Encoding: 459 459 394
Width: 943
Flags: W
LayerCount: 2
Fore
SplineSet
803 811 m 0
 858 811 897 772 897 721 c 0
 897 670 858 631 803 631 c 0
 748 631 710 670 710 721 c 0
 710 772 748 811 803 811 c 0
599 693 m 1
 599 0 l 1
 390 0 l 1
 190 537 l 1
 198 474 211 382 211 254 c 2
 211 0 l 1
 65 0 l 1
 65 693 l 1
 269 693 l 1
 474 155 l 1
 465 211 452 302 452 413 c 2
 452 693 l 1
 599 693 l 1
882 531 m 1
 882 60 l 2
 882 -113 793 -176 669 -221 c 1
 616 -106 l 1
 684 -75 724 -47 724 50 c 2
 724 531 l 1
 882 531 l 1
EndSplineSet
EndChar

StartChar: uni01CC
Encoding: 460 460 395
Width: 853
Flags: W
LayerCount: 2
Fore
SplineSet
713 631 m 0
 658 631 620 670 620 721 c 0
 620 772 658 811 713 811 c 0
 768 811 807 772 807 721 c 0
 807 670 768 631 713 631 c 0
372 548 m 0
 464 548 519 489 519 388 c 2
 519 0 l 1
 361 0 l 1
 361 361 l 2
 361 417 342 432 311 432 c 0
 276 432 246 407 219 363 c 1
 219 0 l 1
 61 0 l 1
 61 531 l 1
 198 531 l 1
 210 467 l 1
 254 520 305 548 372 548 c 0
634 50 m 2
 634 531 l 1
 792 531 l 1
 792 60 l 2
 792 -113 703 -176 579 -221 c 1
 526 -106 l 1
 594 -75 634 -47 634 50 c 2
EndSplineSet
EndChar

StartChar: uni01CD
Encoding: 461 461 396
Width: 590
Flags: W
LayerCount: 2
Fore
SplineSet
344 750 m 1
 248 750 l 1
 106 879 l 1
 163 944 l 1
 296 860 l 1
 429 944 l 1
 485 879 l 1
 344 750 l 1
430 0 m 1
 394 149 l 1
 192 149 l 1
 157 0 l 1
 -13 0 l 1
 196 693 l 1
 395 693 l 1
 604 0 l 1
 430 0 l 1
220 268 m 1
 366 268 l 1
 293 574 l 1
 220 268 l 1
EndSplineSet
EndChar

StartChar: uni01CE
Encoding: 462 462 397
Width: 548
Flags: W
LayerCount: 2
Fore
SplineSet
319 611 m 1
 223 611 l 1
 81 748 l 1
 138 813 l 1
 271 722 l 1
 404 813 l 1
 460 748 l 1
 319 611 l 1
484 154 m 2
 484 113 495 98 520 89 c 1
 487 -14 l 1
 424 -9 383 10 359 63 c 1
 321 4 262 -17 199 -17 c 0
 93 -17 26 52 26 149 c 0
 26 265 114 328 275 328 c 2
 329 328 l 1
 329 351 l 2
 329 414 304 433 239 433 c 0
 205 433 153 423 100 405 c 1
 64 509 l 1
 131 534 204 548 264 548 c 0
 418 548 484 483 484 360 c 2
 484 154 l 2
245 96 m 0
 282 96 310 115 329 147 c 1
 329 241 l 1
 290 241 l 2
 218 241 183 216 183 163 c 0
 183 121 206 96 245 96 c 0
EndSplineSet
EndChar

StartChar: uni01CF
Encoding: 463 463 398
Width: 293
Flags: W
LayerCount: 2
Fore
SplineSet
280 944 m 1
 336 879 l 1
 195 750 l 1
 99 750 l 1
 -43 879 l 1
 14 944 l 1
 147 860 l 1
 280 944 l 1
229 693 m 1
 229 0 l 1
 65 0 l 1
 65 693 l 1
 229 693 l 1
EndSplineSet
EndChar

StartChar: uni01D0
Encoding: 464 464 399
Width: 280
Flags: W
LayerCount: 2
Fore
SplineSet
273 813 m 1
 329 748 l 1
 188 611 l 1
 92 611 l 1
 -50 748 l 1
 7 813 l 1
 140 722 l 1
 273 813 l 1
219 531 m 1
 219 0 l 1
 61 0 l 1
 61 531 l 1
 219 531 l 1
EndSplineSet
EndChar

StartChar: uni01D1
Encoding: 465 465 400
Width: 691
Flags: W
LayerCount: 2
Fore
SplineSet
479 944 m 1
 535 879 l 1
 394 750 l 1
 298 750 l 1
 156 879 l 1
 213 944 l 1
 346 860 l 1
 479 944 l 1
345 710 m 0
 541 710 658 578 658 347 c 0
 658 120 541 -17 345 -17 c 0
 150 -17 33 116 33 347 c 0
 33 573 150 710 345 710 c 0
345 590 m 0
 253 590 205 522 205 347 c 0
 205 171 255 103 345 103 c 0
 439 103 486 171 486 347 c 0
 486 522 438 590 345 590 c 0
EndSplineSet
EndChar

StartChar: uni01D2
Encoding: 466 466 401
Width: 584
Flags: W
LayerCount: 2
Fore
SplineSet
425 813 m 1
 481 748 l 1
 340 611 l 1
 244 611 l 1
 102 748 l 1
 159 813 l 1
 292 722 l 1
 425 813 l 1
292 548 m 0
 454 548 552 444 552 265 c 0
 552 95 454 -17 292 -17 c 0
 131 -17 32 87 32 266 c 0
 32 436 130 548 292 548 c 0
292 432 m 0
 228 432 196 381 196 266 c 0
 196 148 228 99 292 99 c 0
 356 99 388 150 388 265 c 0
 388 383 356 432 292 432 c 0
EndSplineSet
EndChar

StartChar: uni01D3
Encoding: 467 467 402
Width: 651
Flags: W
LayerCount: 2
Fore
SplineSet
459 944 m 1
 515 879 l 1
 374 750 l 1
 278 750 l 1
 136 879 l 1
 193 944 l 1
 326 860 l 1
 459 944 l 1
596 693 m 1
 596 230 l 2
 596 90 506 -17 325 -17 c 0
 144 -17 55 84 55 230 c 2
 55 693 l 1
 219 693 l 1
 219 237 l 2
 219 148 251 105 325 105 c 0
 400 105 432 148 432 237 c 2
 432 693 l 1
 596 693 l 1
EndSplineSet
EndChar

StartChar: uni01D4
Encoding: 468 468 403
Width: 568
Flags: W
LayerCount: 2
Fore
SplineSet
415 813 m 1
 471 748 l 1
 330 611 l 1
 234 611 l 1
 92 748 l 1
 149 813 l 1
 282 722 l 1
 415 813 l 1
507 531 m 1
 507 0 l 1
 370 0 l 1
 363 67 l 1
 325 11 273 -17 202 -17 c 0
 103 -17 54 47 54 150 c 2
 54 531 l 1
 212 531 l 1
 212 170 l 2
 212 116 230 100 263 100 c 0
 296 100 326 122 349 162 c 1
 349 531 l 1
 507 531 l 1
EndSplineSet
EndChar

StartChar: uni01D5
Encoding: 469 469 404
Width: 651
Flags: W
LayerCount: 2
Fore
SplineSet
480 940 m 1
 175 940 l 1
 175 1050 l 1
 480 1050 l 1
 480 940 l 1
209 904 m 0
 254 904 289 869 289 825 c 0
 289 780 254 745 209 745 c 0
 164 745 128 780 128 825 c 0
 128 869 164 904 209 904 c 0
440 904 m 0
 486 904 521 869 521 825 c 0
 521 780 486 745 440 745 c 0
 396 745 360 780 360 825 c 0
 360 869 396 904 440 904 c 0
596 693 m 1
 596 230 l 2
 596 90 506 -17 325 -17 c 0
 144 -17 55 84 55 230 c 2
 55 693 l 1
 219 693 l 1
 219 237 l 2
 219 148 251 105 325 105 c 0
 400 105 432 148 432 237 c 2
 432 693 l 1
 596 693 l 1
EndSplineSet
EndChar

StartChar: uni01D6
Encoding: 470 470 405
Width: 568
Flags: W
LayerCount: 2
Fore
SplineSet
432 801 m 1
 127 801 l 1
 127 910 l 1
 432 910 l 1
 432 801 l 1
164 760 m 0
 210 760 245 725 245 681 c 0
 245 637 210 602 164 602 c 0
 119 602 83 637 83 681 c 0
 83 725 119 760 164 760 c 0
395 760 m 0
 442 760 476 725 476 681 c 0
 476 637 442 602 395 602 c 0
 351 602 315 637 315 681 c 0
 315 725 351 760 395 760 c 0
507 531 m 1
 507 0 l 1
 370 0 l 1
 363 67 l 1
 325 11 273 -17 202 -17 c 0
 103 -17 54 47 54 150 c 2
 54 531 l 1
 212 531 l 1
 212 170 l 2
 212 116 230 100 263 100 c 0
 296 100 326 122 349 162 c 1
 349 531 l 1
 507 531 l 1
EndSplineSet
EndChar

StartChar: uni01D7
Encoding: 471 471 406
Width: 651
Flags: W
LayerCount: 2
Fore
SplineSet
396 1097 m 1
 482 1013 l 1
 324 872 l 1
 265 926 l 1
 396 1097 l 1
203 906 m 0
 247 906 284 871 284 827 c 0
 284 783 247 748 203 748 c 0
 157 748 122 783 122 827 c 0
 122 871 157 906 203 906 c 0
447 906 m 0
 492 906 528 871 528 827 c 0
 528 783 492 748 447 748 c 0
 401 748 366 783 366 827 c 0
 366 871 401 906 447 906 c 0
596 693 m 1
 596 230 l 2
 596 90 506 -17 325 -17 c 0
 144 -17 55 84 55 230 c 2
 55 693 l 1
 219 693 l 1
 219 237 l 2
 219 148 251 105 325 105 c 0
 400 105 432 148 432 237 c 2
 432 693 l 1
 596 693 l 1
EndSplineSet
EndChar

StartChar: uni01D8
Encoding: 472 472 407
Width: 568
Flags: W
LayerCount: 2
Fore
SplineSet
352 950 m 1
 438 866 l 1
 280 725 l 1
 221 779 l 1
 352 950 l 1
159 759 m 0
 203 759 240 724 240 680 c 0
 240 636 203 601 159 601 c 0
 113 601 78 636 78 680 c 0
 78 724 113 759 159 759 c 0
403 759 m 0
 448 759 484 724 484 680 c 0
 484 636 448 601 403 601 c 0
 357 601 322 636 322 680 c 0
 322 724 357 759 403 759 c 0
507 531 m 1
 507 0 l 1
 370 0 l 1
 363 67 l 1
 325 11 273 -17 202 -17 c 0
 103 -17 54 47 54 150 c 2
 54 531 l 1
 212 531 l 1
 212 170 l 2
 212 116 230 100 263 100 c 0
 296 100 326 122 349 162 c 1
 349 531 l 1
 507 531 l 1
EndSplineSet
EndChar

StartChar: uni01D9
Encoding: 473 473 408
Width: 651
Flags: W
LayerCount: 2
Fore
SplineSet
457 1099 m 1
 513 1035 l 1
 372 905 l 1
 275 905 l 1
 134 1035 l 1
 191 1099 l 1
 323 1015 l 1
 457 1099 l 1
203 906 m 0
 248 906 284 871 284 827 c 0
 284 783 248 748 203 748 c 0
 157 748 122 783 122 827 c 0
 122 871 157 906 203 906 c 0
447 906 m 0
 492 906 528 871 528 827 c 0
 528 783 492 748 447 748 c 0
 401 748 367 783 367 827 c 0
 367 871 401 906 447 906 c 0
596 693 m 1
 596 230 l 2
 596 90 506 -17 325 -17 c 0
 144 -17 55 84 55 230 c 2
 55 693 l 1
 219 693 l 1
 219 237 l 2
 219 148 251 105 325 105 c 0
 400 105 432 148 432 237 c 2
 432 693 l 1
 596 693 l 1
EndSplineSet
EndChar

StartChar: uni01DA
Encoding: 474 474 409
Width: 568
Flags: W
LayerCount: 2
Fore
SplineSet
415 953 m 1
 471 888 l 1
 330 758 l 1
 234 758 l 1
 92 888 l 1
 149 953 l 1
 282 868 l 1
 415 953 l 1
160 759 m 0
 205 759 240 724 240 680 c 0
 240 636 205 601 160 601 c 0
 115 601 79 636 79 680 c 0
 79 724 115 759 160 759 c 0
403 759 m 0
 449 759 484 724 484 680 c 0
 484 636 449 601 403 601 c 0
 359 601 323 636 323 680 c 0
 323 724 359 759 403 759 c 0
507 531 m 1
 507 0 l 1
 370 0 l 1
 363 67 l 1
 325 11 273 -17 202 -17 c 0
 103 -17 54 47 54 150 c 2
 54 531 l 1
 212 531 l 1
 212 170 l 2
 212 116 230 100 263 100 c 0
 296 100 326 122 349 162 c 1
 349 531 l 1
 507 531 l 1
EndSplineSet
EndChar

StartChar: uni01DB
Encoding: 475 475 410
Width: 651
Flags: W
LayerCount: 2
Fore
SplineSet
256 1097 m 1
 388 926 l 1
 328 872 l 1
 170 1013 l 1
 256 1097 l 1
203 906 m 0
 249 906 284 871 284 827 c 0
 284 783 249 748 203 748 c 0
 158 748 122 783 122 827 c 0
 122 871 158 906 203 906 c 0
447 906 m 0
 493 906 528 871 528 827 c 0
 528 783 493 748 447 748 c 0
 402 748 366 783 366 827 c 0
 366 871 402 906 447 906 c 0
596 693 m 1
 596 230 l 2
 596 90 506 -17 325 -17 c 0
 144 -17 55 84 55 230 c 2
 55 693 l 1
 219 693 l 1
 219 237 l 2
 219 148 251 105 325 105 c 0
 400 105 432 148 432 237 c 2
 432 693 l 1
 596 693 l 1
EndSplineSet
EndChar

StartChar: uni01DC
Encoding: 476 476 411
Width: 568
Flags: W
LayerCount: 2
Fore
SplineSet
212 950 m 1
 344 779 l 1
 284 725 l 1
 126 866 l 1
 212 950 l 1
159 759 m 0
 205 759 240 724 240 680 c 0
 240 636 205 601 159 601 c 0
 114 601 78 636 78 680 c 0
 78 724 114 759 159 759 c 0
403 759 m 0
 449 759 484 724 484 680 c 0
 484 636 449 601 403 601 c 0
 358 601 322 636 322 680 c 0
 322 724 358 759 403 759 c 0
507 531 m 1
 507 0 l 1
 370 0 l 1
 363 67 l 1
 325 11 273 -17 202 -17 c 0
 103 -17 54 47 54 150 c 2
 54 531 l 1
 212 531 l 1
 212 170 l 2
 212 116 230 100 263 100 c 0
 296 100 326 122 349 162 c 1
 349 531 l 1
 507 531 l 1
EndSplineSet
EndChar

StartChar: uni01DD
Encoding: 477 477 412
Width: 557
Flags: W
LayerCount: 2
Fore
SplineSet
270 548 m 0
 446 548 525 433 525 266 c 0
 525 105 437 -17 274 -17 c 0
 126 -17 29 83 29 255 c 0
 29 272 30 295 32 312 c 1
 372 312 l 1
 367 398 330 436 265 436 c 0
 217 436 177 424 130 392 c 1
 65 480 l 1
 117 522 182 548 270 548 c 0
274 95 m 0
 333 95 367 127 372 217 c 1
 178 217 l 1
 178 210 l 2
 179 139 212 95 274 95 c 0
EndSplineSet
EndChar

StartChar: uni01DE
Encoding: 478 478 413
Width: 590
Flags: W
LayerCount: 2
Fore
SplineSet
451 1050 m 1
 451 940 l 1
 146 940 l 1
 146 1050 l 1
 451 1050 l 1
180 745 m 0
 135 745 99 780 99 825 c 0
 99 869 135 904 180 904 c 0
 225 904 260 869 260 825 c 0
 260 780 225 745 180 745 c 0
331 825 m 0
 331 869 367 904 411 904 c 0
 457 904 492 869 492 825 c 0
 492 780 457 745 411 745 c 0
 367 745 331 780 331 825 c 0
430 0 m 1
 394 149 l 1
 192 149 l 1
 157 0 l 1
 -13 0 l 1
 196 693 l 1
 395 693 l 1
 604 0 l 1
 430 0 l 1
220 268 m 1
 366 268 l 1
 293 574 l 1
 220 268 l 1
EndSplineSet
EndChar

StartChar: uni01DF
Encoding: 479 479 414
Width: 548
Flags: W
LayerCount: 2
Fore
SplineSet
422 910 m 1
 422 801 l 1
 117 801 l 1
 117 910 l 1
 422 910 l 1
154 602 m 0
 109 602 73 637 73 681 c 0
 73 725 109 760 154 760 c 0
 200 760 235 725 235 681 c 0
 235 637 200 602 154 602 c 0
305 681 m 0
 305 725 341 760 385 760 c 0
 432 760 466 725 466 681 c 0
 466 637 432 602 385 602 c 0
 341 602 305 637 305 681 c 0
484 154 m 2
 484 113 495 98 520 89 c 1
 487 -14 l 1
 424 -9 383 10 359 63 c 1
 321 4 262 -17 199 -17 c 0
 93 -17 26 52 26 149 c 0
 26 265 114 328 275 328 c 2
 329 328 l 1
 329 351 l 2
 329 414 304 433 239 433 c 0
 205 433 153 423 100 405 c 1
 64 509 l 1
 131 534 204 548 264 548 c 0
 418 548 484 483 484 360 c 2
 484 154 l 2
245 96 m 0
 282 96 310 115 329 147 c 1
 329 241 l 1
 290 241 l 2
 218 241 183 216 183 163 c 0
 183 121 206 96 245 96 c 0
EndSplineSet
EndChar

StartChar: uni01E0
Encoding: 480 480 415
Width: 590
Flags: W
LayerCount: 2
Fore
SplineSet
448 1050 m 1
 448 941 l 1
 143 941 l 1
 143 1050 l 1
 448 1050 l 1
201 825 m 0
 201 876 239 915 294 915 c 0
 349 915 387 876 387 825 c 0
 387 775 349 736 294 736 c 0
 239 736 201 775 201 825 c 0
430 0 m 1
 394 149 l 1
 192 149 l 1
 157 0 l 1
 -13 0 l 1
 196 693 l 1
 395 693 l 1
 604 0 l 1
 430 0 l 1
220 268 m 1
 366 268 l 1
 293 574 l 1
 220 268 l 1
EndSplineSet
EndChar

StartChar: uni01E1
Encoding: 481 481 416
Width: 548
Flags: W
LayerCount: 2
Fore
SplineSet
423 913 m 1
 423 803 l 1
 118 803 l 1
 118 913 l 1
 423 913 l 1
177 683 m 0
 177 734 215 773 270 773 c 0
 325 773 364 734 364 683 c 0
 364 633 325 594 270 594 c 0
 215 594 177 633 177 683 c 0
484 154 m 2
 484 113 495 98 520 89 c 1
 487 -14 l 1
 424 -9 383 10 359 63 c 1
 321 4 262 -17 199 -17 c 0
 93 -17 26 52 26 149 c 0
 26 265 114 328 275 328 c 2
 329 328 l 1
 329 351 l 2
 329 414 304 433 239 433 c 0
 205 433 153 423 100 405 c 1
 64 509 l 1
 131 534 204 548 264 548 c 0
 418 548 484 483 484 360 c 2
 484 154 l 2
245 96 m 0
 282 96 310 115 329 147 c 1
 329 241 l 1
 290 241 l 2
 218 241 183 216 183 163 c 0
 183 121 206 96 245 96 c 0
EndSplineSet
EndChar

StartChar: uni01E2
Encoding: 482 482 417
Width: 845
Flags: W
LayerCount: 2
Fore
SplineSet
635 891 m 1
 635 781 l 1
 330 781 l 1
 330 891 l 1
 635 891 l 1
582 118 m 1
 812 118 l 1
 812 0 l 1
 444 0 l 1
 418 149 l 1
 203 149 l 1
 153 0 l 1
 -23 0 l 1
 249 693 l 1
 775 693 l 1
 758 576 l 1
 488 576 l 1
 522 408 l 1
 766 408 l 1
 766 293 l 1
 546 293 l 1
 582 118 l 1
243 268 m 1
 398 268 l 1
 345 573 l 1
 243 268 l 1
EndSplineSet
EndChar

StartChar: uni01E3
Encoding: 483 483 418
Width: 857
Flags: W
LayerCount: 2
Fore
SplineSet
581 765 m 1
 581 655 l 1
 276 655 l 1
 276 765 l 1
 581 765 l 1
828 276 m 0
 828 259 827 235 825 219 c 1
 496 219 l 1
 506 124 551 98 617 98 c 0
 660 98 698 113 744 145 c 1
 809 57 l 1
 756 15 688 -17 602 -17 c 0
 506 -17 435 18 391 74 c 1
 343 6 277 -17 203 -17 c 0
 93 -17 26 52 26 149 c 0
 26 265 116 328 281 328 c 2
 335 328 l 1
 335 350 l 2
 335 412 310 432 245 432 c 0
 211 432 159 422 106 404 c 1
 70 509 l 1
 137 534 210 548 270 548 c 0
 351 548 401 522 433 481 c 1
 472 522 524 548 595 548 c 0
 734 548 828 448 828 276 c 0
672 314 m 1
 672 321 l 2
 672 393 649 443 586 443 c 0
 534 443 503 409 496 314 c 1
 672 314 l 1
253 96 m 0
 293 96 321 120 348 160 c 1
 341 183 338 208 337 234 c 2
 337 238 l 1
 297 238 l 2
 227 238 193 215 193 160 c 0
 193 120 214 96 253 96 c 0
EndSplineSet
EndChar

StartChar: uni01E4
Encoding: 484 484 419
Width: 665
Flags: W
LayerCount: 2
Fore
SplineSet
663 271 m 1
 663 176 l 1
 600 176 l 1
 600 56 l 1
 529 10 439 -17 350 -17 c 0
 139 -17 33 110 33 347 c 0
 33 582 180 710 364 710 c 0
 466 710 538 675 596 625 c 1
 514 538 l 1
 466 574 428 591 372 591 c 0
 275 591 203 519 203 347 c 0
 203 165 251 103 347 103 c 0
 384 103 417 110 453 125 c 1
 453 176 l 1
 345 176 l 1
 345 271 l 1
 453 271 l 1
 453 314 l 1
 349 314 l 1
 335 414 l 1
 600 414 l 1
 600 271 l 1
 663 271 l 1
EndSplineSet
EndChar

StartChar: uni01E5
Encoding: 485 485 420
Width: 551
Flags: W
LayerCount: 2
Fore
SplineSet
587 -23 m 1
 587 -84 l 1
 534 -84 l 1
 513 -170 420 -222 260 -222 c 0
 59 -222 6 -156 6 -51 c 1
 148 -51 l 1
 148 -104 168 -123 264 -123 c 0
 340 -123 379 -111 394 -84 c 1
 268 -84 l 1
 268 -23 l 1
 393 -23 l 1
 380 -1 348 10 303 10 c 2
 226 10 l 2
 110 10 63 53 63 105 c 0
 63 145 88 178 126 202 c 1
 58 238 31 285 31 354 c 0
 31 474 125 548 264 548 c 0
 382 545 450 579 514 617 c 1
 551 500 l 1
 514 485 465 479 398 479 c 1
 465 450 498 411 498 342 c 0
 498 239 413 164 275 164 c 0
 253 164 233 166 214 170 c 1
 203 164 197 152 197 140 c 0
 197 124 204 111 255 111 c 2
 335 111 l 2
 448 111 524 57 536 -23 c 1
 587 -23 l 1
268 444 m 0
 219 444 188 411 188 356 c 0
 188 298 220 266 268 266 c 0
 320 266 348 297 348 358 c 0
 348 417 321 444 268 444 c 0
EndSplineSet
EndChar

StartChar: uni01E6
Encoding: 486 486 421
Width: 645
Flags: W
LayerCount: 2
Fore
SplineSet
485 944 m 1
 541 879 l 1
 400 750 l 1
 304 750 l 1
 162 879 l 1
 219 944 l 1
 352 860 l 1
 485 944 l 1
365 710 m 0
 466 710 539 675 596 625 c 1
 513 538 l 1
 466 574 428 591 372 591 c 0
 275 591 203 519 203 347 c 0
 203 165 251 103 347 103 c 0
 381 103 412 110 441 126 c 1
 441 283 l 1
 351 283 l 1
 335 399 l 1
 600 399 l 1
 600 56 l 1
 528 10 438 -17 351 -17 c 0
 139 -17 33 110 33 347 c 0
 33 582 179 710 365 710 c 0
EndSplineSet
EndChar

StartChar: uni01E7
Encoding: 487 487 422
Width: 551
Flags: W
LayerCount: 2
Fore
SplineSet
409 813 m 1
 465 748 l 1
 324 611 l 1
 228 611 l 1
 86 748 l 1
 143 813 l 1
 276 722 l 1
 409 813 l 1
514 617 m 1
 551 500 l 1
 514 485 465 479 398 479 c 1
 465 450 498 411 498 342 c 0
 498 239 413 164 275 164 c 0
 253 164 233 166 214 170 c 1
 203 164 197 152 197 140 c 0
 197 124 204 108 255 108 c 2
 335 108 l 2
 459 108 538 43 538 -46 c 0
 538 -155 442 -222 260 -222 c 0
 59 -222 6 -156 6 -51 c 1
 148 -51 l 1
 148 -97 168 -117 264 -117 c 0
 357 -117 379 -91 379 -57 c 0
 379 -26 356 -5 303 -5 c 2
 226 -5 l 2
 110 -5 63 43 63 100 c 0
 63 139 88 178 126 202 c 1
 58 238 31 285 31 354 c 0
 31 474 125 548 264 548 c 0
 382 545 450 579 514 617 c 1
268 444 m 0
 219 444 188 411 188 356 c 0
 188 298 220 266 268 266 c 0
 320 266 348 297 348 358 c 0
 348 417 321 444 268 444 c 0
EndSplineSet
EndChar

StartChar: uni01E8
Encoding: 488 488 423
Width: 633
Flags: W
LayerCount: 2
Fore
SplineSet
463 944 m 1
 519 879 l 1
 378 750 l 1
 282 750 l 1
 140 879 l 1
 197 944 l 1
 330 860 l 1
 463 944 l 1
229 693 m 1
 229 0 l 1
 65 0 l 1
 65 693 l 1
 229 693 l 1
627 693 m 1
 406 382 l 1
 645 0 l 1
 455 0 l 1
 234 370 l 1
 454 693 l 1
 627 693 l 1
EndSplineSet
EndChar

StartChar: uni01E9
Encoding: 489 489 424
Width: 551
Flags: W
LayerCount: 2
Fore
SplineSet
429 993 m 1
 485 928 l 1
 344 799 l 1
 248 799 l 1
 106 928 l 1
 163 993 l 1
 296 909 l 1
 429 993 l 1
219 759 m 1
 219 0 l 1
 61 0 l 1
 61 742 l 1
 219 759 l 1
547 531 m 1
 386 298 l 1
 560 0 l 1
 382 0 l 1
 224 290 l 1
 386 531 l 1
 547 531 l 1
EndSplineSet
EndChar

StartChar: uni01EA
Encoding: 490 490 425
Width: 691
Flags: W
LayerCount: 2
Fore
SplineSet
658 347 m 0
 658 167 585 44 457 0 c 0
 358 -37 339 -74 339 -102 c 0
 339 -132 356 -148 392 -148 c 0
 411 -148 430 -145 453 -140 c 1
 442 -238 l 1
 420 -243 398 -246 372 -246 c 0
 287 -246 225 -201 225 -129 c 0
 225 -80 248 -42 288 -13 c 1
 127 11 33 140 33 347 c 0
 33 573 150 710 345 710 c 0
 541 710 658 578 658 347 c 0
345 103 m 0
 439 103 486 171 486 347 c 0
 486 522 438 590 345 590 c 0
 253 590 205 522 205 347 c 0
 205 171 255 103 345 103 c 0
EndSplineSet
EndChar

StartChar: uni01EB
Encoding: 491 491 426
Width: 584
Flags: W
LayerCount: 2
Fore
SplineSet
383 -3 m 1
 292 -39 274 -75 274 -102 c 0
 274 -132 291 -148 327 -148 c 0
 346 -148 365 -145 388 -140 c 1
 377 -238 l 1
 355 -243 333 -246 307 -246 c 0
 222 -246 160 -201 160 -129 c 0
 160 -79 184 -40 226 -11 c 1
 104 15 32 113 32 266 c 0
 32 436 130 548 292 548 c 0
 454 548 552 444 552 265 c 0
 552 130 490 31 383 -3 c 1
292 432 m 0
 228 432 196 381 196 266 c 0
 196 148 228 99 292 99 c 0
 356 99 388 150 388 265 c 0
 388 383 356 432 292 432 c 0
EndSplineSet
EndChar

StartChar: uni01EC
Encoding: 492 492 427
Width: 691
Flags: W
LayerCount: 2
Fore
SplineSet
497 891 m 1
 497 781 l 1
 192 781 l 1
 192 891 l 1
 497 891 l 1
658 347 m 0
 658 167 585 44 457 0 c 0
 358 -37 339 -74 339 -102 c 0
 339 -132 356 -148 392 -148 c 0
 411 -148 430 -145 453 -140 c 1
 442 -238 l 1
 420 -243 398 -246 372 -246 c 0
 287 -246 225 -201 225 -129 c 0
 225 -80 248 -42 288 -13 c 1
 127 11 33 140 33 347 c 0
 33 573 150 710 345 710 c 0
 541 710 658 578 658 347 c 0
345 103 m 0
 439 103 486 171 486 347 c 0
 486 522 438 590 345 590 c 0
 253 590 205 522 205 347 c 0
 205 171 255 103 345 103 c 0
EndSplineSet
EndChar

StartChar: uni01ED
Encoding: 493 493 428
Width: 584
Flags: W
LayerCount: 2
Fore
SplineSet
444 765 m 1
 444 655 l 1
 139 655 l 1
 139 765 l 1
 444 765 l 1
383 -3 m 1
 292 -39 274 -75 274 -102 c 0
 274 -132 291 -148 327 -148 c 0
 346 -148 365 -145 388 -140 c 1
 377 -238 l 1
 355 -243 333 -246 307 -246 c 0
 222 -246 160 -201 160 -129 c 0
 160 -79 184 -40 226 -11 c 1
 104 15 32 113 32 266 c 0
 32 436 130 548 292 548 c 0
 454 548 552 444 552 265 c 0
 552 130 490 31 383 -3 c 1
292 432 m 0
 228 432 196 381 196 266 c 0
 196 148 228 99 292 99 c 0
 356 99 388 150 388 265 c 0
 388 383 356 432 292 432 c 0
EndSplineSet
EndChar

StartChar: uni01EE
Encoding: 494 494 429
Width: 547
Flags: W
LayerCount: 2
Fore
SplineSet
313 750 m 1
 217 750 l 1
 75 879 l 1
 132 944 l 1
 265 860 l 1
 398 944 l 1
 454 879 l 1
 313 750 l 1
307 403 m 1
 445 397 520 324 520 205 c 0
 520 81 420 -17 243 -17 c 0
 132 -17 58 21 4 85 c 1
 88 167 l 1
 134 124 174 105 235 105 c 0
 307 105 351 143 351 212 c 0
 351 281 303 308 226 308 c 2
 127 308 l 1
 127 400 l 1
 304 574 l 1
 43 574 l 1
 43 693 l 1
 485 693 l 1
 485 578 l 1
 307 403 l 1
EndSplineSet
EndChar

StartChar: uni01EF
Encoding: 495 495 430
Width: 505
Flags: W
LayerCount: 2
Fore
SplineSet
292 611 m 1
 196 611 l 1
 54 748 l 1
 111 813 l 1
 244 722 l 1
 377 813 l 1
 433 748 l 1
 292 611 l 1
276 213 m 1
 413 204 492 139 492 9 c 0
 492 -123 392 -222 223 -222 c 0
 115 -222 41 -183 -12 -119 c 1
 71 -39 l 1
 118 -82 158 -101 214 -101 c 0
 283 -101 329 -63 329 19 c 0
 329 93 286 120 203 120 c 2
 111 120 l 1
 111 212 l 1
 282 413 l 1
 27 413 l 1
 27 531 l 1
 460 531 l 1
 460 423 l 1
 276 213 l 1
EndSplineSet
EndChar

StartChar: uni01F0
Encoding: 496 496 431
Width: 280
Flags: W
LayerCount: 2
Fore
SplineSet
274 813 m 1
 330 748 l 1
 189 611 l 1
 93 611 l 1
 -49 748 l 1
 8 813 l 1
 141 722 l 1
 274 813 l 1
219 531 m 1
 219 60 l 2
 219 -113 130 -176 6 -221 c 1
 -47 -106 l 1
 21 -75 61 -47 61 50 c 2
 61 531 l 1
 219 531 l 1
EndSplineSet
EndChar

StartChar: uni01F1
Encoding: 497 497 432
Width: 1170
Flags: W
LayerCount: 2
Fore
SplineSet
258 693 m 2
 443 693 618 636 618 350 c 0
 618 71 450 0 273 0 c 2
 65 0 l 1
 65 693 l 1
 258 693 l 2
1138 693 m 1
 1138 569 l 1
 837 131 l 1
 1143 131 l 1
 1127 0 l 1
 644 0 l 1
 644 123 l 1
 951 566 l 1
 675 566 l 1
 675 693 l 1
 1138 693 l 1
281 574 m 2
 229 574 l 1
 229 119 l 1
 283 119 l 2
 382 119 448 166 448 350 c 0
 448 536 377 574 281 574 c 2
EndSplineSet
EndChar

StartChar: uni01F2
Encoding: 498 498 433
Width: 1097
Flags: W
LayerCount: 2
Fore
SplineSet
258 693 m 2
 443 693 618 636 618 350 c 0
 618 71 450 0 273 0 c 2
 65 0 l 1
 65 693 l 1
 258 693 l 2
281 574 m 2
 229 574 l 1
 229 119 l 1
 283 119 l 2
 382 119 448 166 448 350 c 0
 448 536 377 574 281 574 c 2
1079 531 m 1
 1079 420 l 1
 839 120 l 1
 1084 120 l 1
 1070 0 l 1
 656 0 l 1
 656 112 l 1
 897 412 l 1
 677 412 l 1
 677 531 l 1
 1079 531 l 1
EndSplineSet
EndChar

StartChar: uni01F3
Encoding: 499 499 434
Width: 1048
Flags: W
LayerCount: 2
Fore
SplineSet
375 498 m 1
 375 759 l 1
 533 742 l 1
 533 0 l 1
 393 0 l 1
 385 62 l 1
 354 18 306 -17 234 -17 c 0
 99 -17 32 95 32 267 c 0
 32 431 118 548 249 548 c 0
 301 548 344 529 375 498 c 1
790 120 m 1
 1035 120 l 1
 1021 0 l 1
 607 0 l 1
 607 112 l 1
 848 412 l 1
 628 412 l 1
 628 531 l 1
 1030 531 l 1
 1030 420 l 1
 790 120 l 1
283 99 m 0
 321 99 350 119 375 159 c 1
 375 388 l 1
 351 416 327 433 292 433 c 0
 236 433 196 385 196 266 c 0
 196 134 232 99 283 99 c 0
EndSplineSet
EndChar

StartChar: uni01F4
Encoding: 500 500 435
Width: 645
Flags: W
LayerCount: 2
Fore
SplineSet
433 956 m 1
 492 838 l 1
 252 751 l 1
 212 831 l 1
 433 956 l 1
365 710 m 0
 466 710 539 675 596 625 c 1
 513 538 l 1
 466 574 428 591 372 591 c 0
 275 591 203 519 203 347 c 0
 203 165 251 103 347 103 c 0
 381 103 412 110 441 126 c 1
 441 283 l 1
 351 283 l 1
 335 399 l 1
 600 399 l 1
 600 56 l 1
 528 10 438 -17 351 -17 c 0
 139 -17 33 110 33 347 c 0
 33 582 179 710 365 710 c 0
EndSplineSet
EndChar

StartChar: uni01F5
Encoding: 501 501 436
Width: 551
Flags: W
LayerCount: 2
Fore
SplineSet
347 835 m 1
 409 717 l 1
 173 622 l 1
 129 703 l 1
 347 835 l 1
514 617 m 1
 551 500 l 1
 514 485 465 479 398 479 c 1
 465 450 498 411 498 342 c 0
 498 239 413 164 275 164 c 0
 253 164 233 166 214 170 c 1
 203 164 197 152 197 140 c 0
 197 124 204 108 255 108 c 2
 335 108 l 2
 459 108 538 43 538 -46 c 0
 538 -155 442 -222 260 -222 c 0
 59 -222 6 -156 6 -51 c 1
 148 -51 l 1
 148 -97 168 -117 264 -117 c 0
 357 -117 379 -91 379 -57 c 0
 379 -26 356 -5 303 -5 c 2
 226 -5 l 2
 110 -5 63 43 63 100 c 0
 63 139 88 178 126 202 c 1
 58 238 31 285 31 354 c 0
 31 474 125 548 264 548 c 0
 382 545 450 579 514 617 c 1
268 444 m 0
 219 444 188 411 188 356 c 0
 188 298 220 266 268 266 c 0
 320 266 348 297 348 358 c 0
 348 417 321 444 268 444 c 0
EndSplineSet
EndChar

StartChar: uni01F6
Encoding: 502 502 437
Width: 951
Flags: W
LayerCount: 2
Fore
SplineSet
880 531 m 1
 895 450 909 359 909 248 c 0
 909 59 777 -17 650 -17 c 0
 534 -17 437 43 437 180 c 2
 437 297 l 1
 229 297 l 1
 229 0 l 1
 65 0 l 1
 65 693 l 1
 229 693 l 1
 229 425 l 1
 437 425 l 1
 437 693 l 1
 601 693 l 1
 601 183 l 2
 601 122 624 99 661 99 c 0
 704 99 751 138 751 261 c 0
 751 343 740 438 724 531 c 1
 880 531 l 1
EndSplineSet
EndChar

StartChar: uni01F7
Encoding: 503 503 438
Width: 603
Flags: W
LayerCount: 2
Fore
SplineSet
387 710 m 0
 491 710 578 636 578 517 c 0
 578 353 455 286 304 230 c 2
 229 202 l 1
 229 0 l 1
 65 0 l 1
 65 693 l 1
 229 693 l 1
 229 650 l 1
 268 689 322 710 387 710 c 0
270 334 m 2
 363 375 409 430 409 508 c 0
 409 564 378 592 329 592 c 0
 291 592 257 578 229 553 c 1
 229 317 l 1
 270 334 l 2
EndSplineSet
EndChar

StartChar: uni01F8
Encoding: 504 504 439
Width: 663
Flags: W
LayerCount: 2
Fore
SplineSet
251 956 m 1
 472 831 l 1
 432 751 l 1
 192 838 l 1
 251 956 l 1
599 693 m 1
 599 0 l 1
 390 0 l 1
 190 537 l 1
 198 474 211 382 211 254 c 2
 211 0 l 1
 65 0 l 1
 65 693 l 1
 269 693 l 1
 474 155 l 1
 465 211 452 302 452 413 c 2
 452 693 l 1
 599 693 l 1
EndSplineSet
EndChar

StartChar: uni01F9
Encoding: 505 505 440
Width: 573
Flags: W
LayerCount: 2
Fore
SplineSet
443 703 m 1
 399 622 l 1
 163 717 l 1
 225 835 l 1
 443 703 l 1
372 548 m 0
 464 548 519 489 519 388 c 2
 519 0 l 1
 361 0 l 1
 361 361 l 2
 361 417 342 432 311 432 c 0
 276 432 246 407 219 363 c 1
 219 0 l 1
 61 0 l 1
 61 531 l 1
 198 531 l 1
 210 467 l 1
 254 520 305 548 372 548 c 0
EndSplineSet
EndChar

StartChar: uni01FA
Encoding: 506 506 441
Width: 590
Flags: W
LayerCount: 2
Fore
SplineSet
436 1073 m 1
 196 987 l 1
 156 1067 l 1
 377 1192 l 1
 436 1073 l 1
295 720 m 0
 209 720 156 781 156 852 c 0
 156 922 209 982 295 982 c 0
 381 982 434 922 434 852 c 0
 434 781 381 720 295 720 c 0
295 901 m 0
 268 901 250 885 250 852 c 0
 250 818 268 802 295 802 c 0
 321 802 340 818 340 852 c 0
 340 885 322 901 295 901 c 0
430 0 m 1
 394 149 l 1
 192 149 l 1
 157 0 l 1
 -13 0 l 1
 196 693 l 1
 395 693 l 1
 604 0 l 1
 430 0 l 1
220 268 m 1
 366 268 l 1
 293 574 l 1
 220 268 l 1
EndSplineSet
EndChar

StartChar: uni01FB
Encoding: 507 507 442
Width: 548
Flags: W
LayerCount: 2
Fore
SplineSet
411 930 m 1
 172 844 l 1
 131 924 l 1
 353 1049 l 1
 411 930 l 1
270 577 m 0
 184 577 131 638 131 709 c 0
 131 780 184 840 270 840 c 0
 356 840 409 780 409 709 c 0
 409 638 356 577 270 577 c 0
270 758 m 0
 243 758 225 742 225 709 c 0
 225 676 243 659 270 659 c 0
 297 659 315 676 315 709 c 0
 315 742 297 758 270 758 c 0
484 154 m 2
 484 113 495 98 520 89 c 1
 487 -14 l 1
 424 -9 383 10 359 63 c 1
 321 4 262 -17 199 -17 c 0
 93 -17 26 52 26 149 c 0
 26 265 114 328 275 328 c 2
 329 328 l 1
 329 351 l 2
 329 414 304 433 239 433 c 0
 205 433 153 423 100 405 c 1
 64 509 l 1
 131 534 204 548 264 548 c 0
 418 548 484 483 484 360 c 2
 484 154 l 2
245 96 m 0
 282 96 310 115 329 147 c 1
 329 241 l 1
 290 241 l 2
 218 241 183 216 183 163 c 0
 183 121 206 96 245 96 c 0
EndSplineSet
EndChar

StartChar: uni01FC
Encoding: 508 508 443
Width: 845
Flags: W
LayerCount: 2
Fore
SplineSet
623 838 m 1
 383 751 l 1
 343 831 l 1
 564 956 l 1
 623 838 l 1
582 118 m 1
 812 118 l 1
 812 0 l 1
 444 0 l 1
 418 149 l 1
 203 149 l 1
 153 0 l 1
 -23 0 l 1
 249 693 l 1
 775 693 l 1
 758 576 l 1
 488 576 l 1
 522 408 l 1
 766 408 l 1
 766 293 l 1
 546 293 l 1
 582 118 l 1
243 268 m 1
 398 268 l 1
 345 573 l 1
 243 268 l 1
EndSplineSet
EndChar

StartChar: uni01FD
Encoding: 509 509 444
Width: 857
Flags: W
LayerCount: 2
Fore
SplineSet
563 717 m 1
 327 622 l 1
 283 703 l 1
 501 835 l 1
 563 717 l 1
828 276 m 0
 828 259 827 235 825 219 c 1
 496 219 l 1
 506 124 551 98 617 98 c 0
 660 98 698 113 744 145 c 1
 809 57 l 1
 756 15 688 -17 602 -17 c 0
 506 -17 435 18 391 74 c 1
 343 6 277 -17 203 -17 c 0
 93 -17 26 52 26 149 c 0
 26 265 116 328 281 328 c 2
 335 328 l 1
 335 350 l 2
 335 412 310 432 245 432 c 0
 211 432 159 422 106 404 c 1
 70 509 l 1
 137 534 210 548 270 548 c 0
 351 548 401 522 433 481 c 1
 472 522 524 548 595 548 c 0
 734 548 828 448 828 276 c 0
672 314 m 1
 672 321 l 2
 672 393 649 443 586 443 c 0
 534 443 503 409 496 314 c 1
 672 314 l 1
253 96 m 0
 293 96 321 120 348 160 c 1
 341 183 338 208 337 234 c 2
 337 238 l 1
 297 238 l 2
 227 238 193 215 193 160 c 0
 193 120 214 96 253 96 c 0
EndSplineSet
EndChar

StartChar: uni01FE
Encoding: 510 510 445
Width: 691
Flags: W
LayerCount: 2
Fore
SplineSet
484 872 m 1
 244 785 l 1
 204 865 l 1
 425 990 l 1
 484 872 l 1
514 667 m 1
 606 611 658 501 658 347 c 0
 658 120 541 -17 345 -17 c 0
 328 -17 312 -16 296 -14 c 1
 260 -134 l 1
 136 -102 l 1
 176 27 l 1
 84 84 33 194 33 347 c 0
 33 573 150 710 345 710 c 0
 362 710 379 709 395 707 c 1
 432 828 l 1
 555 795 l 1
 514 667 l 1
345 590 m 0
 253 590 205 522 205 347 c 0
 205 246 218 184 243 148 c 1
 375 588 l 1
 366 589 356 590 345 590 c 0
345 103 m 0
 439 103 486 171 486 347 c 0
 486 449 473 511 448 546 c 1
 315 105 l 1
 325 104 335 103 345 103 c 0
EndSplineSet
EndChar

StartChar: uni01FF
Encoding: 511 511 446
Width: 584
Flags: W
LayerCount: 2
Fore
SplineSet
426 717 m 1
 190 622 l 1
 146 703 l 1
 364 835 l 1
 426 717 l 1
438 510 m 1
 511 465 552 381 552 265 c 0
 552 95 454 -17 292 -17 c 0
 280 -17 269 -16 258 -15 c 1
 221 -135 l 1
 106 -101 l 1
 145 21 l 1
 73 67 32 151 32 266 c 0
 32 436 130 548 292 548 c 0
 303 548 314 547 325 546 c 1
 364 667 l 1
 480 633 l 1
 438 510 l 1
292 432 m 2
 222 432 183 381 183 266 c 0
 183 197 192 156 208 132 c 1
 308 432 l 1
 292 432 l 2
292 99 m 2
 363 99 401 150 401 265 c 0
 401 334 392 375 375 399 c 1
 276 99 l 1
 292 99 l 2
EndSplineSet
EndChar

StartChar: uni0200
Encoding: 512 512 447
Width: 590
Flags: W
LayerCount: 2
Fore
SplineSet
262 789 m 1
 181 751 l 1
 59 933 l 1
 165 986 l 1
 262 789 l 1
429 789 m 1
 346 756 l 1
 233 936 l 1
 341 986 l 1
 429 789 l 1
430 0 m 1
 394 149 l 1
 192 149 l 1
 157 0 l 1
 -13 0 l 1
 196 693 l 1
 395 693 l 1
 604 0 l 1
 430 0 l 1
220 268 m 1
 366 268 l 1
 293 574 l 1
 220 268 l 1
EndSplineSet
EndChar

